<?xml version="1.0" encoding="UTF-8"?>
<svg xmlns="http://www.w3.org/2000/svg" version="1.1" width="300" height="300" viewBox="0 0 300 300"><rect x="0" y="0" width="300" height="300" fill="#ffffff"/><g transform="scale(4.918)"><g transform="translate(0,0)"><path fill-rule="evenodd" d="M8 0L8 3L9 3L9 4L11 4L11 5L12 5L12 4L13 4L13 6L12 6L12 8L11 8L11 6L10 6L10 5L8 5L8 10L6 10L6 9L7 9L7 8L6 8L6 9L5 9L5 8L2 8L2 11L4 11L4 12L5 12L5 11L7 11L7 12L6 12L6 13L7 13L7 14L6 14L6 15L7 15L7 14L8 14L8 16L6 16L6 17L5 17L5 15L4 15L4 14L5 14L5 13L4 13L4 14L3 14L3 13L1 13L1 12L0 12L0 13L1 13L1 15L0 15L0 17L3 17L3 21L2 21L2 23L3 23L3 24L4 24L4 25L5 25L5 24L6 24L6 25L7 25L7 24L9 24L9 25L8 25L8 26L6 26L6 27L9 27L9 26L10 26L10 28L4 28L4 27L5 27L5 26L2 26L2 27L3 27L3 28L1 28L1 29L0 29L0 31L2 31L2 32L1 32L1 33L2 33L2 32L3 32L3 31L2 31L2 30L1 30L1 29L4 29L4 34L3 34L3 35L2 35L2 40L3 40L3 37L4 37L4 39L5 39L5 38L6 38L6 39L7 39L7 40L5 40L5 41L3 41L3 45L2 45L2 44L0 44L0 45L2 45L2 47L1 47L1 46L0 46L0 47L1 47L1 49L2 49L2 51L0 51L0 53L4 53L4 52L5 52L5 51L7 51L7 50L4 50L4 49L8 49L8 48L6 48L6 47L7 47L7 46L5 46L5 45L4 45L4 44L6 44L6 45L8 45L8 47L9 47L9 44L6 44L6 43L7 43L7 42L8 42L8 43L10 43L10 45L11 45L11 46L10 46L10 48L9 48L9 52L6 52L6 53L8 53L8 54L9 54L9 55L10 55L10 56L8 56L8 59L9 59L9 57L10 57L10 58L11 58L11 59L10 59L10 60L9 60L9 61L10 61L10 60L11 60L11 61L12 61L12 59L13 59L13 58L11 58L11 57L10 57L10 56L11 56L11 55L12 55L12 56L13 56L13 57L14 57L14 58L15 58L15 59L14 59L14 61L15 61L15 59L16 59L16 58L18 58L18 59L17 59L17 60L16 60L16 61L17 61L17 60L18 60L18 61L20 61L20 60L21 60L21 59L20 59L20 58L21 58L21 56L22 56L22 55L20 55L20 53L21 53L21 52L20 52L20 51L22 51L22 52L23 52L23 53L22 53L22 54L24 54L24 52L25 52L25 53L26 53L26 54L27 54L27 55L28 55L28 56L26 56L26 55L25 55L25 56L26 56L26 59L28 59L28 60L27 60L27 61L28 61L28 60L29 60L29 61L31 61L31 60L32 60L32 61L39 61L39 60L41 60L41 61L44 61L44 60L45 60L45 61L47 61L47 60L48 60L48 61L49 61L49 60L50 60L50 59L51 59L51 61L53 61L53 60L55 60L55 61L56 61L56 58L57 58L57 57L58 57L58 59L59 59L59 57L60 57L60 60L57 60L57 61L61 61L61 54L59 54L59 53L61 53L61 52L60 52L60 51L61 51L61 50L60 50L60 49L61 49L61 48L60 48L60 49L59 49L59 48L55 48L55 49L54 49L54 47L55 47L55 45L57 45L57 46L56 46L56 47L57 47L57 46L58 46L58 45L59 45L59 47L61 47L61 46L60 46L60 45L61 45L61 44L60 44L60 43L61 43L61 42L60 42L60 41L61 41L61 40L60 40L60 39L61 39L61 38L59 38L59 40L58 40L58 39L57 39L57 40L56 40L56 37L59 37L59 36L57 36L57 35L61 35L61 34L58 34L58 33L59 33L59 32L58 32L58 31L59 31L59 30L60 30L60 32L61 32L61 30L60 30L60 29L61 29L61 26L60 26L60 25L61 25L61 22L59 22L59 20L57 20L57 19L58 19L58 18L56 18L56 17L55 17L55 14L58 14L58 15L56 15L56 16L57 16L57 17L59 17L59 16L58 16L58 15L59 15L59 14L58 14L58 13L60 13L60 14L61 14L61 10L58 10L58 9L61 9L61 8L58 8L58 9L56 9L56 8L53 8L53 6L52 6L52 7L51 7L51 5L52 5L52 4L53 4L53 0L51 0L51 2L50 2L50 1L49 1L49 2L48 2L48 3L47 3L47 1L46 1L46 0L45 0L45 2L44 2L44 1L43 1L43 0L40 0L40 1L39 1L39 2L40 2L40 1L43 1L43 2L41 2L41 5L43 5L43 6L42 6L42 8L40 8L40 10L41 10L41 11L37 11L37 10L35 10L35 9L36 9L36 8L35 8L35 9L33 9L33 6L34 6L34 7L35 7L35 6L34 6L34 5L33 5L33 2L34 2L34 4L38 4L38 5L36 5L36 7L37 7L37 9L39 9L39 8L38 8L38 7L39 7L39 6L40 6L40 7L41 7L41 6L40 6L40 5L39 5L39 4L40 4L40 3L37 3L37 2L38 2L38 0L35 0L35 2L34 2L34 1L33 1L33 0L30 0L30 1L29 1L29 3L30 3L30 4L28 4L28 2L27 2L27 3L25 3L25 2L24 2L24 1L23 1L23 2L22 2L22 4L23 4L23 3L24 3L24 8L23 8L23 9L21 9L21 8L22 8L22 7L23 7L23 5L21 5L21 4L20 4L20 1L21 1L21 0L17 0L17 1L16 1L16 2L13 2L13 1L14 1L14 0L13 0L13 1L12 1L12 3L10 3L10 2L11 2L11 0ZM25 0L25 1L27 1L27 0ZM30 1L30 2L33 2L33 1ZM36 1L36 2L37 2L37 1ZM45 2L45 3L43 3L43 5L44 5L44 6L43 6L43 7L44 7L44 6L45 6L45 8L43 8L43 9L45 9L45 10L43 10L43 11L46 11L46 10L47 10L47 11L48 11L48 12L42 12L42 11L41 11L41 12L39 12L39 13L41 13L41 12L42 12L42 13L43 13L43 14L42 14L42 15L41 15L41 16L40 16L40 17L41 17L41 16L42 16L42 15L43 15L43 16L44 16L44 17L46 17L46 18L47 18L47 19L48 19L48 20L44 20L44 21L46 21L46 22L45 22L45 23L46 23L46 24L44 24L44 23L43 23L43 22L42 22L42 23L41 23L41 24L40 24L40 27L39 27L39 25L38 25L38 24L39 24L39 23L40 23L40 22L41 22L41 20L40 20L40 18L38 18L38 19L37 19L37 18L36 18L36 16L37 16L37 17L38 17L38 16L39 16L39 15L40 15L40 14L39 14L39 15L38 15L38 12L37 12L37 11L35 11L35 12L34 12L34 11L30 11L30 9L28 9L28 6L27 6L27 8L26 8L26 6L25 6L25 9L24 9L24 10L25 10L25 11L23 11L23 10L21 10L21 11L19 11L19 13L20 13L20 14L21 14L21 16L22 16L22 15L24 15L24 13L20 13L20 12L21 12L21 11L22 11L22 12L25 12L25 13L26 13L26 10L25 10L25 9L28 9L28 11L27 11L27 13L28 13L28 12L30 12L30 15L29 15L29 14L27 14L27 15L25 15L25 16L24 16L24 17L25 17L25 18L24 18L24 20L23 20L23 17L22 17L22 19L18 19L18 20L15 20L15 19L16 19L16 16L13 16L13 15L14 15L14 14L15 14L15 15L17 15L17 14L16 14L16 13L17 13L17 12L18 12L18 10L20 10L20 5L19 5L19 8L17 8L17 9L16 9L16 6L17 6L17 7L18 7L18 6L17 6L17 4L16 4L16 3L15 3L15 4L16 4L16 5L15 5L15 9L14 9L14 8L13 8L13 10L12 10L12 11L11 11L11 10L10 10L10 8L9 8L9 12L10 12L10 11L11 11L11 12L12 12L12 13L13 13L13 12L14 12L14 14L13 14L13 15L11 15L11 13L10 13L10 14L9 14L9 13L8 13L8 14L9 14L9 16L10 16L10 18L9 18L9 17L6 17L6 18L4 18L4 21L3 21L3 22L7 22L7 21L5 21L5 20L8 20L8 19L6 19L6 18L9 18L9 19L10 19L10 18L12 18L12 17L13 17L13 21L12 21L12 20L11 20L11 21L12 21L12 22L13 22L13 23L10 23L10 22L9 22L9 21L10 21L10 20L9 20L9 21L8 21L8 23L9 23L9 24L10 24L10 25L11 25L11 28L15 28L15 26L16 26L16 27L17 27L17 26L16 26L16 25L17 25L17 23L18 23L18 25L19 25L19 27L18 27L18 28L20 28L20 30L19 30L19 29L17 29L17 28L16 28L16 30L15 30L15 29L11 29L11 30L10 30L10 29L9 29L9 30L10 30L10 31L9 31L9 32L11 32L11 33L9 33L9 34L8 34L8 33L6 33L6 34L4 34L4 36L5 36L5 37L6 37L6 38L7 38L7 39L9 39L9 38L11 38L11 39L10 39L10 40L9 40L9 41L10 41L10 43L11 43L11 45L12 45L12 46L11 46L11 47L13 47L13 49L14 49L14 47L13 47L13 45L14 45L14 46L16 46L16 47L15 47L15 50L14 50L14 51L13 51L13 50L10 50L10 51L11 51L11 52L13 52L13 53L14 53L14 52L15 52L15 50L16 50L16 52L19 52L19 51L20 51L20 50L23 50L23 52L24 52L24 51L25 51L25 50L30 50L30 51L26 51L26 52L32 52L32 50L31 50L31 49L33 49L33 50L34 50L34 51L33 51L33 54L34 54L34 52L35 52L35 51L37 51L37 52L38 52L38 53L39 53L39 54L38 54L38 55L37 55L37 53L36 53L36 55L37 55L37 58L36 58L36 59L35 59L35 58L34 58L34 57L36 57L36 56L34 56L34 55L33 55L33 56L34 56L34 57L33 57L33 59L34 59L34 60L37 60L37 59L39 59L39 58L40 58L40 59L41 59L41 58L40 58L40 57L41 57L41 56L40 56L40 55L42 55L42 57L43 57L43 58L42 58L42 59L43 59L43 60L44 60L44 59L45 59L45 60L47 60L47 59L46 59L46 58L47 58L47 57L46 57L46 58L44 58L44 57L45 57L45 56L46 56L46 54L47 54L47 56L50 56L50 57L49 57L49 58L51 58L51 59L52 59L52 60L53 60L53 58L51 58L51 57L52 57L52 53L50 53L50 52L52 52L52 51L53 51L53 50L51 50L51 48L53 48L53 47L50 47L50 46L51 46L51 45L50 45L50 46L49 46L49 45L48 45L48 44L52 44L52 43L54 43L54 44L55 44L55 43L54 43L54 42L52 42L52 41L55 41L55 42L57 42L57 43L56 43L56 44L57 44L57 45L58 45L58 44L59 44L59 45L60 45L60 44L59 44L59 43L58 43L58 42L59 42L59 41L60 41L60 40L59 40L59 41L58 41L58 40L57 40L57 41L55 41L55 39L54 39L54 38L53 38L53 35L54 35L54 36L55 36L55 37L56 37L56 35L57 35L57 33L58 33L58 32L57 32L57 33L53 33L53 35L50 35L50 36L52 36L52 39L51 39L51 40L52 40L52 41L50 41L50 42L52 42L52 43L49 43L49 41L48 41L48 40L49 40L49 39L50 39L50 38L51 38L51 37L50 37L50 38L49 38L49 37L47 37L47 36L49 36L49 33L50 33L50 34L51 34L51 30L52 30L52 28L54 28L54 27L58 27L58 28L57 28L57 29L58 29L58 30L59 30L59 29L58 29L58 28L60 28L60 26L59 26L59 25L60 25L60 23L58 23L58 22L57 22L57 20L56 20L56 21L55 21L55 22L54 22L54 19L55 19L55 18L53 18L53 17L52 17L52 15L53 15L53 13L55 13L55 12L56 12L56 13L57 13L57 12L56 12L56 11L58 11L58 12L59 12L59 11L58 11L58 10L53 10L53 9L51 9L51 8L50 8L50 9L48 9L48 8L49 8L49 7L50 7L50 5L49 5L49 3L50 3L50 2L49 2L49 3L48 3L48 4L45 4L45 3L46 3L46 2ZM13 3L13 4L14 4L14 3ZM18 3L18 4L19 4L19 3ZM51 3L51 4L52 4L52 3ZM29 5L29 8L32 8L32 5ZM46 5L46 9L47 9L47 10L48 10L48 11L51 11L51 10L48 10L48 9L47 9L47 8L48 8L48 7L49 7L49 6L48 6L48 5ZM9 6L9 7L10 7L10 6ZM13 6L13 7L14 7L14 6ZM21 6L21 7L22 7L22 6ZM30 6L30 7L31 7L31 6ZM37 6L37 7L38 7L38 6ZM47 6L47 7L48 7L48 6ZM0 9L0 10L1 10L1 9ZM4 9L4 10L5 10L5 9ZM15 9L15 10L16 10L16 11L17 11L17 10L18 10L18 9L17 9L17 10L16 10L16 9ZM32 9L32 10L33 10L33 9ZM41 9L41 10L42 10L42 9ZM12 11L12 12L13 12L13 11ZM54 11L54 12L55 12L55 11ZM15 12L15 13L16 13L16 12ZM32 12L32 13L34 13L34 14L35 14L35 15L34 15L34 18L35 18L35 19L34 19L34 20L35 20L35 19L36 19L36 21L35 21L35 22L34 22L34 21L33 21L33 22L34 22L34 25L32 25L32 24L33 24L33 23L32 23L32 24L31 24L31 23L28 23L28 21L27 21L27 23L26 23L26 22L25 22L25 21L23 21L23 20L22 20L22 22L24 22L24 23L25 23L25 25L24 25L24 24L23 24L23 23L20 23L20 24L23 24L23 25L22 25L22 26L21 26L21 25L20 25L20 28L21 28L21 30L23 30L23 29L24 29L24 31L27 31L27 32L28 32L28 34L27 34L27 35L26 35L26 37L25 37L25 36L24 36L24 33L25 33L25 34L26 34L26 33L25 33L25 32L24 32L24 33L23 33L23 31L20 31L20 32L19 32L19 31L18 31L18 33L20 33L20 34L19 34L19 35L20 35L20 36L18 36L18 35L17 35L17 30L16 30L16 31L15 31L15 30L13 30L13 33L12 33L12 34L11 34L11 38L12 38L12 39L13 39L13 38L14 38L14 40L11 40L11 41L13 41L13 44L14 44L14 43L15 43L15 44L16 44L16 43L15 43L15 42L16 42L16 41L17 41L17 42L19 42L19 43L20 43L20 44L17 44L17 45L16 45L16 46L17 46L17 49L16 49L16 50L17 50L17 51L18 51L18 50L17 50L17 49L19 49L19 48L18 48L18 47L19 47L19 46L20 46L20 48L22 48L22 49L24 49L24 50L25 50L25 49L24 49L24 48L26 48L26 49L29 49L29 48L31 48L31 45L29 45L29 42L32 42L32 43L31 43L31 44L32 44L32 45L33 45L33 46L32 46L32 47L34 47L34 45L36 45L36 44L37 44L37 46L35 46L35 47L36 47L36 48L35 48L35 49L34 49L34 48L33 48L33 49L34 49L34 50L35 50L35 49L36 49L36 50L37 50L37 49L36 49L36 48L37 48L37 46L39 46L39 48L41 48L41 49L40 49L40 50L38 50L38 51L40 51L40 52L39 52L39 53L40 53L40 52L42 52L42 51L40 51L40 50L43 50L43 52L46 52L46 53L47 53L47 54L48 54L48 55L51 55L51 54L48 54L48 53L49 53L49 52L50 52L50 51L51 51L51 50L49 50L49 48L50 48L50 47L49 47L49 46L48 46L48 45L47 45L47 44L48 44L48 41L47 41L47 43L46 43L46 45L44 45L44 46L45 46L45 47L42 47L42 46L43 46L43 44L45 44L45 43L40 43L40 44L38 44L38 43L37 43L37 42L38 42L38 41L40 41L40 40L41 40L41 39L40 39L40 38L39 38L39 37L40 37L40 36L39 36L39 37L38 37L38 38L37 38L37 36L38 36L38 35L41 35L41 34L43 34L43 35L42 35L42 36L41 36L41 38L43 38L43 39L42 39L42 41L41 41L41 42L46 42L46 41L43 41L43 40L46 40L46 39L47 39L47 38L46 38L46 36L47 36L47 34L48 34L48 33L49 33L49 32L46 32L46 31L48 31L48 30L51 30L51 28L52 28L52 24L51 24L51 26L49 26L49 24L50 24L50 23L52 23L52 22L49 22L49 20L50 20L50 21L51 21L51 20L50 20L50 19L52 19L52 18L50 18L50 16L48 16L48 15L51 15L51 14L52 14L52 13L53 13L53 12L51 12L51 14L48 14L48 13L50 13L50 12L48 12L48 13L47 13L47 14L45 14L45 15L44 15L44 16L46 16L46 15L47 15L47 16L48 16L48 17L49 17L49 18L48 18L48 19L49 19L49 20L48 20L48 21L47 21L47 22L46 22L46 23L47 23L47 24L46 24L46 25L47 25L47 26L45 26L45 27L44 27L44 26L43 26L43 25L44 25L44 24L43 24L43 23L42 23L42 24L43 24L43 25L41 25L41 26L43 26L43 27L44 27L44 28L42 28L42 29L40 29L40 28L41 28L41 27L40 27L40 28L39 28L39 27L38 27L38 26L36 26L36 27L35 27L35 25L37 25L37 24L36 24L36 23L39 23L39 22L40 22L40 20L39 20L39 19L38 19L38 20L37 20L37 19L36 19L36 18L35 18L35 15L36 15L36 14L37 14L37 13L36 13L36 14L35 14L35 13L34 13L34 12ZM2 14L2 16L4 16L4 15L3 15L3 14ZM47 14L47 15L48 15L48 14ZM18 15L18 17L19 17L19 15ZM27 15L27 16L28 16L28 15ZM30 15L30 17L27 17L27 19L26 19L26 18L25 18L25 20L28 20L28 18L29 18L29 21L30 21L30 19L31 19L31 18L32 18L32 20L31 20L31 21L32 21L32 20L33 20L33 16L31 16L31 15ZM37 15L37 16L38 16L38 15ZM60 15L60 17L61 17L61 15ZM14 17L14 18L15 18L15 17ZM0 18L0 20L1 20L1 18ZM41 18L41 19L45 19L45 18ZM49 18L49 19L50 19L50 18ZM59 18L59 19L61 19L61 18ZM18 20L18 21L15 21L15 23L14 23L14 25L13 25L13 24L11 24L11 25L13 25L13 26L14 26L14 25L16 25L16 22L18 22L18 23L19 23L19 20ZM20 20L20 21L21 21L21 20ZM38 20L38 21L39 21L39 20ZM52 20L52 21L53 21L53 20ZM60 20L60 21L61 21L61 20ZM0 21L0 22L1 22L1 21ZM36 21L36 22L37 22L37 21ZM47 22L47 23L48 23L48 24L47 24L47 25L48 25L48 24L49 24L49 22ZM53 22L53 23L54 23L54 24L53 24L53 25L54 25L54 26L53 26L53 27L54 27L54 26L55 26L55 24L57 24L57 22L56 22L56 23L54 23L54 22ZM0 23L0 26L1 26L1 25L2 25L2 24L1 24L1 23ZM4 23L4 24L5 24L5 23ZM6 23L6 24L7 24L7 23ZM27 24L27 25L25 25L25 26L28 26L28 27L29 27L29 28L33 28L33 29L34 29L34 30L33 30L33 31L35 31L35 29L36 29L36 33L35 33L35 34L37 34L37 35L38 35L38 34L40 34L40 33L37 33L37 31L39 31L39 32L40 32L40 29L39 29L39 30L37 30L37 29L36 29L36 28L37 28L37 27L36 27L36 28L35 28L35 27L34 27L34 28L33 28L33 26L32 26L32 27L30 27L30 26L31 26L31 24L30 24L30 25L29 25L29 24ZM58 24L58 25L57 25L57 26L58 26L58 27L59 27L59 26L58 26L58 25L59 25L59 24ZM23 25L23 26L22 26L22 27L21 27L21 28L22 28L22 27L23 27L23 28L25 28L25 29L26 29L26 30L27 30L27 29L28 29L28 28L27 28L27 27L26 27L26 28L25 28L25 27L23 27L23 26L24 26L24 25ZM45 27L45 28L44 28L44 29L45 29L45 30L47 30L47 29L48 29L48 28L49 28L49 29L50 29L50 28L49 28L49 27L48 27L48 28L47 28L47 27ZM34 28L34 29L35 29L35 28ZM45 28L45 29L47 29L47 28ZM5 29L5 32L8 32L8 29ZM29 29L29 32L32 32L32 29ZM53 29L53 32L56 32L56 29ZM6 30L6 31L7 31L7 30ZM11 30L11 32L12 32L12 30ZM30 30L30 31L31 31L31 30ZM41 30L41 33L43 33L43 32L42 32L42 31L43 31L43 30ZM54 30L54 31L55 31L55 30ZM14 31L14 36L13 36L13 35L12 35L12 37L15 37L15 38L16 38L16 37L15 37L15 36L16 36L16 33L15 33L15 31ZM33 32L33 33L34 33L34 32ZM44 32L44 33L46 33L46 34L45 34L45 35L43 35L43 36L42 36L42 37L43 37L43 38L44 38L44 37L43 37L43 36L45 36L45 35L46 35L46 34L47 34L47 33L46 33L46 32ZM30 33L30 34L29 34L29 35L30 35L30 34L31 34L31 33ZM6 34L6 35L5 35L5 36L6 36L6 37L8 37L8 38L9 38L9 35L8 35L8 34ZM21 34L21 35L22 35L22 34ZM33 34L33 35L32 35L32 36L33 36L33 35L34 35L34 36L35 36L35 37L32 37L32 38L30 38L30 37L31 37L31 36L30 36L30 37L28 37L28 35L27 35L27 37L26 37L26 38L25 38L25 37L24 37L24 36L22 36L22 37L23 37L23 38L22 38L22 39L21 39L21 38L20 38L20 37L19 37L19 38L18 38L18 36L17 36L17 39L18 39L18 40L19 40L19 39L20 39L20 43L21 43L21 44L20 44L20 45L21 45L21 46L23 46L23 47L25 47L25 44L24 44L24 43L25 43L25 42L26 42L26 41L27 41L27 43L26 43L26 45L28 45L28 46L27 46L27 47L26 47L26 48L28 48L28 46L29 46L29 47L30 47L30 46L29 46L29 45L28 45L28 44L27 44L27 43L28 43L28 40L26 40L26 39L29 39L29 40L30 40L30 39L32 39L32 40L31 40L31 41L32 41L32 42L33 42L33 43L35 43L35 41L36 41L36 42L37 42L37 41L36 41L36 40L37 40L37 39L36 39L36 40L35 40L35 41L34 41L34 39L33 39L33 38L35 38L35 37L36 37L36 35L34 35L34 34ZM54 34L54 35L55 35L55 34ZM0 35L0 37L1 37L1 35ZM6 35L6 36L7 36L7 35ZM60 36L60 37L61 37L61 36ZM0 38L0 40L1 40L1 38ZM23 38L23 39L24 39L24 40L25 40L25 41L23 41L23 40L22 40L22 42L21 42L21 43L22 43L22 42L23 42L23 43L24 43L24 42L25 42L25 41L26 41L26 40L25 40L25 39L24 39L24 38ZM45 38L45 39L46 39L46 38ZM48 38L48 39L49 39L49 38ZM15 39L15 40L14 40L14 42L15 42L15 40L16 40L16 39ZM39 39L39 40L40 40L40 39ZM52 39L52 40L54 40L54 39ZM7 40L7 41L6 41L6 42L7 42L7 41L8 41L8 40ZM0 41L0 43L2 43L2 41ZM57 41L57 42L58 42L58 41ZM11 42L11 43L12 43L12 42ZM57 43L57 44L58 44L58 43ZM22 44L22 45L24 45L24 44ZM33 44L33 45L34 45L34 44ZM40 44L40 46L42 46L42 44ZM17 45L17 46L19 46L19 45ZM46 45L46 46L47 46L47 47L45 47L45 48L43 48L43 49L44 49L44 51L45 51L45 50L47 50L47 51L46 51L46 52L49 52L49 51L48 51L48 50L47 50L47 49L48 49L48 48L47 48L47 47L48 47L48 46L47 46L47 45ZM52 45L52 46L54 46L54 45ZM3 47L3 48L5 48L5 47ZM10 48L10 49L12 49L12 48ZM45 48L45 49L47 49L47 48ZM56 49L56 50L57 50L57 51L54 51L54 52L59 52L59 49L58 49L58 50L57 50L57 49ZM3 51L3 52L4 52L4 51ZM9 52L9 54L11 54L11 53L10 53L10 52ZM16 53L16 54L18 54L18 55L17 55L17 56L16 56L16 55L15 55L15 54L14 54L14 56L15 56L15 57L17 57L17 56L19 56L19 57L20 57L20 55L19 55L19 54L18 54L18 53ZM29 53L29 56L32 56L32 53ZM41 53L41 54L42 54L42 55L43 55L43 56L45 56L45 55L44 55L44 53L43 53L43 54L42 54L42 53ZM53 53L53 56L56 56L56 53ZM57 53L57 54L58 54L58 53ZM30 54L30 55L31 55L31 54ZM39 54L39 55L40 55L40 54ZM54 54L54 55L55 55L55 54ZM23 55L23 56L24 56L24 55ZM57 55L57 56L60 56L60 55ZM39 56L39 57L40 57L40 56ZM24 57L24 58L22 58L22 59L23 59L23 60L24 60L24 61L26 61L26 60L25 60L25 57ZM29 57L29 58L28 58L28 59L29 59L29 58L31 58L31 59L32 59L32 58L31 58L31 57ZM54 57L54 59L55 59L55 57ZM43 58L43 59L44 59L44 58ZM19 59L19 60L20 60L20 59ZM48 59L48 60L49 60L49 59ZM0 0L0 7L7 7L7 0ZM1 1L1 6L6 6L6 1ZM2 2L2 5L5 5L5 2ZM54 0L54 7L61 7L61 0ZM55 1L55 6L60 6L60 1ZM56 2L56 5L59 5L59 2ZM0 54L0 61L7 61L7 54ZM1 55L1 60L6 60L6 55ZM2 56L2 59L5 59L5 56Z" fill="#000000"/></g></g></svg>
