<?xml version="1.0" encoding="UTF-8"?>
<svg xmlns="http://www.w3.org/2000/svg" version="1.1" width="300" height="300" viewBox="0 0 300 300"><rect x="0" y="0" width="300" height="300" fill="#ffffff"/><g transform="scale(4.918)"><g transform="translate(0,0)"><path fill-rule="evenodd" d="M8 0L8 3L9 3L9 4L11 4L11 5L12 5L12 4L11 4L11 3L14 3L14 2L15 2L15 3L16 3L16 4L14 4L14 7L15 7L15 5L16 5L16 4L17 4L17 2L18 2L18 1L19 1L19 2L20 2L20 3L18 3L18 4L19 4L19 5L18 5L18 7L17 7L17 6L16 6L16 9L15 9L15 10L14 10L14 9L13 9L13 10L12 10L12 11L13 11L13 12L14 12L14 13L15 13L15 14L14 14L14 16L13 16L13 15L11 15L11 14L12 14L12 12L11 12L11 11L10 11L10 12L9 12L9 8L10 8L10 10L11 10L11 8L13 8L13 6L12 6L12 7L11 7L11 6L10 6L10 5L8 5L8 10L6 10L6 9L7 9L7 8L6 8L6 9L5 9L5 8L2 8L2 11L5 11L5 12L2 12L2 13L1 13L1 12L0 12L0 13L1 13L1 15L0 15L0 17L2 17L2 16L3 16L3 17L4 17L4 18L3 18L3 20L2 20L2 21L3 21L3 20L4 20L4 22L3 22L3 23L4 23L4 25L9 25L9 26L10 26L10 25L11 25L11 27L10 27L10 28L11 28L11 27L14 27L14 29L13 29L13 28L12 28L12 30L13 30L13 31L12 31L12 32L14 32L14 29L15 29L15 27L14 27L14 26L12 26L12 23L13 23L13 22L14 22L14 20L15 20L15 21L17 21L17 22L18 22L18 23L17 23L17 25L16 25L16 24L15 24L15 23L16 23L16 22L15 22L15 23L14 23L14 24L13 24L13 25L16 25L16 26L17 26L17 27L16 27L16 28L17 28L17 29L16 29L16 31L15 31L15 33L12 33L12 34L11 34L11 38L12 38L12 39L13 39L13 38L14 38L14 40L11 40L11 39L7 39L7 38L10 38L10 37L9 37L9 36L10 36L10 32L11 32L11 30L10 30L10 32L9 32L9 28L4 28L4 29L3 29L3 26L2 26L2 22L1 22L1 21L0 21L0 23L1 23L1 24L0 24L0 25L1 25L1 26L2 26L2 27L0 27L0 28L1 28L1 29L0 29L0 30L1 30L1 29L3 29L3 30L4 30L4 32L3 32L3 31L2 31L2 33L1 33L1 32L0 32L0 33L1 33L1 34L0 34L0 36L2 36L2 37L1 37L1 38L3 38L3 40L4 40L4 41L3 41L3 45L2 45L2 40L1 40L1 39L0 39L0 40L1 40L1 43L0 43L0 45L2 45L2 46L1 46L1 48L0 48L0 50L2 50L2 51L0 51L0 53L4 53L4 52L5 52L5 51L7 51L7 50L8 50L8 51L9 51L9 52L6 52L6 53L8 53L8 54L9 54L9 55L10 55L10 56L8 56L8 59L9 59L9 57L10 57L10 58L12 58L12 60L10 60L10 61L12 61L12 60L13 60L13 61L17 61L17 60L18 60L18 61L20 61L20 60L21 60L21 59L20 59L20 58L21 58L21 56L22 56L22 55L19 55L19 54L20 54L20 52L19 52L19 50L18 50L18 49L16 49L16 50L15 50L15 52L14 52L14 53L13 53L13 52L12 52L12 48L11 48L11 47L13 47L13 49L14 49L14 48L15 48L15 47L16 47L16 46L17 46L17 45L18 45L18 46L20 46L20 47L21 47L21 45L22 45L22 48L21 48L21 49L24 49L24 50L22 50L22 51L21 51L21 50L20 50L20 51L21 51L21 52L22 52L22 53L23 53L23 51L25 51L25 53L26 53L26 54L23 54L23 55L26 55L26 54L27 54L27 56L25 56L25 59L24 59L24 61L26 61L26 60L27 60L27 61L29 61L29 60L30 60L30 59L31 59L31 60L32 60L32 59L33 59L33 61L39 61L39 60L41 60L41 59L42 59L42 58L43 58L43 59L44 59L44 60L45 60L45 61L46 61L46 59L47 59L47 58L46 58L46 57L48 57L48 59L49 59L49 58L50 58L50 59L51 59L51 60L50 60L50 61L53 61L53 60L55 60L55 61L56 61L56 58L57 58L57 57L58 57L58 59L59 59L59 57L60 57L60 60L57 60L57 61L61 61L61 54L59 54L59 53L61 53L61 52L60 52L60 51L61 51L61 50L60 50L60 49L61 49L61 48L60 48L60 49L59 49L59 48L55 48L55 49L54 49L54 47L55 47L55 45L57 45L57 46L56 46L56 47L61 47L61 46L60 46L60 45L61 45L61 44L60 44L60 43L61 43L61 42L60 42L60 41L61 41L61 38L59 38L59 36L58 36L58 34L57 34L57 36L54 36L54 37L52 37L52 36L50 36L50 35L56 35L56 33L59 33L59 32L57 32L57 29L59 29L59 30L60 30L60 31L61 31L61 30L60 30L60 29L59 29L59 28L57 28L57 27L56 27L56 28L55 28L55 27L54 27L54 26L55 26L55 24L57 24L57 25L56 25L56 26L57 26L57 25L59 25L59 24L57 24L57 22L58 22L58 23L59 23L59 22L60 22L60 25L61 25L61 22L60 22L60 21L61 21L61 18L59 18L59 20L57 20L57 19L58 19L58 18L56 18L56 17L54 17L54 16L55 16L55 14L58 14L58 15L56 15L56 16L57 16L57 17L59 17L59 16L58 16L58 15L59 15L59 14L58 14L58 13L60 13L60 14L61 14L61 10L58 10L58 9L61 9L61 8L58 8L58 9L56 9L56 8L53 8L53 6L52 6L52 7L51 7L51 5L52 5L52 4L53 4L53 0L51 0L51 2L50 2L50 1L49 1L49 2L47 2L47 1L46 1L46 0L41 0L41 1L39 1L39 0L37 0L37 1L36 1L36 2L34 2L34 1L35 1L35 0L34 0L34 1L33 1L33 0L30 0L30 1L33 1L33 2L34 2L34 3L33 3L33 4L28 4L28 2L27 2L27 3L24 3L24 2L25 2L25 1L27 1L27 0L25 0L25 1L24 1L24 0L23 0L23 1L22 1L22 0L21 0L21 1L20 1L20 0L18 0L18 1L16 1L16 2L15 2L15 1L14 1L14 0L10 0L10 1L9 1L9 0ZM21 1L21 3L20 3L20 5L19 5L19 7L18 7L18 8L17 8L17 9L16 9L16 10L15 10L15 12L17 12L17 11L16 11L16 10L19 10L19 11L18 11L18 12L19 12L19 13L18 13L18 14L17 14L17 13L16 13L16 14L15 14L15 15L17 15L17 16L16 16L16 17L13 17L13 16L12 16L12 17L11 17L11 15L10 15L10 17L6 17L6 18L9 18L9 19L4 19L4 20L7 20L7 21L6 21L6 22L5 22L5 23L6 23L6 24L7 24L7 23L6 23L6 22L8 22L8 24L9 24L9 25L10 25L10 24L11 24L11 23L12 23L12 22L11 22L11 19L12 19L12 17L13 17L13 18L16 18L16 19L17 19L17 16L19 16L19 15L18 15L18 14L19 14L19 13L20 13L20 14L21 14L21 16L22 16L22 15L23 15L23 16L25 16L25 17L24 17L24 18L23 18L23 17L22 17L22 19L19 19L19 23L18 23L18 25L19 25L19 26L21 26L21 25L23 25L23 26L22 26L22 27L18 27L18 28L19 28L19 29L17 29L17 32L16 32L16 33L15 33L15 34L14 34L14 36L13 36L13 35L12 35L12 37L15 37L15 38L16 38L16 39L15 39L15 40L14 40L14 42L15 42L15 43L14 43L14 44L13 44L13 41L10 41L10 44L13 44L13 45L14 45L14 46L16 46L16 45L17 45L17 43L19 43L19 44L18 44L18 45L19 45L19 44L21 44L21 43L22 43L22 40L23 40L23 39L24 39L24 40L25 40L25 41L23 41L23 42L24 42L24 43L25 43L25 41L27 41L27 43L26 43L26 45L28 45L28 46L27 46L27 47L26 47L26 48L25 48L25 47L24 47L24 46L25 46L25 44L24 44L24 45L23 45L23 44L22 44L22 45L23 45L23 47L24 47L24 49L25 49L25 50L29 50L29 51L26 51L26 52L29 52L29 51L30 51L30 50L29 50L29 49L26 49L26 48L28 48L28 46L29 46L29 45L30 45L30 47L29 47L29 48L30 48L30 49L33 49L33 48L34 48L34 47L35 47L35 51L33 51L33 50L31 50L31 52L33 52L33 53L34 53L34 54L33 54L33 57L32 57L32 58L34 58L34 57L36 57L36 56L34 56L34 54L35 54L35 53L34 53L34 52L35 52L35 51L41 51L41 52L37 52L37 53L36 53L36 55L37 55L37 56L40 56L40 57L37 57L37 58L36 58L36 59L35 59L35 60L37 60L37 59L38 59L38 58L40 58L40 59L41 59L41 56L40 56L40 55L41 55L41 54L42 54L42 53L41 53L41 52L42 52L42 51L43 51L43 52L44 52L44 53L45 53L45 54L44 54L44 55L42 55L42 57L43 57L43 58L44 58L44 59L46 59L46 58L45 58L45 56L46 56L46 54L49 54L49 55L47 55L47 56L51 56L51 57L50 57L50 58L51 58L51 59L52 59L52 60L53 60L53 58L51 58L51 57L52 57L52 53L51 53L51 52L52 52L52 51L53 51L53 50L52 50L52 51L51 51L51 52L50 52L50 54L49 54L49 53L46 53L46 52L49 52L49 50L51 50L51 48L52 48L52 47L53 47L53 46L54 46L54 45L53 45L53 46L52 46L52 47L50 47L50 46L51 46L51 45L50 45L50 46L49 46L49 45L48 45L48 44L57 44L57 45L58 45L58 46L59 46L59 45L60 45L60 44L59 44L59 41L58 41L58 42L57 42L57 41L55 41L55 42L57 42L57 43L49 43L49 41L48 41L48 40L49 40L49 39L50 39L50 38L51 38L51 37L50 37L50 38L49 38L49 37L47 37L47 36L49 36L49 33L50 33L50 34L51 34L51 33L52 33L52 32L51 32L51 31L52 31L52 29L51 29L51 28L50 28L50 26L51 26L51 25L52 25L52 26L54 26L54 23L56 23L56 22L57 22L57 20L56 20L56 21L55 21L55 20L54 20L54 21L52 21L52 20L53 20L53 17L52 17L52 15L53 15L53 16L54 16L54 15L53 15L53 13L55 13L55 12L56 12L56 13L57 13L57 12L56 12L56 11L58 11L58 12L59 12L59 11L58 11L58 10L53 10L53 9L51 9L51 8L50 8L50 9L46 9L46 5L47 5L47 8L49 8L49 7L50 7L50 5L49 5L49 7L48 7L48 5L47 5L47 4L48 4L48 3L47 3L47 4L45 4L45 3L46 3L46 2L45 2L45 1L41 1L41 2L38 2L38 3L37 3L37 4L40 4L40 5L42 5L42 6L41 6L41 7L40 7L40 6L39 6L39 5L37 5L37 7L36 7L36 3L34 3L34 4L33 4L33 5L35 5L35 7L34 7L34 6L33 6L33 9L32 9L32 10L33 10L33 11L31 11L31 10L30 10L30 9L28 9L28 6L27 6L27 8L26 8L26 6L25 6L25 8L24 8L24 6L23 6L23 5L22 5L22 4L21 4L21 3L22 3L22 1ZM10 2L10 3L11 3L11 2ZM31 2L31 3L32 3L32 2ZM41 2L41 3L40 3L40 4L42 4L42 5L43 5L43 4L42 4L42 3L45 3L45 2ZM49 2L49 3L50 3L50 2ZM23 3L23 4L24 4L24 5L25 5L25 4L24 4L24 3ZM51 3L51 4L52 4L52 3ZM27 4L27 5L28 5L28 4ZM44 4L44 5L45 5L45 4ZM29 5L29 8L32 8L32 5ZM9 6L9 7L10 7L10 6ZM20 6L20 7L19 7L19 9L20 9L20 10L21 10L21 9L22 9L22 8L23 8L23 10L24 10L24 14L25 14L25 15L26 15L26 17L25 17L25 18L24 18L24 22L23 22L23 20L22 20L22 22L23 22L23 23L24 23L24 22L26 22L26 21L27 21L27 22L28 22L28 23L29 23L29 24L28 24L28 26L26 26L26 24L25 24L25 25L24 25L24 24L23 24L23 25L24 25L24 26L23 26L23 27L22 27L22 29L24 29L24 31L27 31L27 33L25 33L25 32L24 32L24 33L23 33L23 30L22 30L22 33L23 33L23 34L21 34L21 33L19 33L19 31L21 31L21 30L19 30L19 31L18 31L18 33L19 33L19 35L18 35L18 34L17 34L17 35L16 35L16 36L17 36L17 37L16 37L16 38L17 38L17 39L16 39L16 40L15 40L15 41L16 41L16 43L15 43L15 44L16 44L16 43L17 43L17 42L19 42L19 43L20 43L20 41L21 41L21 39L22 39L22 38L21 38L21 37L23 37L23 38L24 38L24 39L26 39L26 38L27 38L27 37L26 37L26 35L28 35L28 37L29 37L29 38L28 38L28 39L27 39L27 41L28 41L28 43L27 43L27 44L28 44L28 45L29 45L29 43L30 43L30 42L32 42L32 43L31 43L31 44L32 44L32 45L33 45L33 43L35 43L35 44L34 44L34 45L38 45L38 47L36 47L36 46L35 46L35 47L36 47L36 50L41 50L41 51L42 51L42 50L43 50L43 51L44 51L44 52L46 52L46 51L48 51L48 50L45 50L45 51L44 51L44 48L45 48L45 49L48 49L48 48L50 48L50 47L49 47L49 46L48 46L48 45L47 45L47 44L48 44L48 41L47 41L47 38L46 38L46 37L45 37L45 38L46 38L46 40L45 40L45 39L42 39L42 38L44 38L44 37L42 37L42 36L44 36L44 35L45 35L45 36L46 36L46 35L47 35L47 34L48 34L48 33L49 33L49 32L45 32L45 30L46 30L46 31L48 31L48 30L49 30L49 28L48 28L48 27L49 27L49 26L50 26L50 25L51 25L51 24L46 24L46 23L47 23L47 22L48 22L48 23L52 23L52 22L48 22L48 21L51 21L51 20L48 20L48 19L49 19L49 18L50 18L50 19L52 19L52 18L50 18L50 17L49 17L49 16L47 16L47 18L46 18L46 17L44 17L44 16L46 16L46 15L47 15L47 14L48 14L48 15L49 15L49 14L50 14L50 16L51 16L51 14L52 14L52 13L53 13L53 12L50 12L50 11L51 11L51 10L48 10L48 11L49 11L49 12L47 12L47 10L46 10L46 11L44 11L44 10L42 10L42 9L40 9L40 7L39 7L39 6L38 6L38 7L39 7L39 9L38 9L38 8L37 8L37 10L35 10L35 11L34 11L34 12L33 12L33 13L34 13L34 14L33 14L33 15L32 15L32 16L34 16L34 17L35 17L35 15L36 15L36 14L37 14L37 13L36 13L36 14L35 14L35 13L34 13L34 12L35 12L35 11L37 11L37 12L38 12L38 10L39 10L39 14L38 14L38 15L37 15L37 16L36 16L36 18L33 18L33 17L31 17L31 15L30 15L30 13L28 13L28 14L25 14L25 13L27 13L27 11L28 11L28 9L25 9L25 10L24 10L24 8L23 8L23 6L22 6L22 8L21 8L21 9L20 9L20 7L21 7L21 6ZM30 6L30 7L31 7L31 6ZM42 6L42 7L41 7L41 8L42 8L42 7L43 7L43 8L45 8L45 6L44 6L44 7L43 7L43 6ZM35 8L35 9L36 9L36 8ZM3 9L3 10L5 10L5 9ZM25 10L25 11L27 11L27 10ZM29 10L29 11L30 11L30 10ZM40 10L40 11L41 11L41 12L42 12L42 13L45 13L45 14L42 14L42 15L41 15L41 16L40 16L40 17L39 17L39 18L38 18L38 19L37 19L37 18L36 18L36 19L37 19L37 20L36 20L36 22L35 22L35 23L34 23L34 21L33 21L33 18L32 18L32 19L30 19L30 21L28 21L28 22L29 22L29 23L31 23L31 24L30 24L30 25L29 25L29 28L30 28L30 26L31 26L31 27L32 27L32 28L33 28L33 29L34 29L34 30L33 30L33 31L35 31L35 32L36 32L36 33L35 33L35 34L37 34L37 32L40 32L40 33L38 33L38 36L36 36L36 37L32 37L32 38L31 38L31 39L32 39L32 40L29 40L29 41L32 41L32 42L34 42L34 41L33 41L33 38L35 38L35 39L34 39L34 40L35 40L35 39L36 39L36 38L38 38L38 37L40 37L40 36L42 36L42 35L43 35L43 34L40 34L40 33L42 33L42 31L43 31L43 30L41 30L41 32L40 32L40 29L41 29L41 28L42 28L42 29L43 29L43 28L44 28L44 29L45 29L45 28L46 28L46 30L47 30L47 29L48 29L48 28L47 28L47 27L48 27L48 26L47 26L47 25L46 25L46 24L44 24L44 23L43 23L43 22L42 22L42 23L41 23L41 24L40 24L40 27L39 27L39 25L38 25L38 24L39 24L39 23L40 23L40 22L41 22L41 20L40 20L40 19L39 19L39 18L41 18L41 19L43 19L43 18L44 18L44 19L45 19L45 20L44 20L44 21L45 21L45 20L47 20L47 21L46 21L46 22L45 22L45 23L46 23L46 22L47 22L47 21L48 21L48 20L47 20L47 19L48 19L48 18L49 18L49 17L48 17L48 18L47 18L47 19L46 19L46 18L44 18L44 17L43 17L43 18L41 18L41 16L42 16L42 15L43 15L43 16L44 16L44 15L45 15L45 14L47 14L47 12L42 12L42 10ZM6 11L6 12L5 12L5 13L2 13L2 14L4 14L4 15L3 15L3 16L4 16L4 17L5 17L5 16L4 16L4 15L5 15L5 13L6 13L6 14L7 14L7 15L6 15L6 16L8 16L8 14L9 14L9 13L8 13L8 14L7 14L7 13L6 13L6 12L7 12L7 11ZM20 11L20 13L23 13L23 12L22 12L22 11ZM54 11L54 12L55 12L55 11ZM31 12L31 14L32 14L32 12ZM49 12L49 13L50 13L50 14L51 14L51 13L50 13L50 12ZM10 13L10 14L11 14L11 13ZM40 13L40 14L39 14L39 15L38 15L38 16L37 16L37 17L38 17L38 16L39 16L39 15L40 15L40 14L41 14L41 13ZM34 14L34 15L35 15L35 14ZM27 15L27 17L28 17L28 16L29 16L29 17L30 17L30 15ZM60 15L60 17L61 17L61 15ZM10 17L10 18L11 18L11 17ZM18 17L18 18L19 18L19 17ZM0 18L0 20L1 20L1 18ZM25 18L25 21L26 21L26 18ZM54 18L54 19L55 19L55 18ZM27 19L27 20L28 20L28 19ZM34 19L34 20L35 20L35 19ZM38 19L38 20L37 20L37 23L39 23L39 22L40 22L40 20L39 20L39 19ZM8 20L8 22L9 22L9 20ZM12 20L12 21L13 21L13 20ZM20 20L20 21L21 21L21 20ZM31 20L31 21L32 21L32 20ZM38 20L38 21L39 21L39 20ZM59 20L59 21L58 21L58 22L59 22L59 21L60 21L60 20ZM54 21L54 22L53 22L53 23L54 23L54 22L55 22L55 21ZM31 22L31 23L33 23L33 25L31 25L31 26L33 26L33 28L34 28L34 29L35 29L35 28L34 28L34 26L33 26L33 25L34 25L34 23L33 23L33 22ZM9 23L9 24L10 24L10 23ZM20 23L20 24L19 24L19 25L21 25L21 23ZM42 23L42 24L43 24L43 25L41 25L41 26L43 26L43 27L42 27L42 28L43 28L43 27L44 27L44 28L45 28L45 27L44 27L44 26L43 26L43 25L44 25L44 24L43 24L43 23ZM35 24L35 27L36 27L36 25L37 25L37 24ZM52 24L52 25L53 25L53 24ZM45 25L45 26L46 26L46 27L47 27L47 26L46 26L46 25ZM6 26L6 27L8 27L8 26ZM25 26L25 27L23 27L23 28L25 28L25 27L26 27L26 26ZM37 26L37 27L38 27L38 26ZM59 26L59 27L60 27L60 28L61 28L61 26ZM40 27L40 28L39 28L39 29L40 29L40 28L41 28L41 27ZM52 27L52 28L53 28L53 27ZM20 28L20 29L21 29L21 28ZM26 28L26 30L27 30L27 29L28 29L28 28ZM5 29L5 32L8 32L8 29ZM29 29L29 32L32 32L32 29ZM37 29L37 30L38 30L38 29ZM53 29L53 32L56 32L56 29ZM6 30L6 31L7 31L7 30ZM30 30L30 31L31 31L31 30ZM54 30L54 31L55 31L55 30ZM36 31L36 32L37 32L37 31ZM33 32L33 33L31 33L31 34L33 34L33 35L32 35L32 36L33 36L33 35L34 35L34 36L35 36L35 35L34 35L34 34L33 34L33 33L34 33L34 32ZM44 32L44 33L45 33L45 34L47 34L47 33L45 33L45 32ZM60 32L60 33L61 33L61 32ZM3 33L3 34L4 34L4 33ZM5 33L5 34L7 34L7 33ZM24 33L24 36L25 36L25 33ZM27 33L27 34L28 34L28 33ZM54 33L54 34L55 34L55 33ZM8 34L8 35L6 35L6 36L5 36L5 35L4 35L4 36L3 36L3 38L4 38L4 39L5 39L5 40L7 40L7 39L5 39L5 38L7 38L7 37L8 37L8 35L9 35L9 34ZM59 34L59 35L60 35L60 37L61 37L61 34ZM19 35L19 36L20 36L20 37L18 37L18 38L19 38L19 40L18 40L18 41L20 41L20 39L21 39L21 38L20 38L20 37L21 37L21 36L22 36L22 35ZM29 35L29 36L31 36L31 35ZM39 35L39 36L40 36L40 35ZM6 36L6 37L7 37L7 36ZM57 36L57 37L55 37L55 38L57 38L57 37L58 37L58 36ZM41 37L41 38L42 38L42 37ZM29 38L29 39L30 39L30 38ZM39 38L39 40L40 40L40 41L41 41L41 42L38 42L38 41L37 41L37 42L36 42L36 41L35 41L35 43L36 43L36 44L37 44L37 42L38 42L38 43L39 43L39 44L38 44L38 45L39 45L39 44L40 44L40 45L44 45L44 46L39 46L39 48L40 48L40 49L41 49L41 50L42 50L42 47L43 47L43 48L44 48L44 47L45 47L45 48L48 48L48 46L47 46L47 45L46 45L46 43L47 43L47 42L46 42L46 41L45 41L45 40L40 40L40 38ZM48 38L48 39L49 39L49 38ZM58 38L58 39L56 39L56 40L59 40L59 38ZM37 39L37 40L38 40L38 39ZM51 39L51 40L53 40L53 41L54 41L54 40L55 40L55 39ZM16 40L16 41L17 41L17 40ZM5 41L5 42L7 42L7 41ZM8 41L8 42L9 42L9 41ZM42 41L42 42L41 42L41 43L40 43L40 44L45 44L45 43L46 43L46 42L45 42L45 41ZM50 41L50 42L52 42L52 41ZM11 42L11 43L12 43L12 42ZM42 42L42 43L45 43L45 42ZM4 43L4 44L8 44L8 45L4 45L4 46L5 46L5 47L6 47L6 48L7 48L7 49L4 49L4 50L7 50L7 49L9 49L9 48L10 48L10 49L11 49L11 48L10 48L10 45L9 45L9 43ZM57 43L57 44L58 44L58 45L59 45L59 44L58 44L58 43ZM45 45L45 47L47 47L47 46L46 46L46 45ZM6 46L6 47L9 47L9 46ZM31 46L31 47L30 47L30 48L31 48L31 47L32 47L32 48L33 48L33 47L34 47L34 46L33 46L33 47L32 47L32 46ZM3 47L3 48L4 48L4 47ZM18 47L18 48L19 48L19 49L20 49L20 48L19 48L19 47ZM40 47L40 48L41 48L41 47ZM1 48L1 49L2 49L2 48ZM37 48L37 49L38 49L38 48ZM56 49L56 50L57 50L57 52L59 52L59 49L58 49L58 50L57 50L57 49ZM10 50L10 51L11 51L11 50ZM16 50L16 52L17 52L17 53L16 53L16 54L17 54L17 53L19 53L19 52L18 52L18 51L17 51L17 50ZM3 51L3 52L4 52L4 51ZM54 51L54 52L56 52L56 51ZM9 52L9 54L11 54L11 53L12 53L12 52L11 52L11 53L10 53L10 52ZM27 53L27 54L28 54L28 53ZM29 53L29 56L32 56L32 53ZM37 53L37 54L38 54L38 53ZM53 53L53 56L56 56L56 53ZM57 53L57 54L58 54L58 53ZM12 54L12 55L11 55L11 56L10 56L10 57L12 57L12 58L13 58L13 57L15 57L15 58L14 58L14 59L16 59L16 60L17 60L17 57L16 57L16 55L15 55L15 54L14 54L14 56L13 56L13 54ZM30 54L30 55L31 55L31 54ZM39 54L39 55L40 55L40 54ZM50 54L50 55L51 55L51 54ZM54 54L54 55L55 55L55 54ZM17 55L17 56L19 56L19 57L18 57L18 58L19 58L19 57L20 57L20 56L19 56L19 55ZM44 55L44 56L43 56L43 57L44 57L44 56L45 56L45 55ZM57 55L57 56L60 56L60 55ZM23 57L23 58L22 58L22 59L23 59L23 58L24 58L24 57ZM26 57L26 58L27 58L27 60L29 60L29 58L30 58L30 57L29 57L29 58L27 58L27 57ZM54 57L54 59L55 59L55 57ZM19 59L19 60L20 60L20 59ZM25 59L25 60L26 60L26 59ZM42 60L42 61L43 61L43 60ZM47 60L47 61L49 61L49 60ZM0 0L0 7L7 7L7 0ZM1 1L1 6L6 6L6 1ZM2 2L2 5L5 5L5 2ZM54 0L54 7L61 7L61 0ZM55 1L55 6L60 6L60 1ZM56 2L56 5L59 5L59 2ZM0 54L0 61L7 61L7 54ZM1 55L1 60L6 60L6 55ZM2 56L2 59L5 59L5 56Z" fill="#000000"/></g></g></svg>
