<?xml version="1.0" encoding="UTF-8"?>
<svg xmlns="http://www.w3.org/2000/svg" version="1.1" width="300" height="300" viewBox="0 0 300 300"><rect x="0" y="0" width="300" height="300" fill="#ffffff"/><g transform="scale(4.918)"><g transform="translate(0,0)"><path fill-rule="evenodd" d="M8 0L8 3L9 3L9 4L11 4L11 5L12 5L12 7L11 7L11 6L10 6L10 5L8 5L8 10L6 10L6 9L7 9L7 8L6 8L6 9L5 9L5 8L2 8L2 11L4 11L4 12L3 12L3 13L7 13L7 14L6 14L6 15L5 15L5 14L2 14L2 13L1 13L1 12L0 12L0 13L1 13L1 15L0 15L0 17L2 17L2 20L3 20L3 17L4 17L4 15L5 15L5 18L4 18L4 22L3 22L3 24L2 24L2 23L1 23L1 21L0 21L0 24L1 24L1 25L3 25L3 26L2 26L2 27L0 27L0 29L1 29L1 30L0 30L0 35L2 35L2 36L1 36L1 38L0 38L0 40L1 40L1 38L2 38L2 40L3 40L3 38L4 38L4 39L8 39L8 38L9 38L9 39L11 39L11 38L12 38L12 39L13 39L13 38L14 38L14 40L11 40L11 41L13 41L13 44L10 44L10 42L9 42L9 43L7 43L7 42L4 42L4 41L3 41L3 45L2 45L2 42L1 42L1 41L0 41L0 42L1 42L1 43L0 43L0 45L1 45L1 48L0 48L0 50L2 50L2 51L0 51L0 53L4 53L4 52L5 52L5 51L7 51L7 52L6 52L6 53L8 53L8 54L9 54L9 55L10 55L10 56L8 56L8 59L10 59L10 60L11 60L11 61L13 61L13 60L14 60L14 61L15 61L15 60L16 60L16 59L13 59L13 57L14 57L14 56L15 56L15 55L16 55L16 57L17 57L17 58L18 58L18 59L20 59L20 60L17 60L17 61L20 61L20 60L21 60L21 59L20 59L20 58L21 58L21 56L22 56L22 55L21 55L21 54L20 54L20 53L21 53L21 52L22 52L22 53L24 53L24 50L22 50L22 51L21 51L21 49L19 49L19 50L18 50L18 49L16 49L16 50L15 50L15 49L14 49L14 50L13 50L13 51L10 51L10 50L12 50L12 49L10 49L10 48L11 48L11 47L14 47L14 48L15 48L15 47L16 47L16 46L17 46L17 48L21 48L21 46L22 46L22 48L23 48L23 49L25 49L25 48L26 48L26 49L29 49L29 50L25 50L25 53L26 53L26 55L27 55L27 57L23 57L23 58L22 58L22 59L25 59L25 61L26 61L26 59L27 59L27 58L29 58L29 59L30 59L30 58L29 58L29 57L32 57L32 58L31 58L31 61L33 61L33 60L32 60L32 58L34 58L34 61L39 61L39 60L41 60L41 59L42 59L42 58L44 58L44 57L42 57L42 55L43 55L43 56L45 56L45 58L46 58L46 59L44 59L44 60L46 60L46 59L47 59L47 60L48 60L48 61L49 61L49 60L50 60L50 59L51 59L51 61L53 61L53 60L55 60L55 61L56 61L56 58L57 58L57 57L58 57L58 59L59 59L59 57L60 57L60 60L57 60L57 61L61 61L61 54L59 54L59 53L61 53L61 52L60 52L60 51L61 51L61 50L60 50L60 49L61 49L61 48L60 48L60 49L59 49L59 48L55 48L55 49L54 49L54 47L56 47L56 46L55 46L55 45L57 45L57 47L61 47L61 46L60 46L60 45L61 45L61 44L60 44L60 43L61 43L61 42L60 42L60 41L61 41L61 38L59 38L59 36L56 36L56 35L55 35L55 33L57 33L57 32L58 32L58 33L59 33L59 34L57 34L57 35L59 35L59 34L60 34L60 35L61 35L61 34L60 34L60 33L61 33L61 30L59 30L59 31L60 31L60 32L58 32L58 31L57 31L57 30L58 30L58 29L59 29L59 28L60 28L60 29L61 29L61 28L60 28L60 27L61 27L61 26L60 26L60 25L61 25L61 24L60 24L60 23L61 23L61 22L60 22L60 21L61 21L61 20L60 20L60 19L61 19L61 18L59 18L59 20L57 20L57 19L58 19L58 18L56 18L56 17L54 17L54 16L55 16L55 14L58 14L58 15L56 15L56 16L57 16L57 17L59 17L59 16L58 16L58 15L59 15L59 14L58 14L58 13L60 13L60 14L61 14L61 10L58 10L58 9L61 9L61 8L58 8L58 9L56 9L56 8L53 8L53 6L52 6L52 7L51 7L51 5L52 5L52 4L53 4L53 0L51 0L51 2L50 2L50 1L49 1L49 2L47 2L47 1L46 1L46 0L45 0L45 2L44 2L44 3L43 3L43 2L42 2L42 1L43 1L43 0L42 0L42 1L41 1L41 0L37 0L37 2L36 2L36 1L35 1L35 0L34 0L34 1L33 1L33 2L36 2L36 5L35 5L35 3L32 3L32 0L31 0L31 1L30 1L30 0L29 0L29 2L31 2L31 3L30 3L30 4L28 4L28 2L27 2L27 3L25 3L25 5L24 5L24 7L25 7L25 6L26 6L26 8L27 8L27 6L28 6L28 9L25 9L25 11L24 11L24 12L25 12L25 13L24 13L24 15L22 15L22 16L21 16L21 14L20 14L20 13L23 13L23 12L22 12L22 11L19 11L19 10L20 10L20 9L22 9L22 8L23 8L23 6L22 6L22 8L21 8L21 6L20 6L20 9L19 9L19 6L18 6L18 7L17 7L17 6L16 6L16 9L15 9L15 8L14 8L14 7L15 7L15 6L14 6L14 5L13 5L13 2L14 2L14 0L10 0L10 1L9 1L9 0ZM17 0L17 1L16 1L16 2L15 2L15 3L14 3L14 4L15 4L15 5L16 5L16 4L17 4L17 5L19 5L19 2L18 2L18 1L19 1L19 0ZM20 0L20 2L22 2L22 1L21 1L21 0ZM23 0L23 1L27 1L27 0ZM10 2L10 3L11 3L11 2ZM17 2L17 3L18 3L18 2ZM23 2L23 3L21 3L21 5L22 5L22 4L24 4L24 2ZM37 2L37 5L36 5L36 6L35 6L35 8L36 8L36 9L34 9L34 4L33 4L33 9L31 9L31 10L30 10L30 9L28 9L28 10L27 10L27 13L26 13L26 14L25 14L25 15L24 15L24 16L23 16L23 17L22 17L22 19L19 19L19 23L18 23L18 22L16 22L16 20L17 20L17 19L16 19L16 20L14 20L14 21L15 21L15 23L14 23L14 25L15 25L15 27L14 27L14 28L16 28L16 29L17 29L17 32L15 32L15 30L14 30L14 29L13 29L13 28L12 28L12 29L11 29L11 28L9 28L9 27L10 27L10 26L11 26L11 27L13 27L13 24L12 24L12 23L13 23L13 22L11 22L11 23L10 23L10 22L8 22L8 20L9 20L9 19L10 19L10 21L11 21L11 19L10 19L10 18L11 18L11 17L12 17L12 18L13 18L13 19L14 19L14 18L15 18L15 16L11 16L11 17L10 17L10 14L11 14L11 15L12 15L12 14L13 14L13 13L14 13L14 14L15 14L15 15L18 15L18 16L19 16L19 13L20 13L20 12L19 12L19 11L18 11L18 10L19 10L19 9L18 9L18 8L17 8L17 9L16 9L16 10L15 10L15 12L13 12L13 13L10 13L10 14L9 14L9 13L8 13L8 14L7 14L7 15L6 15L6 16L8 16L8 14L9 14L9 17L6 17L6 18L9 18L9 19L6 19L6 20L7 20L7 21L5 21L5 22L4 22L4 23L5 23L5 22L8 22L8 23L6 23L6 24L4 24L4 26L3 26L3 27L2 27L2 30L3 30L3 31L2 31L2 32L4 32L4 29L3 29L3 28L4 28L4 26L5 26L5 25L6 25L6 26L7 26L7 27L6 27L6 28L7 28L7 27L8 27L8 28L9 28L9 31L11 31L11 34L10 34L10 37L11 37L11 34L12 34L12 33L15 33L15 34L14 34L14 36L13 36L13 35L12 35L12 37L15 37L15 38L16 38L16 37L15 37L15 34L16 34L16 35L18 35L18 36L19 36L19 37L18 37L18 38L19 38L19 40L18 40L18 39L17 39L17 40L18 40L18 43L20 43L20 42L22 42L22 43L21 43L21 44L17 44L17 43L16 43L16 39L15 39L15 40L14 40L14 42L15 42L15 43L14 43L14 44L13 44L13 45L14 45L14 46L16 46L16 45L18 45L18 46L19 46L19 47L20 47L20 46L21 46L21 45L22 45L22 46L23 46L23 45L24 45L24 44L23 44L23 43L24 43L24 42L25 42L25 41L27 41L27 43L26 43L26 45L28 45L28 46L27 46L27 47L26 47L26 48L28 48L28 46L30 46L30 47L29 47L29 49L30 49L30 47L31 47L31 49L34 49L34 50L37 50L37 49L36 49L36 48L38 48L38 47L39 47L39 48L40 48L40 49L39 49L39 50L42 50L42 51L41 51L41 52L40 52L40 51L37 51L37 53L36 53L36 55L37 55L37 56L39 56L39 57L37 57L37 58L36 58L36 59L35 59L35 60L37 60L37 59L38 59L38 58L39 58L39 59L41 59L41 56L39 56L39 54L40 54L40 55L41 55L41 54L42 54L42 53L41 53L41 52L42 52L42 51L43 51L43 52L44 52L44 53L43 53L43 54L44 54L44 55L45 55L45 56L46 56L46 54L47 54L47 53L46 53L46 52L49 52L49 50L51 50L51 48L52 48L52 47L53 47L53 46L54 46L54 45L50 45L50 46L49 46L49 45L48 45L48 44L52 44L52 43L54 43L54 44L55 44L55 43L56 43L56 44L57 44L57 45L58 45L58 46L59 46L59 45L60 45L60 44L59 44L59 43L58 43L58 44L57 44L57 41L54 41L54 40L55 40L55 39L51 39L51 40L52 40L52 41L50 41L50 42L52 42L52 43L49 43L49 41L48 41L48 40L49 40L49 39L50 39L50 38L54 38L54 37L50 37L50 38L49 38L49 37L47 37L47 36L49 36L49 33L50 33L50 34L53 34L53 35L50 35L50 36L53 36L53 35L54 35L54 36L55 36L55 35L54 35L54 34L53 34L53 33L51 33L51 30L52 30L52 28L53 28L53 27L55 27L55 26L56 26L56 27L57 27L57 26L56 26L56 25L57 25L57 24L59 24L59 25L58 25L58 28L57 28L57 29L58 29L58 28L59 28L59 27L60 27L60 26L59 26L59 25L60 25L60 24L59 24L59 23L60 23L60 22L59 22L59 21L58 21L58 22L57 22L57 20L56 20L56 21L55 21L55 22L54 22L54 20L53 20L53 17L52 17L52 15L53 15L53 16L54 16L54 15L53 15L53 13L55 13L55 12L56 12L56 13L57 13L57 12L56 12L56 11L58 11L58 12L59 12L59 11L58 11L58 10L53 10L53 9L51 9L51 8L50 8L50 9L49 9L49 10L51 10L51 11L50 11L50 13L48 13L48 14L47 14L47 12L49 12L49 11L47 11L47 12L44 12L44 11L46 11L46 10L48 10L48 8L49 8L49 7L50 7L50 5L49 5L49 7L48 7L48 5L47 5L47 4L48 4L48 3L47 3L47 4L45 4L45 3L46 3L46 2L45 2L45 3L44 3L44 5L41 5L41 4L43 4L43 3L41 3L41 2L40 2L40 3L39 3L39 2ZM49 2L49 3L50 3L50 2ZM15 3L15 4L16 4L16 3ZM38 3L38 4L39 4L39 6L38 6L38 7L37 7L37 6L36 6L36 7L37 7L37 10L33 10L33 11L32 11L32 10L31 10L31 13L32 13L32 14L31 14L31 15L30 15L30 13L28 13L28 14L29 14L29 15L30 15L30 17L29 17L29 16L27 16L27 18L24 18L24 17L23 17L23 19L26 19L26 21L25 21L25 25L24 25L24 24L23 24L23 25L22 25L22 27L21 27L21 26L19 26L19 25L21 25L21 23L20 23L20 24L19 24L19 25L18 25L18 23L17 23L17 24L16 24L16 23L15 23L15 24L16 24L16 26L17 26L17 27L16 27L16 28L17 28L17 29L19 29L19 30L20 30L20 32L19 32L19 31L18 31L18 33L20 33L20 32L22 32L22 33L21 33L21 34L19 34L19 35L21 35L21 36L20 36L20 38L21 38L21 39L20 39L20 40L19 40L19 42L20 42L20 41L22 41L22 42L24 42L24 41L23 41L23 40L24 40L24 39L26 39L26 38L25 38L25 36L24 36L24 33L25 33L25 35L26 35L26 36L29 36L29 35L27 35L27 34L28 34L28 33L30 33L30 34L31 34L31 35L30 35L30 38L32 38L32 37L36 37L36 38L33 38L33 40L36 40L36 42L35 42L35 41L33 41L33 42L32 42L32 41L31 41L31 42L32 42L32 43L30 43L30 44L29 44L29 41L30 41L30 40L28 40L28 38L29 38L29 37L27 37L27 40L28 40L28 43L27 43L27 44L28 44L28 45L31 45L31 44L32 44L32 45L34 45L34 46L35 46L35 48L34 48L34 47L32 47L32 46L31 46L31 47L32 47L32 48L34 48L34 49L35 49L35 48L36 48L36 46L35 46L35 45L36 45L36 44L37 44L37 42L38 42L38 43L39 43L39 44L45 44L45 43L46 43L46 45L44 45L44 46L45 46L45 47L42 47L42 48L45 48L45 49L48 49L48 48L50 48L50 47L52 47L52 46L50 46L50 47L49 47L49 46L48 46L48 45L47 45L47 44L48 44L48 41L47 41L47 38L46 38L46 37L45 37L45 38L46 38L46 40L45 40L45 39L44 39L44 40L43 40L43 39L42 39L42 40L41 40L41 38L44 38L44 37L41 37L41 36L44 36L44 35L45 35L45 36L47 36L47 34L48 34L48 33L49 33L49 32L47 32L47 34L46 34L46 32L45 32L45 30L46 30L46 31L48 31L48 30L49 30L49 28L50 28L50 27L52 27L52 25L53 25L53 26L55 26L55 25L56 25L56 24L57 24L57 22L56 22L56 24L55 24L55 23L54 23L54 22L53 22L53 24L52 24L52 25L51 25L51 24L50 24L50 25L51 25L51 26L49 26L49 24L47 24L47 26L45 26L45 27L44 27L44 26L43 26L43 25L44 25L44 24L45 24L45 23L47 23L47 22L48 22L48 23L49 23L49 22L50 22L50 23L52 23L52 22L50 22L50 21L51 21L51 20L47 20L47 22L45 22L45 21L44 21L44 20L46 20L46 19L47 19L47 18L48 18L48 19L52 19L52 18L48 18L48 17L51 17L51 16L50 16L50 15L51 15L51 14L52 14L52 13L53 13L53 12L51 12L51 14L48 14L48 15L47 15L47 14L45 14L45 13L44 13L44 12L43 12L43 10L44 10L44 9L43 9L43 10L42 10L42 9L40 9L40 8L42 8L42 7L43 7L43 8L45 8L45 6L44 6L44 7L43 7L43 6L42 6L42 7L41 7L41 5L40 5L40 4L39 4L39 3ZM51 3L51 4L52 4L52 3ZM27 4L27 5L28 5L28 4ZM29 5L29 8L32 8L32 5ZM46 5L46 9L47 9L47 8L48 8L48 7L47 7L47 5ZM9 6L9 7L10 7L10 6ZM13 6L13 7L14 7L14 6ZM30 6L30 7L31 7L31 6ZM39 6L39 7L38 7L38 8L39 8L39 7L40 7L40 6ZM9 8L9 12L10 12L10 11L11 11L11 12L12 12L12 11L11 11L11 10L12 10L12 9L11 9L11 10L10 10L10 8ZM3 9L3 10L5 10L5 9ZM13 9L13 10L14 10L14 9ZM39 9L39 10L40 10L40 11L38 11L38 12L37 12L37 11L33 11L33 12L32 12L32 13L33 13L33 16L31 16L31 17L33 17L33 18L36 18L36 19L37 19L37 20L36 20L36 22L34 22L34 25L33 25L33 24L30 24L30 25L31 25L31 26L32 26L32 25L33 25L33 26L34 26L34 28L33 28L33 27L32 27L32 28L33 28L33 29L34 29L34 30L33 30L33 31L35 31L35 29L36 29L36 30L38 30L38 31L36 31L36 32L37 32L37 33L36 33L36 34L35 34L35 35L34 35L34 34L33 34L33 35L32 35L32 36L33 36L33 35L34 35L34 36L37 36L37 37L38 37L38 35L36 35L36 34L39 34L39 35L40 35L40 36L39 36L39 37L40 37L40 36L41 36L41 34L42 34L42 35L43 35L43 34L42 34L42 33L41 33L41 32L42 32L42 31L43 31L43 30L41 30L41 32L40 32L40 29L41 29L41 28L42 28L42 29L43 29L43 28L44 28L44 29L46 29L46 30L47 30L47 29L48 29L48 28L49 28L49 27L48 27L48 26L47 26L47 27L45 27L45 28L44 28L44 27L43 27L43 26L41 26L41 25L43 25L43 24L44 24L44 23L43 23L43 22L42 22L42 23L41 23L41 24L40 24L40 27L39 27L39 25L38 25L38 24L39 24L39 23L40 23L40 22L41 22L41 20L40 20L40 17L41 17L41 16L42 16L42 15L43 15L43 16L44 16L44 17L43 17L43 18L41 18L41 19L43 19L43 18L44 18L44 19L46 19L46 18L47 18L47 17L48 17L48 16L49 16L49 15L48 15L48 16L47 16L47 15L46 15L46 16L44 16L44 15L45 15L45 14L44 14L44 13L43 13L43 12L42 12L42 10L40 10L40 9ZM16 10L16 11L17 11L17 10ZM28 10L28 12L29 12L29 11L30 11L30 10ZM6 11L6 12L7 12L7 11ZM25 11L25 12L26 12L26 11ZM40 11L40 12L39 12L39 13L40 13L40 12L41 12L41 15L42 15L42 14L43 14L43 13L42 13L42 12L41 12L41 11ZM54 11L54 12L55 12L55 11ZM15 12L15 14L16 14L16 13L17 13L17 14L18 14L18 13L17 13L17 12ZM33 12L33 13L34 13L34 14L35 14L35 15L36 15L36 14L37 14L37 13L36 13L36 14L35 14L35 13L34 13L34 12ZM26 14L26 15L25 15L25 17L26 17L26 15L27 15L27 14ZM38 14L38 15L37 15L37 16L36 16L36 18L37 18L37 19L38 19L38 20L37 20L37 23L35 23L35 25L36 25L36 27L38 27L38 28L37 28L37 29L40 29L40 28L41 28L41 27L40 27L40 28L39 28L39 27L38 27L38 26L37 26L37 25L36 25L36 24L37 24L37 23L39 23L39 22L40 22L40 20L39 20L39 19L38 19L38 18L39 18L39 17L40 17L40 16L38 16L38 15L39 15L39 14ZM2 15L2 17L3 17L3 15ZM60 15L60 17L61 17L61 15ZM16 16L16 18L17 18L17 16ZM37 16L37 17L38 17L38 16ZM9 17L9 18L10 18L10 17ZM13 17L13 18L14 18L14 17ZM28 17L28 19L29 19L29 17ZM44 17L44 18L46 18L46 17ZM0 18L0 20L1 20L1 18ZM54 18L54 19L55 19L55 18ZM30 19L30 21L29 21L29 20L28 20L28 22L26 22L26 23L28 23L28 22L29 22L29 23L32 23L32 22L31 22L31 21L33 21L33 20L35 20L35 19L33 19L33 20L31 20L31 19ZM20 20L20 21L21 21L21 20ZM22 20L22 22L23 22L23 23L24 23L24 21L23 21L23 20ZM38 20L38 21L39 21L39 20ZM52 20L52 21L53 21L53 20ZM48 21L48 22L49 22L49 21ZM58 22L58 23L59 23L59 22ZM9 23L9 24L6 24L6 25L9 25L9 26L10 26L10 23ZM42 23L42 24L43 24L43 23ZM11 24L11 26L12 26L12 24ZM27 24L27 25L25 25L25 26L27 26L27 25L28 25L28 26L29 26L29 25L28 25L28 24ZM54 24L54 25L55 25L55 24ZM23 25L23 26L24 26L24 25ZM18 27L18 28L19 28L19 29L20 29L20 30L21 30L21 31L23 31L23 33L22 33L22 34L21 34L21 35L22 35L22 34L23 34L23 33L24 33L24 32L25 32L25 33L26 33L26 34L27 34L27 33L28 33L28 30L26 30L26 29L28 29L28 28L31 28L31 27L28 27L28 28L27 28L27 27L22 27L22 28L26 28L26 29L25 29L25 31L24 31L24 29L22 29L22 30L21 30L21 29L20 29L20 28L21 28L21 27ZM42 27L42 28L43 28L43 27ZM47 27L47 28L48 28L48 27ZM34 28L34 29L35 29L35 28ZM5 29L5 32L8 32L8 29ZM10 29L10 30L11 30L11 29ZM29 29L29 32L32 32L32 29ZM53 29L53 32L56 32L56 29ZM6 30L6 31L7 31L7 30ZM13 30L13 31L12 31L12 32L14 32L14 30ZM30 30L30 31L31 31L31 30ZM54 30L54 31L55 31L55 30ZM25 31L25 32L26 32L26 33L27 33L27 31ZM9 32L9 33L10 33L10 32ZM33 32L33 33L34 33L34 32ZM39 32L39 33L40 33L40 34L41 34L41 33L40 33L40 32ZM44 32L44 33L45 33L45 32ZM3 33L3 34L4 34L4 37L5 37L5 38L8 38L8 37L9 37L9 36L8 36L8 35L9 35L9 34L8 34L8 35L5 35L5 34L7 34L7 33ZM16 33L16 34L17 34L17 33ZM31 33L31 34L32 34L32 33ZM45 34L45 35L46 35L46 34ZM2 36L2 37L3 37L3 36ZM5 36L5 37L7 37L7 36ZM21 36L21 38L22 38L22 39L24 39L24 38L23 38L23 37L22 37L22 36ZM60 36L60 37L61 37L61 36ZM55 37L55 38L56 38L56 40L59 40L59 38L57 38L57 37ZM36 38L36 39L37 39L37 40L38 40L38 39L37 39L37 38ZM39 38L39 40L40 40L40 42L39 42L39 43L41 43L41 42L42 42L42 43L44 43L44 42L46 42L46 43L47 43L47 42L46 42L46 41L45 41L45 40L44 40L44 41L43 41L43 42L42 42L42 41L41 41L41 40L40 40L40 38ZM48 38L48 39L49 39L49 38ZM31 39L31 40L32 40L32 39ZM6 40L6 41L10 41L10 40ZM52 41L52 42L53 42L53 41ZM58 41L58 42L59 42L59 41ZM11 42L11 43L12 43L12 42ZM33 42L33 44L34 44L34 45L35 45L35 42ZM54 42L54 43L55 43L55 42ZM5 43L5 44L7 44L7 45L4 45L4 46L5 46L5 47L6 47L6 48L7 48L7 47L9 47L9 48L10 48L10 45L9 45L9 44L7 44L7 43ZM15 43L15 44L16 44L16 43ZM22 44L22 45L23 45L23 44ZM58 44L58 45L59 45L59 44ZM8 45L8 46L9 46L9 45ZM19 45L19 46L20 46L20 45ZM37 45L37 47L38 47L38 45ZM39 45L39 47L40 47L40 48L41 48L41 47L40 47L40 46L43 46L43 45ZM46 45L46 46L47 46L47 47L45 47L45 48L48 48L48 46L47 46L47 45ZM6 46L6 47L7 47L7 46ZM3 47L3 48L4 48L4 47ZM23 47L23 48L24 48L24 47ZM1 48L1 49L2 49L2 48ZM4 49L4 50L7 50L7 51L9 51L9 50L8 50L8 49ZM42 49L42 50L43 50L43 49ZM56 49L56 50L57 50L57 52L59 52L59 49L58 49L58 50L57 50L57 49ZM16 50L16 52L17 52L17 51L18 51L18 53L19 53L19 52L20 52L20 50L19 50L19 51L18 51L18 50ZM31 50L31 51L26 51L26 52L31 52L31 51L32 51L32 52L33 52L33 53L35 53L35 52L33 52L33 50ZM44 50L44 52L46 52L46 51L48 51L48 50ZM52 50L52 51L51 51L51 52L50 52L50 54L49 54L49 53L48 53L48 54L49 54L49 55L48 55L48 56L47 56L47 57L46 57L46 58L47 58L47 59L48 59L48 60L49 60L49 59L48 59L48 58L51 58L51 59L52 59L52 60L53 60L53 58L51 58L51 57L52 57L52 53L51 53L51 52L52 52L52 51L53 51L53 50ZM3 51L3 52L4 52L4 51ZM13 51L13 53L10 53L10 52L9 52L9 54L11 54L11 56L10 56L10 57L9 57L9 58L10 58L10 59L12 59L12 57L13 57L13 56L14 56L14 55L15 55L15 54L14 54L14 53L15 53L15 51ZM54 51L54 52L56 52L56 51ZM39 52L39 53L40 53L40 52ZM16 53L16 54L17 54L17 53ZM27 53L27 54L28 54L28 53ZM29 53L29 56L32 56L32 53ZM37 53L37 54L38 54L38 53ZM53 53L53 56L56 56L56 53ZM57 53L57 54L58 54L58 53ZM13 54L13 55L12 55L12 56L11 56L11 57L10 57L10 58L11 58L11 57L12 57L12 56L13 56L13 55L14 55L14 54ZM30 54L30 55L31 55L31 54ZM33 54L33 57L34 57L34 58L35 58L35 57L36 57L36 56L35 56L35 54ZM50 54L50 56L51 56L51 54ZM54 54L54 55L55 55L55 54ZM18 55L18 56L17 56L17 57L20 57L20 55ZM23 55L23 56L25 56L25 55ZM57 55L57 56L60 56L60 55ZM34 56L34 57L35 57L35 56ZM48 56L48 57L47 57L47 58L48 58L48 57L49 57L49 56ZM39 57L39 58L40 58L40 57ZM54 57L54 59L55 59L55 57ZM25 58L25 59L26 59L26 58ZM23 60L23 61L24 61L24 60ZM42 60L42 61L43 61L43 60ZM0 0L0 7L7 7L7 0ZM1 1L1 6L6 6L6 1ZM2 2L2 5L5 5L5 2ZM54 0L54 7L61 7L61 0ZM55 1L55 6L60 6L60 1ZM56 2L56 5L59 5L59 2ZM0 54L0 61L7 61L7 54ZM1 55L1 60L6 60L6 55ZM2 56L2 59L5 59L5 56Z" fill="#000000"/></g></g></svg>
