<?xml version="1.0" encoding="UTF-8"?>
<svg xmlns="http://www.w3.org/2000/svg" version="1.1" width="300" height="300" viewBox="0 0 300 300"><rect x="0" y="0" width="300" height="300" fill="#ffffff"/><g transform="scale(4.918)"><g transform="translate(0,0)"><path fill-rule="evenodd" d="M8 0L8 3L9 3L9 4L12 4L12 3L13 3L13 5L17 5L17 6L16 6L16 7L15 7L15 6L14 6L14 7L15 7L15 8L13 8L13 10L14 10L14 9L15 9L15 10L16 10L16 11L20 11L20 10L16 10L16 9L19 9L19 6L18 6L18 3L19 3L19 5L21 5L21 4L22 4L22 7L23 7L23 6L24 6L24 7L25 7L25 6L24 6L24 5L26 5L26 8L23 8L23 9L24 9L24 10L23 10L23 12L22 12L22 11L21 11L21 13L18 13L18 12L16 12L16 13L17 13L17 14L20 14L20 15L18 15L18 16L21 16L21 18L20 18L20 17L18 17L18 18L19 18L19 20L18 20L18 21L19 21L19 20L20 20L20 21L22 21L22 20L23 20L23 18L24 18L24 16L25 16L25 17L26 17L26 20L25 20L25 19L24 19L24 20L25 20L25 21L23 21L23 26L24 26L24 27L26 27L26 29L25 29L25 28L22 28L22 26L21 26L21 25L22 25L22 24L21 24L21 23L20 23L20 24L19 24L19 25L18 25L18 23L19 23L19 22L18 22L18 23L17 23L17 29L16 29L16 28L15 28L15 27L16 27L16 26L15 26L15 25L14 25L14 26L13 26L13 27L8 27L8 26L9 26L9 25L10 25L10 24L12 24L12 25L11 25L11 26L12 26L12 25L13 25L13 24L16 24L16 22L15 22L15 20L16 20L16 21L17 21L17 20L16 20L16 19L15 19L15 20L14 20L14 23L13 23L13 21L12 21L12 23L11 23L11 20L10 20L10 21L9 21L9 20L8 20L8 19L9 19L9 18L11 18L11 17L9 17L9 16L10 16L10 15L11 15L11 16L12 16L12 15L13 15L13 18L12 18L12 20L13 20L13 19L14 19L14 18L15 18L15 17L16 17L16 18L17 18L17 16L15 16L15 15L16 15L16 14L14 14L14 15L13 15L13 14L10 14L10 13L13 13L13 12L11 12L11 10L12 10L12 9L11 9L11 5L8 5L8 9L7 9L7 8L6 8L6 9L7 9L7 10L4 10L4 12L3 12L3 14L4 14L4 13L7 13L7 12L8 12L8 13L9 13L9 14L10 14L10 15L8 15L8 16L6 16L6 17L3 17L3 18L4 18L4 19L0 19L0 21L2 21L2 22L3 22L3 25L4 25L4 24L5 24L5 23L4 23L4 22L3 22L3 21L5 21L5 22L6 22L6 23L7 23L7 24L6 24L6 25L7 25L7 26L6 26L6 27L5 27L5 26L4 26L4 28L3 28L3 26L2 26L2 25L0 25L0 27L1 27L1 28L2 28L2 30L3 30L3 32L1 32L1 31L0 31L0 33L4 33L4 34L2 34L2 35L1 35L1 36L0 36L0 37L2 37L2 38L1 38L1 39L2 39L2 38L3 38L3 40L1 40L1 41L0 41L0 43L1 43L1 42L4 42L4 43L3 43L3 45L2 45L2 46L3 46L3 47L1 47L1 45L0 45L0 50L1 50L1 48L2 48L2 51L0 51L0 53L4 53L4 52L5 52L5 51L7 51L7 52L6 52L6 53L8 53L8 54L9 54L9 53L8 53L8 52L11 52L11 50L13 50L13 49L14 49L14 50L15 50L15 51L16 51L16 52L14 52L14 51L12 51L12 52L14 52L14 53L12 53L12 55L11 55L11 53L10 53L10 55L11 55L11 56L8 56L8 59L9 59L9 58L10 58L10 59L11 59L11 60L10 60L10 61L11 61L11 60L13 60L13 58L15 58L15 57L14 57L14 56L15 56L15 55L16 55L16 58L17 58L17 56L18 56L18 57L19 57L19 58L18 58L18 59L17 59L17 60L18 60L18 59L19 59L19 58L20 58L20 56L22 56L22 55L20 55L20 54L23 54L23 53L24 53L24 54L25 54L25 56L24 56L24 57L23 57L23 58L26 58L26 59L27 59L27 60L29 60L29 61L30 61L30 60L31 60L31 61L34 61L34 60L35 60L35 61L39 61L39 60L41 60L41 61L42 61L42 60L43 60L43 61L44 61L44 60L45 60L45 59L47 59L47 60L48 60L48 61L50 61L50 60L48 60L48 59L49 59L49 58L50 58L50 59L51 59L51 58L50 58L50 56L48 56L48 55L49 55L49 54L50 54L50 55L51 55L51 56L52 56L52 58L53 58L53 59L52 59L52 61L53 61L53 60L55 60L55 61L56 61L56 60L57 60L57 59L56 59L56 58L57 58L57 57L58 57L58 59L59 59L59 57L60 57L60 60L58 60L58 61L61 61L61 54L59 54L59 53L61 53L61 52L60 52L60 51L61 51L61 50L60 50L60 49L59 49L59 48L61 48L61 46L59 46L59 45L57 45L57 44L58 44L58 43L57 43L57 44L55 44L55 43L56 43L56 42L55 42L55 41L57 41L57 42L58 42L58 41L59 41L59 42L60 42L60 43L59 43L59 44L60 44L60 45L61 45L61 42L60 42L60 41L61 41L61 40L60 40L60 41L59 41L59 40L56 40L56 39L57 39L57 38L55 38L55 37L57 37L57 36L58 36L58 37L59 37L59 38L60 38L60 39L61 39L61 38L60 38L60 37L59 37L59 36L58 36L58 35L59 35L59 34L60 34L60 36L61 36L61 34L60 34L60 33L61 33L61 32L60 32L60 33L59 33L59 32L58 32L58 31L59 31L59 30L60 30L60 31L61 31L61 30L60 30L60 29L61 29L61 28L60 28L60 27L61 27L61 26L60 26L60 25L61 25L61 22L59 22L59 23L60 23L60 25L59 25L59 24L55 24L55 23L54 23L54 24L53 24L53 25L52 25L52 24L51 24L51 25L52 25L52 26L49 26L49 25L50 25L50 24L48 24L48 23L49 23L49 22L50 22L50 23L52 23L52 22L50 22L50 21L51 21L51 20L50 20L50 19L52 19L52 18L48 18L48 17L49 17L49 16L50 16L50 15L51 15L51 14L52 14L52 13L53 13L53 14L57 14L57 15L56 15L56 16L58 16L58 17L59 17L59 16L58 16L58 15L60 15L60 18L59 18L59 19L60 19L60 18L61 18L61 14L60 14L60 13L61 13L61 10L58 10L58 9L61 9L61 8L58 8L58 9L56 9L56 8L52 8L52 9L53 9L53 10L52 10L52 11L51 11L51 10L48 10L48 11L47 11L47 10L45 10L45 9L46 9L46 8L47 8L47 9L50 9L50 8L47 8L47 5L48 5L48 7L49 7L49 5L50 5L50 7L51 7L51 5L52 5L52 4L53 4L53 0L51 0L51 2L50 2L50 1L49 1L49 2L47 2L47 1L46 1L46 0L42 0L42 1L41 1L41 0L39 0L39 1L40 1L40 2L42 2L42 3L40 3L40 4L39 4L39 2L38 2L38 0L37 0L37 1L36 1L36 0L35 0L35 1L34 1L34 2L33 2L33 0L31 0L31 1L30 1L30 0L29 0L29 3L28 3L28 2L26 2L26 4L23 4L23 3L22 3L22 2L19 2L19 1L18 1L18 0L17 0L17 1L15 1L15 2L12 2L12 3L10 3L10 2L11 2L11 1L13 1L13 0L11 0L11 1L9 1L9 0ZM21 0L21 1L23 1L23 2L24 2L24 3L25 3L25 2L24 2L24 1L27 1L27 0L24 0L24 1L23 1L23 0ZM31 1L31 2L32 2L32 3L30 3L30 4L32 4L32 3L33 3L33 5L35 5L35 7L36 7L36 8L37 8L37 9L35 9L35 11L34 11L34 12L35 12L35 13L33 13L33 12L32 12L32 11L33 11L33 10L32 10L32 9L29 9L29 11L30 11L30 15L29 15L29 16L28 16L28 12L27 12L27 13L21 13L21 16L22 16L22 14L24 14L24 15L25 15L25 14L26 14L26 15L27 15L27 20L26 20L26 21L25 21L25 22L27 22L27 23L26 23L26 25L27 25L27 23L28 23L28 24L30 24L30 23L31 23L31 24L32 24L32 22L31 22L31 21L33 21L33 25L34 25L34 26L35 26L35 27L34 27L34 28L33 28L33 29L34 29L34 30L33 30L33 31L34 31L34 32L33 32L33 33L29 33L29 34L28 34L28 33L27 33L27 32L28 32L28 28L31 28L31 26L32 26L32 25L30 25L30 27L27 27L27 29L26 29L26 30L25 30L25 29L24 29L24 31L22 31L22 30L23 30L23 29L22 29L22 28L21 28L21 29L20 29L20 28L19 28L19 27L20 27L20 25L21 25L21 24L20 24L20 25L19 25L19 27L18 27L18 28L19 28L19 29L20 29L20 32L18 32L18 31L17 31L17 30L16 30L16 29L15 29L15 28L14 28L14 30L15 30L15 31L14 31L14 32L15 32L15 33L11 33L11 32L9 32L9 34L10 34L10 35L11 35L11 36L8 36L8 37L12 37L12 39L11 39L11 38L7 38L7 37L6 37L6 36L7 36L7 35L8 35L8 33L5 33L5 34L4 34L4 36L5 36L5 37L3 37L3 35L2 35L2 37L3 37L3 38L5 38L5 37L6 37L6 38L7 38L7 39L6 39L6 40L5 40L5 39L4 39L4 40L3 40L3 41L4 41L4 40L5 40L5 42L7 42L7 41L6 41L6 40L7 40L7 39L9 39L9 43L5 43L5 44L4 44L4 45L3 45L3 46L5 46L5 47L4 47L4 48L7 48L7 49L4 49L4 50L7 50L7 51L10 51L10 50L9 50L9 49L8 49L8 48L7 48L7 47L8 47L8 46L9 46L9 48L10 48L10 49L12 49L12 48L14 48L14 46L15 46L15 47L16 47L16 48L15 48L15 50L16 50L16 51L17 51L17 50L18 50L18 51L19 51L19 52L17 52L17 53L16 53L16 54L17 54L17 55L18 55L18 56L20 56L20 55L19 55L19 54L20 54L20 51L19 51L19 50L18 50L18 49L19 49L19 48L20 48L20 49L21 49L21 50L22 50L22 51L21 51L21 53L23 53L23 52L24 52L24 51L23 51L23 46L24 46L24 48L25 48L25 49L27 49L27 50L29 50L29 51L26 51L26 53L27 53L27 52L32 52L32 51L31 51L31 50L32 50L32 49L33 49L33 50L34 50L34 51L33 51L33 52L34 52L34 51L35 51L35 50L36 50L36 51L37 51L37 52L39 52L39 53L38 53L38 54L37 54L37 53L33 53L33 56L34 56L34 55L35 55L35 57L32 57L32 58L31 58L31 59L33 59L33 58L35 58L35 60L37 60L37 59L41 59L41 60L42 60L42 59L43 59L43 60L44 60L44 59L45 59L45 58L47 58L47 57L48 57L48 56L47 56L47 57L46 57L46 55L45 55L45 54L47 54L47 55L48 55L48 52L49 52L49 53L50 53L50 54L51 54L51 52L52 52L52 51L53 51L53 47L50 47L50 46L51 46L51 44L53 44L53 43L54 43L54 42L53 42L53 41L54 41L54 40L55 40L55 39L51 39L51 40L53 40L53 41L52 41L52 42L53 42L53 43L50 43L50 42L51 42L51 41L50 41L50 42L49 42L49 41L48 41L48 40L49 40L49 39L50 39L50 38L52 38L52 37L50 37L50 38L49 38L49 37L48 37L48 38L47 38L47 37L46 37L46 38L45 38L45 35L46 35L46 36L49 36L49 35L46 35L46 34L47 34L47 32L46 32L46 34L45 34L45 35L44 35L44 36L41 36L41 35L40 35L40 34L39 34L39 35L40 35L40 36L39 36L39 37L40 37L40 36L41 36L41 37L44 37L44 38L41 38L41 39L40 39L40 38L38 38L38 39L37 39L37 38L35 38L35 36L36 36L36 34L38 34L38 33L37 33L37 31L39 31L39 33L40 33L40 29L41 29L41 28L40 28L40 27L38 27L38 28L35 28L35 27L36 27L36 25L35 25L35 23L36 23L36 24L37 24L37 25L38 25L38 26L42 26L42 28L44 28L44 29L45 29L45 28L47 28L47 27L46 27L46 26L47 26L47 25L48 25L48 24L47 24L47 23L48 23L48 22L49 22L49 21L50 21L50 20L49 20L49 19L46 19L46 18L47 18L47 17L48 17L48 16L49 16L49 15L48 15L48 14L51 14L51 11L50 11L50 12L49 12L49 11L48 11L48 12L47 12L47 11L46 11L46 12L47 12L47 13L45 13L45 12L42 12L42 10L43 10L43 11L45 11L45 10L44 10L44 9L45 9L45 8L44 8L44 5L45 5L45 7L46 7L46 5L47 5L47 4L48 4L48 3L47 3L47 4L45 4L45 3L46 3L46 2L45 2L45 1L42 1L42 2L43 2L43 3L44 3L44 4L43 4L43 7L42 7L42 4L41 4L41 7L42 7L42 8L40 8L40 5L38 5L38 2L36 2L36 4L34 4L34 3L35 3L35 2L34 2L34 3L33 3L33 2L32 2L32 1ZM15 2L15 4L17 4L17 2ZM44 2L44 3L45 3L45 2ZM49 2L49 3L50 3L50 2ZM51 3L51 4L52 4L52 3ZM29 5L29 8L32 8L32 5ZM36 5L36 7L37 7L37 8L38 8L38 9L40 9L40 8L39 8L39 6L38 6L38 7L37 7L37 5ZM9 6L9 7L10 7L10 6ZM12 6L12 7L13 7L13 6ZM17 6L17 8L18 8L18 6ZM20 6L20 7L21 7L21 6ZM27 6L27 7L28 7L28 6ZM30 6L30 7L31 7L31 6ZM33 6L33 9L34 9L34 6ZM52 6L52 7L53 7L53 6ZM2 8L2 9L5 9L5 8ZM9 8L9 9L10 9L10 10L7 10L7 11L5 11L5 12L7 12L7 11L8 11L8 12L9 12L9 11L10 11L10 10L11 10L11 9L10 9L10 8ZM15 8L15 9L16 9L16 8ZM20 8L20 9L21 9L21 10L22 10L22 9L21 9L21 8ZM26 8L26 9L27 9L27 8ZM43 8L43 9L44 9L44 8ZM0 9L0 10L1 10L1 9ZM41 9L41 10L38 10L38 11L37 11L37 10L36 10L36 11L35 11L35 12L36 12L36 13L35 13L35 14L32 14L32 13L31 13L31 15L30 15L30 17L34 17L34 18L32 18L32 20L33 20L33 21L34 21L34 22L36 22L36 23L38 23L38 24L39 24L39 25L41 25L41 24L42 24L42 26L46 26L46 25L44 25L44 24L45 24L45 22L46 22L46 23L47 23L47 22L46 22L46 21L49 21L49 20L45 20L45 18L44 18L44 17L43 17L43 16L46 16L46 17L47 17L47 16L48 16L48 15L47 15L47 16L46 16L46 15L44 15L44 14L43 14L43 13L42 13L42 12L41 12L41 13L39 13L39 14L38 14L38 15L37 15L37 16L36 16L36 18L35 18L35 17L34 17L34 16L33 16L33 15L35 15L35 14L37 14L37 13L38 13L38 11L39 11L39 12L40 12L40 11L41 11L41 10L42 10L42 9ZM55 9L55 10L53 10L53 11L52 11L52 12L54 12L54 13L55 13L55 12L56 12L56 13L57 13L57 14L58 14L58 13L57 13L57 12L56 12L56 11L58 11L58 12L59 12L59 11L58 11L58 10L56 10L56 9ZM2 10L2 11L3 11L3 10ZM24 10L24 11L25 11L25 12L26 12L26 11L27 11L27 10ZM30 10L30 11L31 11L31 10ZM14 11L14 13L15 13L15 11ZM54 11L54 12L55 12L55 11ZM0 12L0 13L1 13L1 14L0 14L0 15L2 15L2 13L1 13L1 12ZM48 12L48 13L47 13L47 14L48 14L48 13L49 13L49 12ZM5 14L5 15L7 15L7 14ZM42 14L42 15L41 15L41 16L42 16L42 15L43 15L43 14ZM38 15L38 16L37 16L37 17L38 17L38 16L39 16L39 15ZM52 15L52 17L54 17L54 18L53 18L53 19L54 19L54 20L55 20L55 21L53 21L53 20L52 20L52 21L53 21L53 22L55 22L55 21L56 21L56 20L57 20L57 21L60 21L60 20L58 20L58 19L57 19L57 18L56 18L56 17L54 17L54 16L55 16L55 15L54 15L54 16L53 16L53 15ZM14 16L14 17L15 17L15 16ZM0 17L0 18L2 18L2 17ZM6 17L6 18L5 18L5 19L4 19L4 20L5 20L5 21L6 21L6 22L8 22L8 24L7 24L7 25L8 25L8 24L10 24L10 22L8 22L8 20L7 20L7 19L6 19L6 18L9 18L9 17ZM29 18L29 19L28 19L28 20L27 20L27 21L28 21L28 23L29 23L29 22L30 22L30 21L31 21L31 20L30 20L30 18ZM34 18L34 19L33 19L33 20L34 20L34 21L36 21L36 20L38 20L38 22L40 22L40 23L39 23L39 24L40 24L40 23L43 23L43 24L44 24L44 22L45 22L45 20L44 20L44 19L43 19L43 18L41 18L41 19L40 19L40 20L38 20L38 19L39 19L39 18L38 18L38 19L37 19L37 18L36 18L36 19L35 19L35 18ZM54 18L54 19L55 19L55 18ZM20 19L20 20L21 20L21 19ZM2 20L2 21L3 21L3 20ZM6 20L6 21L7 21L7 20ZM28 20L28 21L29 21L29 20ZM41 20L41 22L44 22L44 20L43 20L43 21L42 21L42 20ZM56 22L56 23L58 23L58 22ZM0 23L0 24L2 24L2 23ZM12 23L12 24L13 24L13 23ZM54 24L54 25L53 25L53 26L54 26L54 27L55 27L55 26L56 26L56 25L55 25L55 24ZM24 25L24 26L25 26L25 25ZM54 25L54 26L55 26L55 25ZM58 25L58 26L57 26L57 28L59 28L59 29L57 29L57 31L58 31L58 30L59 30L59 29L60 29L60 28L59 28L59 27L60 27L60 26L59 26L59 25ZM58 26L58 27L59 27L59 26ZM6 27L6 28L8 28L8 27ZM44 27L44 28L45 28L45 27ZM48 27L48 28L50 28L50 29L48 29L48 30L47 30L47 29L46 29L46 30L45 30L45 31L46 31L46 30L47 30L47 31L48 31L48 32L49 32L49 33L50 33L50 34L51 34L51 33L52 33L52 35L50 35L50 36L52 36L52 35L54 35L54 36L53 36L53 38L54 38L54 36L55 36L55 35L56 35L56 36L57 36L57 35L58 35L58 34L59 34L59 33L58 33L58 32L57 32L57 33L54 33L54 34L53 34L53 33L52 33L52 32L51 32L51 30L52 30L52 27ZM9 28L9 29L10 29L10 30L11 30L11 31L12 31L12 30L11 30L11 29L10 29L10 28ZM34 28L34 29L35 29L35 28ZM38 28L38 29L37 29L37 30L35 30L35 32L36 32L36 31L37 31L37 30L38 30L38 29L40 29L40 28ZM0 29L0 30L1 30L1 29ZM5 29L5 32L8 32L8 29ZM21 29L21 30L22 30L22 29ZM29 29L29 32L32 32L32 29ZM53 29L53 32L56 32L56 29ZM6 30L6 31L7 31L7 30ZM30 30L30 31L31 31L31 30ZM41 30L41 34L42 34L42 35L43 35L43 34L42 34L42 31L43 31L43 30ZM49 30L49 31L50 31L50 30ZM54 30L54 31L55 31L55 30ZM15 31L15 32L17 32L17 31ZM26 31L26 32L24 32L24 33L22 33L22 34L23 34L23 36L20 36L20 35L21 35L21 34L20 34L20 33L21 33L21 32L20 32L20 33L19 33L19 34L18 34L18 35L17 35L17 33L16 33L16 35L17 35L17 36L15 36L15 37L13 37L13 39L14 39L14 38L15 38L15 39L17 39L17 38L18 38L18 39L19 39L19 38L21 38L21 37L22 37L22 38L23 38L23 37L24 37L24 39L25 39L25 41L24 41L24 40L23 40L23 39L21 39L21 41L20 41L20 40L19 40L19 41L20 41L20 42L21 42L21 41L24 41L24 42L22 42L22 43L23 43L23 44L22 44L22 45L25 45L25 46L26 46L26 47L25 47L25 48L27 48L27 45L26 45L26 43L27 43L27 41L28 41L28 40L30 40L30 42L29 42L29 43L28 43L28 45L29 45L29 46L28 46L28 47L29 47L29 48L28 48L28 49L29 49L29 50L30 50L30 47L29 47L29 46L30 46L30 45L31 45L31 44L32 44L32 45L35 45L35 44L36 44L36 47L35 47L35 48L36 48L36 49L37 49L37 50L38 50L38 51L39 51L39 52L41 52L41 53L40 53L40 54L39 54L39 55L36 55L36 57L35 57L35 58L36 58L36 59L37 59L37 58L40 58L40 56L41 56L41 57L42 57L42 58L41 58L41 59L42 59L42 58L44 58L44 56L45 56L45 55L44 55L44 54L43 54L43 53L44 53L44 52L45 52L45 51L47 51L47 52L48 52L48 50L45 50L45 49L48 49L48 48L49 48L49 50L50 50L50 51L49 51L49 52L50 52L50 51L52 51L52 48L49 48L49 46L50 46L50 45L49 45L49 44L50 44L50 43L49 43L49 44L48 44L48 41L47 41L47 38L46 38L46 40L45 40L45 39L41 39L41 40L45 40L45 41L46 41L46 42L45 42L45 43L44 43L44 42L43 42L43 41L41 41L41 42L43 42L43 43L42 43L42 44L41 44L41 43L40 43L40 42L39 42L39 41L40 41L40 40L39 40L39 39L38 39L38 40L39 40L39 41L35 41L35 40L36 40L36 39L35 39L35 38L34 38L34 36L35 36L35 34L36 34L36 33L33 33L33 35L34 35L34 36L32 36L32 38L31 38L31 39L30 39L30 37L29 37L29 38L27 38L27 40L26 40L26 38L25 38L25 37L28 37L28 36L29 36L29 35L28 35L28 34L27 34L27 33L26 33L26 32L27 32L27 31ZM44 32L44 33L45 33L45 32ZM10 33L10 34L11 34L11 33ZM24 33L24 36L25 36L25 35L26 35L26 33ZM57 33L57 34L58 34L58 33ZM6 34L6 35L7 35L7 34ZM13 34L13 36L14 36L14 34ZM19 34L19 35L20 35L20 34ZM31 34L31 35L32 35L32 34ZM54 34L54 35L55 35L55 34ZM27 35L27 36L28 36L28 35ZM37 35L37 36L38 36L38 35ZM17 36L17 37L18 37L18 38L19 38L19 37L18 37L18 36ZM15 37L15 38L16 38L16 37ZM32 38L32 39L31 39L31 41L32 41L32 42L30 42L30 44L29 44L29 45L30 45L30 44L31 44L31 43L32 43L32 42L34 42L34 43L33 43L33 44L35 44L35 42L34 42L34 40L33 40L33 41L32 41L32 39L34 39L34 38ZM48 38L48 39L49 39L49 38ZM10 39L10 40L11 40L11 41L10 41L10 42L11 42L11 43L10 43L10 44L9 44L9 46L10 46L10 48L11 48L11 46L14 46L14 44L15 44L15 46L16 46L16 45L19 45L19 47L17 47L17 49L16 49L16 50L17 50L17 49L18 49L18 48L19 48L19 47L20 47L20 46L21 46L21 45L19 45L19 44L18 44L18 43L19 43L19 42L17 42L17 40L15 40L15 41L13 41L13 40L11 40L11 39ZM11 41L11 42L12 42L12 43L11 43L11 44L13 44L13 43L14 43L14 42L13 42L13 41ZM25 41L25 42L26 42L26 41ZM16 42L16 44L17 44L17 42ZM37 42L37 43L38 43L38 44L40 44L40 45L39 45L39 46L38 46L38 45L37 45L37 47L36 47L36 48L37 48L37 47L38 47L38 49L39 49L39 48L40 48L40 49L42 49L42 50L39 50L39 51L41 51L41 52L42 52L42 50L44 50L44 51L43 51L43 52L44 52L44 51L45 51L45 50L44 50L44 49L45 49L45 48L48 48L48 46L49 46L49 45L48 45L48 44L47 44L47 45L46 45L46 43L47 43L47 42L46 42L46 43L45 43L45 44L44 44L44 43L43 43L43 44L44 44L44 45L43 45L43 46L42 46L42 45L41 45L41 44L40 44L40 43L38 43L38 42ZM20 43L20 44L21 44L21 43ZM24 43L24 44L25 44L25 43ZM5 44L5 46L6 46L6 47L7 47L7 46L6 46L6 45L7 45L7 44ZM10 45L10 46L11 46L11 45ZM40 45L40 46L39 46L39 47L40 47L40 48L42 48L42 46L41 46L41 45ZM45 45L45 47L43 47L43 48L45 48L45 47L47 47L47 46L48 46L48 45L47 45L47 46L46 46L46 45ZM53 45L53 46L54 46L54 45ZM55 45L55 47L54 47L54 49L56 49L56 50L55 50L55 51L54 51L54 52L59 52L59 49L58 49L58 50L57 50L57 49L56 49L56 48L59 48L59 47L56 47L56 46L57 46L57 45ZM31 46L31 49L32 49L32 47L34 47L34 46ZM40 46L40 47L41 47L41 46ZM21 47L21 48L22 48L22 47ZM55 47L55 48L56 48L56 47ZM33 48L33 49L34 49L34 50L35 50L35 49L34 49L34 48ZM50 49L50 50L51 50L51 49ZM56 50L56 51L57 51L57 50ZM3 51L3 52L4 52L4 51ZM14 53L14 54L13 54L13 55L12 55L12 56L14 56L14 54L15 54L15 53ZM17 53L17 54L19 54L19 53ZM29 53L29 56L32 56L32 53ZM41 53L41 54L40 54L40 55L39 55L39 56L37 56L37 57L36 57L36 58L37 58L37 57L39 57L39 56L40 56L40 55L41 55L41 54L42 54L42 53ZM53 53L53 56L56 56L56 53ZM57 53L57 54L58 54L58 53ZM26 54L26 57L27 57L27 58L28 58L28 59L29 59L29 58L30 58L30 57L29 57L29 58L28 58L28 57L27 57L27 56L28 56L28 54ZM30 54L30 55L31 55L31 54ZM54 54L54 55L55 55L55 54ZM42 55L42 56L44 56L44 55ZM57 55L57 56L60 56L60 55ZM10 57L10 58L11 58L11 57ZM12 57L12 58L13 58L13 57ZM54 57L54 59L55 59L55 60L56 60L56 59L55 59L55 58L56 58L56 57ZM21 58L21 59L22 59L22 58ZM14 59L14 60L15 60L15 61L16 61L16 59ZM23 59L23 61L24 61L24 60L25 60L25 61L26 61L26 60L25 60L25 59ZM20 60L20 61L21 61L21 60ZM0 0L0 7L7 7L7 0ZM1 1L1 6L6 6L6 1ZM2 2L2 5L5 5L5 2ZM54 0L54 7L61 7L61 0ZM55 1L55 6L60 6L60 1ZM56 2L56 5L59 5L59 2ZM0 54L0 61L7 61L7 54ZM1 55L1 60L6 60L6 55ZM2 56L2 59L5 59L5 56Z" fill="#000000"/></g></g></svg>
