<?xml version="1.0" encoding="UTF-8"?>
<svg xmlns="http://www.w3.org/2000/svg" version="1.1" width="300" height="300" viewBox="0 0 300 300"><rect x="0" y="0" width="300" height="300" fill="#ffffff"/><g transform="scale(4.918)"><g transform="translate(0,0)"><path fill-rule="evenodd" d="M8 0L8 3L9 3L9 4L11 4L11 3L10 3L10 2L11 2L11 0ZM13 0L13 1L12 1L12 4L13 4L13 5L12 5L12 8L15 8L15 6L14 6L14 5L16 5L16 4L17 4L17 6L16 6L16 9L13 9L13 10L12 10L12 11L13 11L13 10L14 10L14 11L15 11L15 10L16 10L16 11L17 11L17 13L16 13L16 12L11 12L11 11L10 11L10 12L9 12L9 8L10 8L10 10L11 10L11 6L10 6L10 5L8 5L8 10L6 10L6 9L7 9L7 8L6 8L6 9L5 9L5 8L2 8L2 11L4 11L4 12L5 12L5 13L4 13L4 14L5 14L5 13L7 13L7 14L6 14L6 15L4 15L4 16L3 16L3 15L2 15L2 14L3 14L3 13L1 13L1 12L0 12L0 13L1 13L1 15L0 15L0 17L2 17L2 19L3 19L3 21L2 21L2 22L1 22L1 21L0 21L0 22L1 22L1 23L0 23L0 26L3 26L3 23L2 23L2 22L3 22L3 21L4 21L4 19L3 19L3 17L4 17L4 18L5 18L5 22L6 22L6 23L4 23L4 25L8 25L8 26L6 26L6 27L5 27L5 26L4 26L4 27L1 27L1 28L0 28L0 29L1 29L1 28L4 28L4 29L2 29L2 33L3 33L3 30L4 30L4 33L10 33L10 34L9 34L9 35L10 35L10 36L8 36L8 34L5 34L5 35L4 35L4 34L2 34L2 35L1 35L1 33L0 33L0 36L2 36L2 35L4 35L4 36L3 36L3 37L2 37L2 38L1 38L1 37L0 37L0 40L1 40L1 41L0 41L0 44L2 44L2 39L3 39L3 37L4 37L4 40L6 40L6 41L7 41L7 42L6 42L6 43L7 43L7 42L8 42L8 41L9 41L9 43L8 43L8 44L6 44L6 45L8 45L8 46L9 46L9 45L8 45L8 44L9 44L9 43L10 43L10 45L11 45L11 46L10 46L10 48L9 48L9 49L8 49L8 48L6 48L6 47L7 47L7 46L5 46L5 45L4 45L4 44L5 44L5 43L4 43L4 41L3 41L3 45L2 45L2 46L1 46L1 45L0 45L0 47L1 47L1 48L0 48L0 50L1 50L1 48L2 48L2 51L0 51L0 53L4 53L4 52L5 52L5 51L7 51L7 52L6 52L6 53L7 53L7 52L8 52L8 54L9 54L9 55L10 55L10 56L8 56L8 59L9 59L9 57L10 57L10 58L11 58L11 59L10 59L10 60L9 60L9 61L12 61L12 60L14 60L14 61L15 61L15 60L14 60L14 59L12 59L12 58L11 58L11 57L14 57L14 56L15 56L15 55L16 55L16 56L17 56L17 57L15 57L15 59L16 59L16 58L17 58L17 57L19 57L19 58L18 58L18 60L16 60L16 61L20 61L20 60L21 60L21 59L20 59L20 58L21 58L21 56L22 56L22 55L21 55L21 54L20 54L20 52L21 52L21 51L22 51L22 52L23 52L23 53L22 53L22 54L23 54L23 53L24 53L24 54L25 54L25 53L26 53L26 54L27 54L27 55L28 55L28 56L27 56L27 57L26 57L26 55L24 55L24 56L23 56L23 57L25 57L25 58L27 58L27 59L28 59L28 60L26 60L26 59L25 59L25 60L24 60L24 58L22 58L22 59L23 59L23 61L28 61L28 60L29 60L29 59L30 59L30 57L33 57L33 58L31 58L31 59L34 59L34 57L35 57L35 59L36 59L36 58L37 58L37 55L36 55L36 53L37 53L37 51L38 51L38 53L39 53L39 54L38 54L38 55L39 55L39 56L41 56L41 57L39 57L39 59L37 59L37 60L35 60L35 61L39 61L39 60L41 60L41 61L44 61L44 60L45 60L45 61L53 61L53 60L55 60L55 61L56 61L56 58L57 58L57 57L58 57L58 59L59 59L59 57L60 57L60 60L57 60L57 61L61 61L61 54L59 54L59 53L61 53L61 52L60 52L60 51L61 51L61 50L60 50L60 49L61 49L61 48L60 48L60 49L59 49L59 48L55 48L55 49L54 49L54 47L56 47L56 45L57 45L57 46L58 46L58 45L59 45L59 47L61 47L61 46L60 46L60 45L61 45L61 44L60 44L60 43L61 43L61 42L60 42L60 41L61 41L61 40L60 40L60 39L61 39L61 38L59 38L59 40L58 40L58 39L57 39L57 38L55 38L55 37L59 37L59 36L54 36L54 35L57 35L57 34L58 34L58 33L61 33L61 30L59 30L59 32L57 32L57 30L58 30L58 29L59 29L59 28L58 28L58 27L59 27L59 26L60 26L60 27L61 27L61 26L60 26L60 25L61 25L61 24L60 24L60 23L61 23L61 22L59 22L59 20L60 20L60 21L61 21L61 20L60 20L60 19L61 19L61 18L60 18L60 17L61 17L61 15L60 15L60 17L59 17L59 16L58 16L58 15L59 15L59 14L58 14L58 13L60 13L60 14L61 14L61 10L58 10L58 9L61 9L61 8L58 8L58 9L56 9L56 8L53 8L53 6L52 6L52 7L51 7L51 5L52 5L52 4L53 4L53 0L51 0L51 2L50 2L50 1L49 1L49 2L48 2L48 3L47 3L47 1L46 1L46 0L45 0L45 2L42 2L42 1L44 1L44 0L42 0L42 1L41 1L41 0L36 0L36 2L37 2L37 1L38 1L38 3L37 3L37 5L36 5L36 7L37 7L37 5L38 5L38 3L39 3L39 4L40 4L40 3L41 3L41 4L42 4L42 5L39 5L39 6L38 6L38 7L39 7L39 9L40 9L40 11L42 11L42 12L41 12L41 13L40 13L40 12L39 12L39 11L37 11L37 10L35 10L35 9L36 9L36 8L35 8L35 4L34 4L34 3L31 3L31 4L28 4L28 2L27 2L27 3L24 3L24 1L22 1L22 0L21 0L21 1L22 1L22 2L21 2L21 3L20 3L20 4L19 4L19 1L20 1L20 0L18 0L18 3L17 3L17 1L16 1L16 2L15 2L15 1L14 1L14 0ZM25 0L25 1L27 1L27 0ZM33 0L33 2L34 2L34 1L35 1L35 0ZM30 1L30 2L31 2L31 1ZM39 1L39 3L40 3L40 1ZM13 2L13 3L14 3L14 2ZM22 2L22 3L21 3L21 4L20 4L20 5L19 5L19 4L18 4L18 5L19 5L19 8L20 8L20 9L19 9L19 11L20 11L20 9L23 9L23 10L21 10L21 11L22 11L22 12L23 12L23 13L20 13L20 12L19 12L19 13L20 13L20 14L21 14L21 16L22 16L22 15L23 15L23 16L24 16L24 14L23 14L23 13L25 13L25 11L26 11L26 10L25 10L25 9L28 9L28 10L29 10L29 12L30 12L30 15L29 15L29 14L28 14L28 11L27 11L27 14L28 14L28 16L29 16L29 17L28 17L28 18L27 18L27 17L25 17L25 18L26 18L26 19L28 19L28 21L27 21L27 20L26 20L26 21L27 21L27 22L25 22L25 23L24 23L24 21L23 21L23 22L22 22L22 20L23 20L23 17L22 17L22 19L18 19L18 20L17 20L17 19L16 19L16 21L14 21L14 22L13 22L13 20L10 20L10 18L11 18L11 17L13 17L13 16L14 16L14 15L18 15L18 16L17 16L17 18L18 18L18 17L19 17L19 14L16 14L16 13L12 13L12 14L13 14L13 15L11 15L11 13L10 13L10 14L9 14L9 13L8 13L8 14L7 14L7 15L6 15L6 16L4 16L4 17L6 17L6 18L9 18L9 21L8 21L8 23L6 23L6 24L8 24L8 23L10 23L10 24L9 24L9 25L11 25L11 26L12 26L12 24L15 24L15 22L16 22L16 25L14 25L14 26L13 26L13 27L14 27L14 28L13 28L13 29L12 29L12 31L13 31L13 29L14 29L14 28L15 28L15 31L14 31L14 36L13 36L13 35L12 35L12 37L16 37L16 38L15 38L15 40L14 40L14 38L13 38L13 39L12 39L12 38L11 38L11 39L10 39L10 37L6 37L6 36L7 36L7 35L5 35L5 37L6 37L6 38L8 38L8 39L6 39L6 40L9 40L9 41L10 41L10 43L11 43L11 45L12 45L12 46L11 46L11 47L13 47L13 45L14 45L14 48L10 48L10 49L11 49L11 50L10 50L10 51L11 51L11 53L10 53L10 52L9 52L9 54L11 54L11 56L10 56L10 57L11 57L11 56L13 56L13 55L12 55L12 54L15 54L15 53L14 53L14 52L15 52L15 50L16 50L16 52L19 52L19 51L21 51L21 50L24 50L24 51L25 51L25 50L29 50L29 51L26 51L26 52L31 52L31 50L29 50L29 49L33 49L33 50L32 50L32 51L34 51L34 52L35 52L35 50L36 50L36 49L37 49L37 50L39 50L39 52L40 52L40 54L41 54L41 55L42 55L42 57L44 57L44 59L43 59L43 58L42 58L42 59L43 59L43 60L44 60L44 59L45 59L45 60L51 60L51 59L52 59L52 60L53 60L53 58L51 58L51 57L52 57L52 53L51 53L51 52L52 52L52 51L53 51L53 50L51 50L51 48L53 48L53 47L52 47L52 46L54 46L54 45L52 45L52 46L51 46L51 45L50 45L50 46L49 46L49 45L48 45L48 44L53 44L53 43L54 43L54 44L55 44L55 45L56 45L56 44L57 44L57 45L58 45L58 44L59 44L59 45L60 45L60 44L59 44L59 42L58 42L58 44L57 44L57 41L58 41L58 40L57 40L57 39L54 39L54 38L52 38L52 39L51 39L51 40L52 40L52 41L50 41L50 42L52 42L52 41L53 41L53 43L49 43L49 41L48 41L48 40L49 40L49 39L50 39L50 38L51 38L51 37L50 37L50 38L49 38L49 37L46 37L46 36L49 36L49 33L50 33L50 34L51 34L51 33L52 33L52 35L50 35L50 36L52 36L52 37L53 37L53 36L52 36L52 35L54 35L54 33L52 33L52 32L51 32L51 31L52 31L52 29L51 29L51 30L48 30L48 31L46 31L46 32L44 32L44 33L45 33L45 34L47 34L47 35L43 35L43 34L42 34L42 33L43 33L43 32L42 32L42 31L43 31L43 30L41 30L41 34L42 34L42 35L39 35L39 36L37 36L37 37L32 37L32 38L31 38L31 39L32 39L32 40L30 40L30 38L29 38L29 44L30 44L30 45L31 45L31 48L29 48L29 49L26 49L26 48L28 48L28 46L29 46L29 47L30 47L30 46L29 46L29 45L28 45L28 44L27 44L27 43L28 43L28 41L27 41L27 40L28 40L28 39L27 39L27 38L28 38L28 37L27 37L27 36L25 36L25 33L24 33L24 32L25 32L25 31L27 31L27 30L25 30L25 31L24 31L24 29L23 29L23 28L26 28L26 29L28 29L28 28L30 28L30 27L31 27L31 26L32 26L32 27L33 27L33 25L34 25L34 23L35 23L35 22L34 22L34 23L33 23L33 21L34 21L34 20L35 20L35 21L36 21L36 22L37 22L37 21L36 21L36 19L37 19L37 20L38 20L38 21L39 21L39 20L40 20L40 22L39 22L39 23L36 23L36 24L37 24L37 26L36 26L36 25L35 25L35 27L34 27L34 28L33 28L33 29L34 29L34 30L33 30L33 31L35 31L35 34L36 34L36 35L34 35L34 34L33 34L33 35L32 35L32 36L33 36L33 35L34 35L34 36L36 36L36 35L37 35L37 32L40 32L40 29L42 29L42 28L44 28L44 29L45 29L45 30L47 30L47 29L48 29L48 28L49 28L49 29L50 29L50 28L49 28L49 27L48 27L48 26L51 26L51 24L52 24L52 26L54 26L54 27L51 27L51 28L54 28L54 27L55 27L55 28L56 28L56 27L58 27L58 26L59 26L59 25L60 25L60 24L59 24L59 23L58 23L58 22L57 22L57 20L59 20L59 19L60 19L60 18L59 18L59 17L57 17L57 16L56 16L56 15L58 15L58 14L55 14L55 17L56 17L56 18L58 18L58 19L57 19L57 20L56 20L56 21L55 21L55 22L54 22L54 20L53 20L53 19L55 19L55 18L53 18L53 17L52 17L52 15L53 15L53 13L55 13L55 12L56 12L56 13L57 13L57 12L56 12L56 11L58 11L58 12L59 12L59 11L58 11L58 10L53 10L53 9L51 9L51 8L50 8L50 9L48 9L48 8L49 8L49 7L50 7L50 5L49 5L49 3L50 3L50 2L49 2L49 3L48 3L48 4L45 4L45 3L46 3L46 2L45 2L45 3L43 3L43 4L44 4L44 6L43 6L43 5L42 5L42 6L41 6L41 7L40 7L40 6L39 6L39 7L40 7L40 8L42 8L42 6L43 6L43 8L44 8L44 10L43 10L43 12L42 12L42 13L43 13L43 14L42 14L42 15L41 15L41 14L39 14L39 15L38 15L38 12L37 12L37 11L35 11L35 14L36 14L36 15L34 15L34 16L33 16L33 15L32 15L32 16L31 16L31 19L30 19L30 21L29 21L29 19L28 19L28 18L29 18L29 17L30 17L30 15L31 15L31 14L33 14L33 12L31 12L31 11L34 11L34 9L35 9L35 8L34 8L34 5L33 5L33 8L34 8L34 9L33 9L33 10L32 10L32 9L31 9L31 11L30 11L30 9L28 9L28 6L27 6L27 8L26 8L26 6L25 6L25 5L24 5L24 4L23 4L23 2ZM15 3L15 4L16 4L16 3ZM51 3L51 4L52 4L52 3ZM21 4L21 5L20 5L20 8L22 8L22 7L23 7L23 9L25 9L25 8L24 8L24 7L25 7L25 6L24 6L24 5L23 5L23 4ZM29 5L29 8L32 8L32 5ZM46 5L46 9L47 9L47 8L48 8L48 7L49 7L49 6L48 6L48 5ZM9 6L9 7L10 7L10 6ZM13 6L13 7L14 7L14 6ZM17 6L17 7L18 7L18 6ZM21 6L21 7L22 7L22 6ZM23 6L23 7L24 7L24 6ZM30 6L30 7L31 7L31 6ZM44 6L44 8L45 8L45 6ZM47 6L47 7L48 7L48 6ZM0 9L0 10L1 10L1 9ZM4 9L4 10L5 10L5 9ZM16 9L16 10L17 10L17 9ZM41 9L41 10L42 10L42 9ZM24 10L24 11L25 11L25 10ZM46 10L46 11L44 11L44 12L43 12L43 13L44 13L44 12L47 12L47 13L48 13L48 14L49 14L49 16L48 16L48 15L47 15L47 14L44 14L44 16L43 16L43 15L42 15L42 16L41 16L41 15L40 15L40 17L41 17L41 18L39 18L39 16L38 16L38 15L37 15L37 16L36 16L36 18L35 18L35 16L34 16L34 17L32 17L32 19L31 19L31 20L34 20L34 19L36 19L36 18L37 18L37 19L38 19L38 20L39 20L39 19L40 19L40 20L41 20L41 22L40 22L40 23L39 23L39 24L38 24L38 25L39 25L39 27L38 27L38 26L37 26L37 27L35 27L35 28L34 28L34 29L35 29L35 30L36 30L36 32L37 32L37 30L38 30L38 28L39 28L39 29L40 29L40 28L41 28L41 27L40 27L40 24L41 24L41 23L42 23L42 24L43 24L43 25L41 25L41 26L43 26L43 27L44 27L44 28L45 28L45 29L47 29L47 28L48 28L48 27L47 27L47 26L46 26L46 25L45 25L45 26L46 26L46 27L47 27L47 28L45 28L45 27L44 27L44 26L43 26L43 25L44 25L44 24L46 24L46 23L47 23L47 24L48 24L48 25L49 25L49 24L50 24L50 23L52 23L52 22L49 22L49 21L50 21L50 20L47 20L47 22L46 22L46 20L45 20L45 19L49 19L49 18L50 18L50 19L52 19L52 18L50 18L50 15L51 15L51 14L52 14L52 13L53 13L53 12L51 12L51 10ZM5 11L5 12L7 12L7 11ZM47 11L47 12L50 12L50 13L49 13L49 14L51 14L51 12L50 12L50 11ZM54 11L54 12L55 12L55 11ZM36 13L36 14L37 14L37 13ZM8 14L8 16L6 16L6 17L11 17L11 15L10 15L10 16L9 16L9 14ZM25 14L25 15L26 15L26 16L27 16L27 15L26 15L26 14ZM46 15L46 16L47 16L47 17L46 17L46 18L49 18L49 17L48 17L48 16L47 16L47 15ZM37 16L37 17L38 17L38 16ZM44 16L44 17L45 17L45 16ZM15 17L15 18L13 18L13 19L15 19L15 18L16 18L16 17ZM0 18L0 20L1 20L1 18ZM33 18L33 19L34 19L34 18ZM38 18L38 19L39 19L39 18ZM41 18L41 19L45 19L45 18ZM6 19L6 20L8 20L8 19ZM18 20L18 21L17 21L17 22L18 22L18 23L17 23L17 25L16 25L16 27L17 27L17 29L19 29L19 28L18 28L18 27L19 27L19 25L18 25L18 23L19 23L19 20ZM20 20L20 21L21 21L21 20ZM44 20L44 21L45 21L45 20ZM52 20L52 21L53 21L53 20ZM6 21L6 22L7 22L7 21ZM9 21L9 22L10 22L10 21ZM31 21L31 23L29 23L29 24L28 24L28 25L29 25L29 26L28 26L28 27L27 27L27 28L28 28L28 27L29 27L29 26L31 26L31 25L30 25L30 24L31 24L31 23L32 23L32 24L33 24L33 23L32 23L32 21ZM11 22L11 24L12 24L12 22ZM21 22L21 23L20 23L20 24L23 24L23 25L22 25L22 26L21 26L21 25L20 25L20 28L21 28L21 30L20 30L20 31L18 31L18 33L19 33L19 32L21 32L21 35L23 35L23 36L22 36L22 37L21 37L21 36L20 36L20 35L19 35L19 34L16 34L16 33L17 33L17 32L16 32L16 33L15 33L15 35L19 35L19 36L17 36L17 37L18 37L18 38L16 38L16 39L17 39L17 40L16 40L16 41L15 41L15 42L14 42L14 40L11 40L11 41L13 41L13 44L14 44L14 43L15 43L15 44L16 44L16 42L19 42L19 41L20 41L20 42L22 42L22 44L23 44L23 45L24 45L24 44L25 44L25 48L24 48L24 49L25 49L25 48L26 48L26 47L27 47L27 46L28 46L28 45L26 45L26 43L27 43L27 41L26 41L26 40L27 40L27 39L26 39L26 40L25 40L25 39L24 39L24 38L22 38L22 37L23 37L23 36L24 36L24 37L25 37L25 36L24 36L24 33L23 33L23 34L22 34L22 32L21 32L21 30L23 30L23 29L22 29L22 28L21 28L21 27L22 27L22 26L23 26L23 27L26 27L26 26L27 26L27 23L25 23L25 24L26 24L26 26L25 26L25 25L24 25L24 23L22 23L22 22ZM42 22L42 23L43 23L43 24L44 24L44 23L43 23L43 22ZM45 22L45 23L46 23L46 22ZM47 22L47 23L48 23L48 24L49 24L49 23L48 23L48 22ZM53 22L53 23L54 23L54 24L53 24L53 25L54 25L54 26L55 26L55 27L56 27L56 25L54 25L54 24L57 24L57 22L56 22L56 23L54 23L54 22ZM58 24L58 25L57 25L57 26L58 26L58 25L59 25L59 24ZM23 25L23 26L24 26L24 25ZM8 26L8 27L10 27L10 28L9 28L9 30L10 30L10 28L11 28L11 27L10 27L10 26ZM14 26L14 27L15 27L15 26ZM6 27L6 28L7 28L7 27ZM37 27L37 28L38 28L38 27ZM39 27L39 28L40 28L40 27ZM57 28L57 29L58 29L58 28ZM60 28L60 29L61 29L61 28ZM5 29L5 32L8 32L8 29ZM29 29L29 32L32 32L32 29ZM36 29L36 30L37 30L37 29ZM53 29L53 32L56 32L56 29ZM0 30L0 32L1 32L1 30ZM6 30L6 31L7 31L7 30ZM30 30L30 31L31 31L31 30ZM54 30L54 31L55 31L55 30ZM9 31L9 32L10 32L10 31ZM11 32L11 34L12 34L12 33L13 33L13 32ZM27 32L27 35L28 35L28 36L30 36L30 37L31 37L31 36L30 36L30 35L31 35L31 34L32 34L32 33L29 33L29 34L28 34L28 32ZM33 32L33 33L34 33L34 32ZM47 32L47 34L48 34L48 33L49 33L49 32ZM39 33L39 34L40 34L40 33ZM56 33L56 34L57 34L57 33ZM59 34L59 35L61 35L61 34ZM42 35L42 36L41 36L41 37L42 37L42 38L41 38L41 39L40 39L40 38L39 38L39 37L40 37L40 36L39 36L39 37L37 37L37 38L33 38L33 39L34 39L34 40L35 40L35 42L34 42L34 43L33 43L33 42L32 42L32 41L30 41L30 43L31 43L31 44L32 44L32 45L33 45L33 46L32 46L32 47L33 47L33 49L34 49L34 48L36 48L36 47L38 47L38 48L41 48L41 49L42 49L42 50L41 50L41 51L40 51L40 52L42 52L42 50L45 50L45 51L44 51L44 52L43 52L43 54L42 54L42 53L41 53L41 54L42 54L42 55L43 55L43 56L45 56L45 58L46 58L46 59L47 59L47 58L46 58L46 57L47 57L47 56L48 56L48 59L49 59L49 58L50 58L50 59L51 59L51 58L50 58L50 57L49 57L49 56L48 56L48 55L49 55L49 54L50 54L50 56L51 56L51 54L50 54L50 52L51 52L51 50L49 50L49 48L50 48L50 47L51 47L51 46L50 46L50 47L49 47L49 46L48 46L48 45L47 45L47 44L48 44L48 41L47 41L47 43L46 43L46 45L45 45L45 47L44 47L44 46L43 46L43 44L45 44L45 42L46 42L46 41L45 41L45 42L44 42L44 41L42 41L42 40L46 40L46 39L47 39L47 38L46 38L46 37L45 37L45 36L43 36L43 35ZM60 36L60 37L61 37L61 36ZM26 37L26 38L27 38L27 37ZM43 37L43 38L42 38L42 39L41 39L41 40L39 40L39 39L38 39L38 38L37 38L37 39L36 39L36 40L37 40L37 41L36 41L36 42L37 42L37 43L38 43L38 45L37 45L37 44L36 44L36 46L35 46L35 47L36 47L36 46L38 46L38 47L39 47L39 46L40 46L40 47L43 47L43 48L44 48L44 49L45 49L45 50L47 50L47 51L46 51L46 52L44 52L44 55L45 55L45 56L46 56L46 54L47 54L47 55L48 55L48 54L49 54L49 53L48 53L48 52L50 52L50 51L48 51L48 50L47 50L47 49L48 49L48 48L47 48L47 47L48 47L48 46L47 46L47 45L46 45L46 46L47 46L47 47L45 47L45 48L44 48L44 47L43 47L43 46L40 46L40 45L41 45L41 44L40 44L40 43L44 43L44 42L39 42L39 41L41 41L41 40L42 40L42 39L43 39L43 38L44 38L44 37ZM18 38L18 41L19 41L19 39L20 39L20 38ZM21 38L21 40L20 40L20 41L22 41L22 42L23 42L23 40L24 40L24 41L25 41L25 42L24 42L24 43L23 43L23 44L24 44L24 43L25 43L25 42L26 42L26 41L25 41L25 40L24 40L24 39L22 39L22 38ZM45 38L45 39L46 39L46 38ZM48 38L48 39L49 39L49 38ZM9 39L9 40L10 40L10 39ZM52 39L52 40L54 40L54 43L56 43L56 41L57 41L57 40L56 40L56 41L55 41L55 40L54 40L54 39ZM38 40L38 41L37 41L37 42L38 42L38 43L39 43L39 42L38 42L38 41L39 41L39 40ZM59 40L59 41L60 41L60 40ZM11 42L11 43L12 43L12 42ZM31 42L31 43L32 43L32 42ZM20 43L20 44L21 44L21 43ZM34 43L34 44L35 44L35 43ZM17 44L17 45L16 45L16 46L15 46L15 47L16 47L16 46L17 46L17 49L16 49L16 50L17 50L17 51L19 51L19 49L20 49L20 50L21 50L21 49L22 49L22 48L23 48L23 47L24 47L24 46L19 46L19 44ZM39 44L39 45L40 45L40 44ZM33 46L33 47L34 47L34 46ZM3 47L3 48L5 48L5 47ZM19 47L19 48L22 48L22 47ZM45 48L45 49L47 49L47 48ZM4 49L4 50L7 50L7 49ZM12 49L12 50L15 50L15 49ZM17 49L17 50L18 50L18 49ZM56 49L56 50L57 50L57 51L54 51L54 52L59 52L59 49L58 49L58 50L57 50L57 49ZM3 51L3 52L4 52L4 51ZM12 51L12 52L13 52L13 51ZM47 51L47 52L46 52L46 53L47 53L47 54L48 54L48 53L47 53L47 52L48 52L48 51ZM16 53L16 54L17 54L17 56L18 56L18 54L17 54L17 53ZM29 53L29 56L32 56L32 53ZM53 53L53 56L56 56L56 53ZM57 53L57 54L58 54L58 53ZM30 54L30 55L31 55L31 54ZM34 54L34 56L35 56L35 57L36 57L36 56L35 56L35 54ZM54 54L54 55L55 55L55 54ZM20 55L20 56L19 56L19 57L20 57L20 56L21 56L21 55ZM57 55L57 56L60 56L60 55ZM54 57L54 59L55 59L55 57ZM28 58L28 59L29 59L29 58ZM40 58L40 59L41 59L41 58ZM19 59L19 60L20 60L20 59ZM32 60L32 61L34 61L34 60ZM0 0L0 7L7 7L7 0ZM1 1L1 6L6 6L6 1ZM2 2L2 5L5 5L5 2ZM54 0L54 7L61 7L61 0ZM55 1L55 6L60 6L60 1ZM56 2L56 5L59 5L59 2ZM0 54L0 61L7 61L7 54ZM1 55L1 60L6 60L6 55ZM2 56L2 59L5 59L5 56Z" fill="#000000"/></g></g></svg>
