<?xml version="1.0" encoding="UTF-8"?>
<svg xmlns="http://www.w3.org/2000/svg" version="1.1" width="300" height="300" viewBox="0 0 300 300"><rect x="0" y="0" width="300" height="300" fill="#ffffff"/><g transform="scale(4.918)"><g transform="translate(0,0)"><path fill-rule="evenodd" d="M8 0L8 3L11 3L11 6L10 6L10 5L8 5L8 9L7 9L7 8L6 8L6 9L5 9L5 8L2 8L2 10L0 10L0 11L1 11L1 12L2 12L2 17L1 17L1 16L0 16L0 17L1 17L1 18L0 18L0 20L1 20L1 22L0 22L0 23L1 23L1 22L2 22L2 25L1 25L1 24L0 24L0 25L1 25L1 26L0 26L0 27L1 27L1 28L0 28L0 31L2 31L2 30L4 30L4 31L3 31L3 32L1 32L1 33L0 33L0 35L1 35L1 36L3 36L3 34L4 34L4 37L3 37L3 38L2 38L2 37L1 37L1 38L2 38L2 39L7 39L7 40L5 40L5 41L4 41L4 40L3 40L3 41L4 41L4 43L1 43L1 42L0 42L0 44L1 44L1 45L0 45L0 46L2 46L2 47L1 47L1 48L0 48L0 49L2 49L2 47L3 47L3 48L4 48L4 47L3 47L3 46L5 46L5 48L6 48L6 49L4 49L4 50L2 50L2 51L0 51L0 53L4 53L4 52L5 52L5 51L7 51L7 52L6 52L6 53L7 53L7 52L9 52L9 51L10 51L10 53L8 53L8 54L10 54L10 53L12 53L12 55L10 55L10 57L12 57L12 56L13 56L13 57L14 57L14 58L15 58L15 59L13 59L13 58L11 58L11 59L10 59L10 61L11 61L11 60L15 60L15 61L16 61L16 60L18 60L18 61L21 61L21 58L22 58L22 56L24 56L24 57L23 57L23 59L22 59L22 60L23 60L23 61L25 61L25 60L26 60L26 61L28 61L28 58L29 58L29 61L30 61L30 59L31 59L31 60L32 60L32 61L33 61L33 60L34 60L34 59L36 59L36 57L35 57L35 58L33 58L33 54L34 54L34 56L36 56L36 54L37 54L37 55L38 55L38 57L39 57L39 56L41 56L41 58L44 58L44 57L43 57L43 56L45 56L45 55L49 55L49 56L47 56L47 58L46 58L46 59L43 59L43 60L42 60L42 59L40 59L40 60L39 60L39 58L37 58L37 61L38 61L38 60L39 60L39 61L40 61L40 60L41 60L41 61L44 61L44 60L46 60L46 61L47 61L47 60L48 60L48 61L49 61L49 60L48 60L48 59L51 59L51 58L49 58L49 57L50 57L50 55L51 55L51 57L52 57L52 58L54 58L54 59L52 59L52 61L53 61L53 60L57 60L57 61L61 61L61 56L60 56L60 55L61 55L61 54L59 54L59 53L60 53L60 51L61 51L61 50L60 50L60 49L61 49L61 48L60 48L60 47L61 47L61 46L59 46L59 45L61 45L61 42L60 42L60 41L61 41L61 40L60 40L60 41L59 41L59 40L58 40L58 39L57 39L57 38L58 38L58 37L59 37L59 36L60 36L60 37L61 37L61 36L60 36L60 35L61 35L61 34L60 34L60 33L61 33L61 32L60 32L60 31L61 31L61 30L60 30L60 29L61 29L61 28L58 28L58 27L59 27L59 26L60 26L60 27L61 27L61 26L60 26L60 25L61 25L61 24L60 24L60 25L59 25L59 24L57 24L57 25L59 25L59 26L57 26L57 27L53 27L53 28L52 28L52 27L51 27L51 26L52 26L52 25L51 25L51 26L48 26L48 25L49 25L49 24L48 24L48 23L49 23L49 22L50 22L50 23L52 23L52 22L50 22L50 20L52 20L52 21L53 21L53 20L54 20L54 22L53 22L53 23L54 23L54 24L53 24L53 26L56 26L56 25L54 25L54 24L56 24L56 23L61 23L61 22L56 22L56 23L54 23L54 22L55 22L55 21L56 21L56 20L58 20L58 21L59 21L59 20L60 20L60 21L61 21L61 14L60 14L60 13L61 13L61 10L58 10L58 9L61 9L61 8L58 8L58 9L56 9L56 8L53 8L53 6L52 6L52 7L51 7L51 5L52 5L52 4L53 4L53 0L51 0L51 2L50 2L50 3L49 3L49 2L48 2L48 0L47 0L47 1L46 1L46 0L45 0L45 2L44 2L44 1L43 1L43 0L42 0L42 1L41 1L41 0L36 0L36 1L37 1L37 2L38 2L38 1L41 1L41 2L39 2L39 4L40 4L40 5L39 5L39 6L38 6L38 9L36 9L36 8L37 8L37 6L36 6L36 8L35 8L35 5L38 5L38 4L37 4L37 3L36 3L36 2L35 2L35 1L34 1L34 0L33 0L33 1L34 1L34 2L35 2L35 3L36 3L36 4L34 4L34 3L33 3L33 4L30 4L30 3L29 3L29 4L28 4L28 2L30 2L30 1L31 1L31 0L30 0L30 1L27 1L27 0L20 0L20 1L19 1L19 2L18 2L18 1L17 1L17 0L16 0L16 2L17 2L17 3L14 3L14 4L13 4L13 3L12 3L12 1L13 1L13 2L15 2L15 0ZM10 1L10 2L11 2L11 1ZM23 1L23 4L22 4L22 5L23 5L23 8L22 8L22 6L21 6L21 4L20 4L20 5L18 5L18 4L19 4L19 3L17 3L17 12L16 12L16 11L15 11L15 10L14 10L14 9L15 9L15 8L16 8L16 5L15 5L15 7L14 7L14 6L13 6L13 5L12 5L12 6L11 6L11 7L10 7L10 6L9 6L9 7L10 7L10 8L9 8L9 9L8 9L8 11L6 11L6 12L7 12L7 13L6 13L6 14L7 14L7 15L5 15L5 10L4 10L4 9L3 9L3 11L4 11L4 12L3 12L3 13L4 13L4 14L3 14L3 15L4 15L4 19L2 19L2 18L1 18L1 19L2 19L2 21L4 21L4 22L3 22L3 23L4 23L4 24L3 24L3 26L2 26L2 27L4 27L4 28L5 28L5 27L6 27L6 28L9 28L9 25L11 25L11 26L10 26L10 27L11 27L11 29L9 29L9 35L8 35L8 33L6 33L6 34L7 34L7 35L5 35L5 36L7 36L7 37L6 37L6 38L7 38L7 39L9 39L9 38L12 38L12 39L13 39L13 38L14 38L14 39L15 39L15 40L16 40L16 45L18 45L18 46L17 46L17 47L18 47L18 46L19 46L19 47L20 47L20 51L19 51L19 50L18 50L18 49L17 49L17 48L16 48L16 46L15 46L15 45L14 45L14 43L15 43L15 42L14 42L14 43L13 43L13 41L12 41L12 42L11 42L11 40L9 40L9 41L8 41L8 40L7 40L7 41L6 41L6 42L9 42L9 43L6 43L6 44L4 44L4 45L6 45L6 46L7 46L7 47L6 47L6 48L9 48L9 47L10 47L10 49L9 49L9 50L10 50L10 51L12 51L12 50L10 50L10 49L13 49L13 47L12 47L12 48L11 48L11 47L10 47L10 46L13 46L13 45L14 45L14 46L15 46L15 48L16 48L16 50L15 50L15 49L14 49L14 50L15 50L15 51L13 51L13 52L15 52L15 51L17 51L17 52L18 52L18 51L19 51L19 52L20 52L20 54L19 54L19 53L16 53L16 54L15 54L15 55L16 55L16 54L17 54L17 55L18 55L18 57L15 57L15 56L14 56L14 57L15 57L15 58L17 58L17 59L19 59L19 58L21 58L21 57L20 57L20 54L21 54L21 56L22 56L22 54L21 54L21 53L22 53L22 52L24 52L24 53L25 53L25 54L27 54L27 53L25 53L25 52L28 52L28 51L30 51L30 52L32 52L32 51L34 51L34 49L33 49L33 48L34 48L34 46L32 46L32 44L33 44L33 45L34 45L34 43L35 43L35 45L36 45L36 46L38 46L38 48L40 48L40 49L41 49L41 50L40 50L40 51L42 51L42 52L38 52L38 53L37 53L37 51L38 51L38 49L35 49L35 50L36 50L36 51L35 51L35 52L33 52L33 53L35 53L35 54L36 54L36 53L37 53L37 54L38 54L38 53L39 53L39 54L41 54L41 56L43 56L43 55L42 55L42 54L44 54L44 55L45 55L45 54L47 54L47 53L48 53L48 52L49 52L49 54L51 54L51 55L52 55L52 53L51 53L51 52L52 52L52 51L53 51L53 50L52 50L52 49L51 49L51 48L52 48L52 47L53 47L53 46L54 46L54 45L52 45L52 47L50 47L50 50L49 50L49 51L48 51L48 50L47 50L47 49L48 49L48 48L47 48L47 47L49 47L49 45L48 45L48 44L49 44L49 41L50 41L50 42L51 42L51 41L50 41L50 40L53 40L53 39L54 39L54 41L53 41L53 42L54 42L54 43L51 43L51 44L54 44L54 43L55 43L55 42L56 42L56 44L58 44L58 45L59 45L59 44L60 44L60 42L59 42L59 44L58 44L58 43L57 43L57 42L58 42L58 40L57 40L57 39L56 39L56 38L57 38L57 37L53 37L53 36L59 36L59 35L60 35L60 34L59 34L59 33L60 33L60 32L59 32L59 31L60 31L60 30L59 30L59 29L58 29L58 28L57 28L57 31L58 31L58 32L57 32L57 33L55 33L55 34L56 34L56 35L52 35L52 34L54 34L54 33L52 33L52 34L51 34L51 30L52 30L52 28L51 28L51 30L49 30L49 29L50 29L50 28L49 28L49 27L48 27L48 26L47 26L47 25L48 25L48 24L47 24L47 23L48 23L48 20L50 20L50 19L48 19L48 20L47 20L47 19L46 19L46 18L51 18L51 19L52 19L52 20L53 20L53 19L52 19L52 18L54 18L54 19L56 19L56 18L57 18L57 19L58 19L58 20L59 20L59 19L60 19L60 18L58 18L58 17L57 17L57 16L59 16L59 17L60 17L60 15L58 15L58 14L53 14L53 13L55 13L55 12L53 12L53 11L52 11L52 12L51 12L51 11L50 11L50 12L51 12L51 13L50 13L50 14L49 14L49 15L48 15L48 16L47 16L47 17L46 17L46 16L44 16L44 15L45 15L45 14L47 14L47 12L49 12L49 11L45 11L45 10L48 10L48 8L49 8L49 7L50 7L50 9L49 9L49 10L54 10L54 11L55 11L55 10L56 10L56 9L55 9L55 10L54 10L54 9L51 9L51 7L50 7L50 5L49 5L49 3L48 3L48 2L47 2L47 3L46 3L46 5L45 5L45 3L42 3L42 2L43 2L43 1L42 1L42 2L41 2L41 3L40 3L40 4L41 4L41 5L40 5L40 6L39 6L39 7L40 7L40 8L42 8L42 6L43 6L43 7L44 7L44 6L45 6L45 8L43 8L43 11L42 11L42 13L45 13L45 14L44 14L44 15L43 15L43 14L41 14L41 12L39 12L39 10L40 10L40 11L41 11L41 10L42 10L42 9L41 9L41 10L40 10L40 9L39 9L39 10L38 10L38 11L37 11L37 12L39 12L39 17L38 17L38 15L35 15L35 14L36 14L36 11L34 11L34 10L31 10L31 13L30 13L30 12L29 12L29 13L28 13L28 11L29 11L29 10L28 10L28 11L27 11L27 10L26 10L26 11L27 11L27 13L28 13L28 14L25 14L25 13L24 13L24 12L22 12L22 11L21 11L21 14L22 14L22 13L23 13L23 14L24 14L24 15L23 15L23 16L21 16L21 18L22 18L22 19L21 19L21 20L19 20L19 18L20 18L20 17L19 17L19 18L16 18L16 17L17 17L17 14L19 14L19 15L18 15L18 16L19 16L19 15L20 15L20 14L19 14L19 13L20 13L20 11L19 11L19 10L21 10L21 9L22 9L22 10L24 10L24 5L26 5L26 6L25 6L25 9L26 9L26 6L27 6L27 9L28 9L28 5L26 5L26 4L27 4L27 3L26 3L26 2L27 2L27 1L26 1L26 2L25 2L25 3L24 3L24 1ZM20 2L20 3L22 3L22 2ZM47 3L47 4L48 4L48 3ZM51 3L51 4L52 4L52 3ZM33 4L33 7L34 7L34 4ZM42 4L42 5L41 5L41 6L40 6L40 7L41 7L41 6L42 6L42 5L44 5L44 4ZM29 5L29 8L32 8L32 5ZM46 5L46 9L47 9L47 8L48 8L48 7L49 7L49 6L48 6L48 5ZM12 6L12 10L13 10L13 11L12 11L12 12L11 12L11 11L10 11L10 9L11 9L11 8L10 8L10 9L9 9L9 11L8 11L8 12L9 12L9 13L8 13L8 14L9 14L9 13L10 13L10 15L8 15L8 16L5 16L5 18L6 18L6 19L7 19L7 20L5 20L5 19L4 19L4 20L5 20L5 21L7 21L7 22L6 22L6 23L8 23L8 22L9 22L9 21L10 21L10 24L11 24L11 25L12 25L12 26L11 26L11 27L12 27L12 28L15 28L15 23L17 23L17 24L18 24L18 23L17 23L17 22L18 22L18 20L17 20L17 19L15 19L15 20L13 20L13 19L14 19L14 18L15 18L15 17L16 17L16 15L15 15L15 16L14 16L14 17L12 17L12 15L14 15L14 13L15 13L15 12L14 12L14 13L13 13L13 11L14 11L14 10L13 10L13 8L14 8L14 7L13 7L13 6ZM18 6L18 10L19 10L19 9L20 9L20 8L21 8L21 6L20 6L20 8L19 8L19 6ZM30 6L30 7L31 7L31 6ZM47 6L47 7L48 7L48 6ZM33 8L33 9L34 9L34 8ZM6 9L6 10L7 10L7 9ZM9 11L9 12L10 12L10 11ZM18 11L18 12L17 12L17 13L19 13L19 11ZM33 11L33 13L32 13L32 14L30 14L30 13L29 13L29 14L30 14L30 15L28 15L28 18L27 18L27 19L26 19L26 18L25 18L25 16L26 16L26 17L27 17L27 15L24 15L24 18L25 18L25 19L24 19L24 20L23 20L23 19L22 19L22 20L23 20L23 22L22 22L22 21L19 21L19 22L20 22L20 23L19 23L19 25L20 25L20 24L23 24L23 25L24 25L24 24L23 24L23 22L24 22L24 20L25 20L25 19L26 19L26 22L25 22L25 25L26 25L26 27L25 27L25 26L22 26L22 25L21 25L21 26L22 26L22 27L23 27L23 28L24 28L24 29L23 29L23 30L22 30L22 31L23 31L23 33L22 33L22 32L21 32L21 33L20 33L20 32L19 32L19 31L18 31L18 30L20 30L20 31L21 31L21 30L20 30L20 28L19 28L19 27L20 27L20 26L19 26L19 27L18 27L18 26L17 26L17 25L16 25L16 26L17 26L17 27L16 27L16 28L19 28L19 29L18 29L18 30L17 30L17 29L16 29L16 30L15 30L15 29L13 29L13 30L12 30L12 29L11 29L11 30L10 30L10 32L11 32L11 31L12 31L12 33L13 33L13 34L16 34L16 33L17 33L17 32L19 32L19 33L18 33L18 34L17 34L17 35L18 35L18 36L16 36L16 35L13 35L13 36L16 36L16 37L14 37L14 38L17 38L17 42L18 42L18 41L20 41L20 38L21 38L21 37L20 37L20 34L21 34L21 36L23 36L23 35L24 35L24 37L25 37L25 38L23 38L23 37L22 37L22 39L21 39L21 40L23 40L23 41L25 41L25 40L26 40L26 43L25 43L25 44L24 44L24 43L23 43L23 42L22 42L22 41L21 41L21 42L20 42L20 43L21 43L21 44L19 44L19 43L18 43L18 44L19 44L19 46L20 46L20 45L21 45L21 49L22 49L22 51L20 51L20 52L22 52L22 51L24 51L24 52L25 52L25 50L26 50L26 51L28 51L28 50L26 50L26 49L23 49L23 48L27 48L27 49L28 49L28 48L27 48L27 47L26 47L26 46L24 46L24 47L23 47L23 48L22 48L22 45L23 45L23 44L24 44L24 45L25 45L25 44L28 44L28 43L27 43L27 42L28 42L28 41L29 41L29 42L30 42L30 45L29 45L29 46L30 46L30 45L31 45L31 43L32 43L32 41L34 41L34 42L33 42L33 43L34 43L34 42L36 42L36 43L38 43L38 44L36 44L36 45L38 45L38 46L39 46L39 47L40 47L40 48L41 48L41 49L42 49L42 51L43 51L43 52L46 52L46 53L47 53L47 52L48 52L48 51L47 51L47 50L46 50L46 47L47 47L47 46L44 46L44 47L42 47L42 46L43 46L43 45L44 45L44 44L45 44L45 42L46 42L46 41L45 41L45 42L44 42L44 40L46 40L46 39L47 39L47 40L48 40L48 41L49 41L49 40L48 40L48 39L53 39L53 37L52 37L52 36L51 36L51 37L52 37L52 38L48 38L48 37L49 37L49 36L50 36L50 35L51 35L51 34L48 34L48 33L49 33L49 32L48 32L48 31L49 31L49 30L48 30L48 29L49 29L49 28L46 28L46 29L45 29L45 30L46 30L46 31L44 31L44 32L43 32L43 31L42 31L42 30L43 30L43 28L45 28L45 27L47 27L47 26L44 26L44 27L43 27L43 28L42 28L42 27L41 27L41 26L43 26L43 25L44 25L44 24L45 24L45 25L47 25L47 24L45 24L45 23L44 23L44 24L43 24L43 25L42 25L42 23L41 23L41 24L40 24L40 22L39 22L39 19L41 19L41 22L43 22L43 21L44 21L44 22L46 22L46 23L47 23L47 22L46 22L46 19L45 19L45 21L44 21L44 16L43 16L43 15L42 15L42 18L43 18L43 19L41 19L41 17L40 17L40 18L38 18L38 22L39 22L39 24L38 24L38 23L37 23L37 22L36 22L36 21L37 21L37 20L36 20L36 21L34 21L34 22L33 22L33 20L32 20L32 21L31 21L31 22L30 22L30 20L31 20L31 19L29 19L29 17L30 17L30 16L32 16L32 14L33 14L33 15L34 15L34 16L33 16L33 17L31 17L31 18L32 18L32 19L33 19L33 17L35 17L35 18L36 18L36 17L35 17L35 15L34 15L34 14L35 14L35 12L34 12L34 11ZM43 11L43 12L45 12L45 13L46 13L46 12L45 12L45 11ZM57 11L57 12L56 12L56 13L57 13L57 12L59 12L59 13L60 13L60 12L59 12L59 11ZM52 12L52 13L53 13L53 12ZM0 13L0 15L1 15L1 13ZM11 14L11 15L10 15L10 16L11 16L11 15L12 15L12 14ZM40 14L40 16L41 16L41 14ZM50 14L50 15L51 15L51 14ZM53 15L53 16L52 16L52 17L53 17L53 16L55 16L55 17L54 17L54 18L55 18L55 17L56 17L56 16L57 16L57 15L56 15L56 16L55 16L55 15ZM48 16L48 17L50 17L50 16ZM6 17L6 18L7 18L7 19L8 19L8 18L9 18L9 19L11 19L11 20L10 20L10 21L11 21L11 24L12 24L12 25L13 25L13 26L14 26L14 25L13 25L13 23L15 23L15 22L14 22L14 21L13 21L13 20L12 20L12 19L13 19L13 18L12 18L12 17L11 17L11 18L10 18L10 17L8 17L8 18L7 18L7 17ZM22 17L22 18L23 18L23 17ZM34 19L34 20L35 20L35 19ZM8 20L8 21L9 21L9 20ZM11 20L11 21L12 21L12 23L13 23L13 21L12 21L12 20ZM15 20L15 21L16 21L16 20ZM27 20L27 23L26 23L26 25L28 25L28 26L27 26L27 28L29 28L29 27L28 27L28 26L30 26L30 25L31 25L31 26L32 26L32 27L31 27L31 28L32 28L32 27L34 27L34 28L33 28L33 29L35 29L35 30L33 30L33 32L34 32L34 33L32 33L32 34L33 34L33 35L36 35L36 37L35 37L35 36L34 36L34 37L33 37L33 36L32 36L32 35L31 35L31 36L30 36L30 37L33 37L33 38L31 38L31 40L29 40L29 41L30 41L30 42L31 42L31 40L32 40L32 39L36 39L36 40L37 40L37 41L36 41L36 42L38 42L38 40L39 40L39 41L40 41L40 40L41 40L41 42L42 42L42 43L41 43L41 44L39 44L39 45L40 45L40 47L41 47L41 46L42 46L42 45L43 45L43 44L44 44L44 42L42 42L42 40L44 40L44 39L43 39L43 38L44 38L44 37L43 37L43 36L46 36L46 38L45 38L45 39L46 39L46 38L47 38L47 39L48 39L48 38L47 38L47 37L48 37L48 36L49 36L49 35L48 35L48 34L47 34L47 33L46 33L46 32L47 32L47 31L48 31L48 30L47 30L47 29L46 29L46 30L47 30L47 31L46 31L46 32L44 32L44 33L43 33L43 32L41 32L41 30L42 30L42 29L41 29L41 28L39 28L39 29L38 29L38 28L37 28L37 27L38 27L38 26L39 26L39 27L40 27L40 26L41 26L41 25L40 25L40 26L39 26L39 25L38 25L38 26L37 26L37 25L36 25L36 24L37 24L37 23L36 23L36 22L35 22L35 23L36 23L36 24L34 24L34 26L33 26L33 25L32 25L32 23L33 23L33 22L31 22L31 23L30 23L30 22L29 22L29 23L28 23L28 20ZM27 23L27 24L28 24L28 25L30 25L30 23L29 23L29 24L28 24L28 23ZM4 24L4 25L5 25L5 26L4 26L4 27L5 27L5 26L6 26L6 27L8 27L8 26L6 26L6 25L9 25L9 24ZM36 26L36 27L35 27L35 28L36 28L36 29L37 29L37 30L36 30L36 31L34 31L34 32L36 32L36 33L34 33L34 34L37 34L37 33L38 33L38 32L37 32L37 31L38 31L38 29L37 29L37 28L36 28L36 27L37 27L37 26ZM1 28L1 29L3 29L3 28ZM5 29L5 32L8 32L8 29ZM24 29L24 30L25 30L25 29ZM26 29L26 30L27 30L27 32L24 32L24 33L23 33L23 34L24 34L24 35L25 35L25 33L27 33L27 34L28 34L28 35L30 35L30 34L31 34L31 33L30 33L30 34L28 34L28 30L27 30L27 29ZM29 29L29 32L32 32L32 29ZM53 29L53 32L56 32L56 29ZM6 30L6 31L7 31L7 30ZM13 30L13 33L14 33L14 30ZM16 30L16 32L17 32L17 30ZM30 30L30 31L31 31L31 30ZM39 30L39 31L40 31L40 30ZM54 30L54 31L55 31L55 30ZM58 30L58 31L59 31L59 30ZM39 32L39 33L40 33L40 32ZM58 32L58 33L57 33L57 34L58 34L58 35L59 35L59 34L58 34L58 33L59 33L59 32ZM1 33L1 34L3 34L3 33ZM42 33L42 34L40 34L40 35L41 35L41 36L43 36L43 35L45 35L45 34L46 34L46 35L47 35L47 34L46 34L46 33L45 33L45 34L43 34L43 33ZM10 34L10 35L12 35L12 34ZM18 34L18 35L19 35L19 34ZM42 34L42 35L43 35L43 34ZM26 35L26 36L25 36L25 37L26 37L26 36L27 36L27 38L28 38L28 39L27 39L27 41L28 41L28 39L30 39L30 38L28 38L28 36L27 36L27 35ZM38 35L38 36L39 36L39 37L38 37L38 38L39 38L39 40L40 40L40 38L39 38L39 37L40 37L40 36L39 36L39 35ZM9 36L9 37L7 37L7 38L9 38L9 37L11 37L11 36ZM18 36L18 37L17 37L17 38L19 38L19 36ZM34 37L34 38L35 38L35 37ZM36 37L36 38L37 38L37 37ZM42 37L42 38L41 38L41 39L42 39L42 38L43 38L43 37ZM54 38L54 39L55 39L55 41L57 41L57 40L56 40L56 39L55 39L55 38ZM59 38L59 39L61 39L61 38ZM0 39L0 40L1 40L1 39ZM24 39L24 40L25 40L25 39ZM37 39L37 40L38 40L38 39ZM9 41L9 42L10 42L10 43L9 43L9 45L7 45L7 44L6 44L6 45L7 45L7 46L8 46L8 47L9 47L9 45L11 45L11 42L10 42L10 41ZM39 42L39 43L40 43L40 42ZM12 43L12 45L13 45L13 43ZM42 43L42 44L41 44L41 45L42 45L42 44L43 44L43 43ZM46 43L46 45L47 45L47 43ZM2 44L2 45L3 45L3 44ZM21 44L21 45L22 45L22 44ZM50 45L50 46L51 46L51 45ZM55 45L55 47L54 47L54 50L56 50L56 52L59 52L59 50L58 50L58 49L55 49L55 48L59 48L59 49L60 49L60 48L59 48L59 47L58 47L58 46L57 46L57 45ZM56 46L56 47L57 47L57 46ZM32 47L32 48L30 48L30 51L32 51L32 50L33 50L33 49L32 49L32 48L33 48L33 47ZM35 47L35 48L37 48L37 47ZM43 48L43 49L44 49L44 50L43 50L43 51L44 51L44 50L45 50L45 51L46 51L46 52L47 52L47 51L46 51L46 50L45 50L45 48ZM6 49L6 50L7 50L7 51L8 51L8 49ZM50 50L50 51L52 51L52 50ZM57 50L57 51L58 51L58 50ZM3 51L3 52L4 52L4 51ZM54 51L54 52L55 52L55 51ZM13 53L13 54L14 54L14 53ZM29 53L29 56L32 56L32 53ZM41 53L41 54L42 54L42 53ZM44 53L44 54L45 54L45 53ZM53 53L53 56L56 56L56 53ZM57 53L57 57L58 57L58 56L59 56L59 58L56 58L56 57L55 57L55 59L57 59L57 60L60 60L60 56L59 56L59 55L58 55L58 53ZM23 54L23 55L24 55L24 56L26 56L26 57L27 57L27 55L24 55L24 54ZM30 54L30 55L31 55L31 54ZM54 54L54 55L55 55L55 54ZM8 56L8 59L9 59L9 56ZM24 57L24 58L25 58L25 59L23 59L23 60L25 60L25 59L26 59L26 58L25 58L25 57ZM31 57L31 58L32 58L32 60L33 60L33 58L32 58L32 57ZM46 59L46 60L47 60L47 59ZM35 60L35 61L36 61L36 60ZM50 60L50 61L51 61L51 60ZM0 0L0 7L7 7L7 0ZM1 1L1 6L6 6L6 1ZM2 2L2 5L5 5L5 2ZM54 0L54 7L61 7L61 0ZM55 1L55 6L60 6L60 1ZM56 2L56 5L59 5L59 2ZM0 54L0 61L7 61L7 54ZM1 55L1 60L6 60L6 55ZM2 56L2 59L5 59L5 56Z" fill="#000000"/></g></g></svg>
