<?xml version="1.0" encoding="UTF-8"?>
<svg xmlns="http://www.w3.org/2000/svg" version="1.1" width="300" height="300" viewBox="0 0 300 300"><rect x="0" y="0" width="300" height="300" fill="#ffffff"/><g transform="scale(4.918)"><g transform="translate(0,0)"><path fill-rule="evenodd" d="M8 0L8 3L9 3L9 5L8 5L8 9L9 9L9 6L10 6L10 7L11 7L11 8L10 8L10 9L12 9L12 10L14 10L14 11L11 11L11 10L10 10L10 11L11 11L11 12L9 12L9 10L8 10L8 11L7 11L7 10L6 10L6 9L7 9L7 8L6 8L6 9L5 9L5 8L2 8L2 9L3 9L3 10L1 10L1 9L0 9L0 11L2 11L2 13L1 13L1 12L0 12L0 14L3 14L3 17L2 17L2 16L0 16L0 17L2 17L2 20L1 20L1 19L0 19L0 20L1 20L1 21L0 21L0 22L1 22L1 23L0 23L0 24L1 24L1 25L2 25L2 26L0 26L0 27L1 27L1 28L0 28L0 29L1 29L1 30L0 30L0 31L1 31L1 32L0 32L0 36L1 36L1 35L2 35L2 37L1 37L1 38L2 38L2 37L3 37L3 38L4 38L4 37L3 37L3 35L2 35L2 34L4 34L4 33L8 33L8 34L6 34L6 35L7 35L7 36L6 36L6 37L9 37L9 38L8 38L8 40L9 40L9 38L10 38L10 36L11 36L11 32L12 32L12 30L13 30L13 33L12 33L12 36L14 36L14 35L15 35L15 36L17 36L17 35L16 35L16 34L17 34L17 32L19 32L19 33L18 33L18 37L21 37L21 36L20 36L20 35L19 35L19 34L20 34L20 33L21 33L21 34L22 34L22 35L23 35L23 36L24 36L24 37L23 37L23 38L20 38L20 39L19 39L19 40L18 40L18 39L17 39L17 40L15 40L15 39L16 39L16 38L17 38L17 37L16 37L16 38L15 38L15 39L14 39L14 40L13 40L13 38L14 38L14 37L13 37L13 38L12 38L12 37L11 37L11 39L12 39L12 40L11 40L11 41L12 41L12 40L13 40L13 41L14 41L14 42L16 42L16 43L13 43L13 42L12 42L12 43L11 43L11 42L10 42L10 41L8 41L8 42L6 42L6 41L7 41L7 40L4 40L4 41L5 41L5 43L4 43L4 44L3 44L3 42L2 42L2 40L3 40L3 39L2 39L2 40L0 40L0 42L1 42L1 43L0 43L0 46L1 46L1 47L0 47L0 50L1 50L1 48L2 48L2 46L1 46L1 45L2 45L2 44L3 44L3 47L4 47L4 49L7 49L7 50L3 50L3 49L2 49L2 51L0 51L0 53L4 53L4 52L5 52L5 51L7 51L7 52L6 52L6 53L7 53L7 52L9 52L9 53L8 53L8 54L10 54L10 55L9 55L9 56L8 56L8 59L9 59L9 61L10 61L10 59L12 59L12 60L11 60L11 61L12 61L12 60L14 60L14 61L16 61L16 60L17 60L17 59L18 59L18 58L19 58L19 61L20 61L20 57L18 57L18 56L21 56L21 58L22 58L22 59L21 59L21 60L22 60L22 59L23 59L23 61L24 61L24 60L25 60L25 61L26 61L26 60L27 60L27 61L29 61L29 60L28 60L28 58L30 58L30 61L34 61L34 59L33 59L33 60L31 60L31 58L30 58L30 57L33 57L33 58L35 58L35 55L36 55L36 56L37 56L37 57L36 57L36 59L35 59L35 60L38 60L38 59L39 59L39 57L40 57L40 58L41 58L41 59L40 59L40 60L39 60L39 61L40 61L40 60L41 60L41 59L42 59L42 60L43 60L43 61L44 61L44 60L46 60L46 61L47 61L47 60L48 60L48 61L50 61L50 59L51 59L51 60L52 60L52 59L51 59L51 58L53 58L53 57L56 57L56 58L57 58L57 59L59 59L59 56L61 56L61 54L59 54L59 56L58 56L58 54L57 54L57 52L58 52L58 53L60 53L60 51L61 51L61 50L58 50L58 49L60 49L60 48L58 48L58 49L57 49L57 48L56 48L56 49L55 49L55 48L54 48L54 47L57 47L57 46L50 46L50 45L52 45L52 44L51 44L51 43L54 43L54 45L57 45L57 44L55 44L55 43L59 43L59 42L60 42L60 43L61 43L61 42L60 42L60 41L59 41L59 40L56 40L56 39L58 39L58 37L61 37L61 36L58 36L58 35L59 35L59 34L60 34L60 35L61 35L61 34L60 34L60 33L61 33L61 32L57 32L57 30L60 30L60 31L61 31L61 30L60 30L60 29L59 29L59 28L57 28L57 26L56 26L56 25L54 25L54 24L55 24L55 23L54 23L54 22L56 22L56 23L57 23L57 24L58 24L58 25L59 25L59 26L60 26L60 28L61 28L61 26L60 26L60 25L61 25L61 24L60 24L60 23L61 23L61 22L60 22L60 21L61 21L61 18L60 18L60 19L59 19L59 20L58 20L58 19L57 19L57 17L56 17L56 20L57 20L57 21L54 21L54 22L50 22L50 21L49 21L49 20L50 20L50 19L52 19L52 20L51 20L51 21L53 21L53 20L55 20L55 19L52 19L52 17L53 17L53 18L55 18L55 17L53 17L53 16L57 16L57 15L53 15L53 16L48 16L48 15L47 15L47 14L49 14L49 15L51 15L51 14L52 14L52 13L53 13L53 14L55 14L55 13L53 13L53 11L54 11L54 12L57 12L57 13L56 13L56 14L59 14L59 15L60 15L60 17L61 17L61 14L60 14L60 13L61 13L61 10L60 10L60 12L57 12L57 11L54 11L54 10L56 10L56 8L53 8L53 6L52 6L52 7L51 7L51 5L52 5L52 4L53 4L53 0L51 0L51 2L50 2L50 3L49 3L49 0L48 0L48 1L45 1L45 0L42 0L42 1L41 1L41 2L40 2L40 1L39 1L39 0L38 0L38 1L37 1L37 0L36 0L36 1L34 1L34 0L31 0L31 1L29 1L29 0L28 0L28 1L27 1L27 0L25 0L25 1L23 1L23 2L22 2L22 3L21 3L21 4L22 4L22 3L23 3L23 4L24 4L24 3L23 3L23 2L26 2L26 1L27 1L27 3L26 3L26 4L25 4L25 5L23 5L23 6L22 6L22 8L21 8L21 5L20 5L20 2L21 2L21 1L22 1L22 0L20 0L20 2L19 2L19 1L18 1L18 2L17 2L17 0L16 0L16 2L14 2L14 1L15 1L15 0L14 0L14 1L13 1L13 0L11 0L11 2L10 2L10 1L9 1L9 0ZM32 1L32 2L31 2L31 3L32 3L32 4L33 4L33 9L32 9L32 11L33 11L33 9L35 9L35 8L36 8L36 6L37 6L37 7L38 7L38 6L39 6L39 9L38 9L38 10L39 10L39 11L38 11L38 12L37 12L37 9L36 9L36 11L35 11L35 10L34 10L34 12L37 12L37 13L41 13L41 12L40 12L40 10L42 10L42 9L40 9L40 8L42 8L42 6L43 6L43 8L44 8L44 9L43 9L43 10L44 10L44 11L45 11L45 12L43 12L43 11L42 11L42 13L43 13L43 14L41 14L41 15L40 15L40 14L39 14L39 15L37 15L37 16L38 16L38 17L39 17L39 19L38 19L38 21L37 21L37 20L36 20L36 21L37 21L37 23L36 23L36 24L37 24L37 25L36 25L36 26L37 26L37 25L38 25L38 27L37 27L37 28L39 28L39 27L40 27L40 29L41 29L41 30L39 30L39 29L38 29L38 30L37 30L37 29L36 29L36 28L35 28L35 24L33 24L33 25L32 25L32 27L31 27L31 28L32 28L32 27L33 27L33 31L35 31L35 29L36 29L36 30L37 30L37 31L40 31L40 32L42 32L42 31L43 31L43 30L44 30L44 29L45 29L45 28L44 28L44 29L43 29L43 30L42 30L42 29L41 29L41 26L42 26L42 28L43 28L43 26L42 26L42 25L43 25L43 24L44 24L44 25L46 25L46 26L44 26L44 27L46 27L46 28L49 28L49 29L48 29L48 30L47 30L47 29L46 29L46 30L45 30L45 31L44 31L44 33L43 33L43 34L42 34L42 33L40 33L40 34L39 34L39 35L38 35L38 34L37 34L37 36L40 36L40 37L39 37L39 38L40 38L40 39L38 39L38 38L37 38L37 37L35 37L35 39L36 39L36 40L35 40L35 41L34 41L34 42L33 42L33 43L32 43L32 45L35 45L35 46L32 46L32 48L31 48L31 45L30 45L30 42L29 42L29 43L27 43L27 44L25 44L25 42L28 42L28 41L29 41L29 40L30 40L30 41L33 41L33 39L34 39L34 36L36 36L36 32L35 32L35 35L34 35L34 32L33 32L33 33L28 33L28 32L27 32L27 30L28 30L28 29L27 29L27 27L26 27L26 26L28 26L28 28L29 28L29 27L30 27L30 26L28 26L28 25L29 25L29 24L28 24L28 23L29 23L29 22L31 22L31 21L30 21L30 20L32 20L32 22L33 22L33 23L34 23L34 22L35 22L35 21L34 21L34 20L32 20L32 19L31 19L31 18L29 18L29 17L30 17L30 16L31 16L31 17L33 17L33 18L34 18L34 19L35 19L35 18L36 18L36 19L37 19L37 18L36 18L36 16L35 16L35 17L34 17L34 16L32 16L32 14L33 14L33 15L36 15L36 13L34 13L34 14L33 14L33 13L32 13L32 14L31 14L31 15L30 15L30 14L28 14L28 13L29 13L29 12L31 12L31 10L30 10L30 11L29 11L29 12L28 12L28 10L29 10L29 9L28 9L28 10L24 10L24 12L22 12L22 11L23 11L23 10L22 10L22 11L20 11L20 10L21 10L21 8L20 8L20 6L19 6L19 7L18 7L18 6L17 6L17 4L14 4L14 6L13 6L13 3L10 3L10 2L9 2L9 3L10 3L10 5L11 5L11 4L12 4L12 6L11 6L11 7L12 7L12 8L13 8L13 9L15 9L15 10L18 10L18 9L19 9L19 11L20 11L20 12L19 12L19 15L18 15L18 12L16 12L16 11L15 11L15 12L14 12L14 13L17 13L17 14L15 14L15 15L14 15L14 14L12 14L12 13L11 13L11 14L9 14L9 13L8 13L8 12L7 12L7 11L5 11L5 12L7 12L7 13L6 13L6 14L7 14L7 15L6 15L6 16L8 16L8 19L6 19L6 18L7 18L7 17L6 17L6 18L5 18L5 17L4 17L4 18L5 18L5 19L3 19L3 21L2 21L2 22L3 22L3 21L4 21L4 23L5 23L5 25L4 25L4 24L3 24L3 23L2 23L2 24L3 24L3 26L2 26L2 27L3 27L3 26L4 26L4 28L5 28L5 26L7 26L7 27L6 27L6 28L10 28L10 30L9 30L9 31L10 31L10 32L11 32L11 30L12 30L12 29L13 29L13 27L14 27L14 28L15 28L15 29L17 29L17 30L15 30L15 31L18 31L18 30L19 30L19 32L21 32L21 33L22 33L22 31L24 31L24 32L25 32L25 33L24 33L24 34L23 34L23 35L24 35L24 34L25 34L25 35L26 35L26 36L25 36L25 38L26 38L26 37L27 37L27 35L28 35L28 36L29 36L29 35L28 35L28 34L33 34L33 35L30 35L30 37L29 37L29 38L28 38L28 39L27 39L27 41L26 41L26 39L25 39L25 42L24 42L24 44L25 44L25 45L23 45L23 44L22 44L22 43L23 43L23 42L22 42L22 43L20 43L20 42L21 42L21 41L22 41L22 40L23 40L23 41L24 41L24 38L23 38L23 39L21 39L21 40L19 40L19 41L16 41L16 42L18 42L18 43L16 43L16 44L17 44L17 45L16 45L16 46L15 46L15 44L14 44L14 45L13 45L13 43L12 43L12 45L13 45L13 46L9 46L9 45L10 45L10 44L11 44L11 43L10 43L10 42L9 42L9 44L8 44L8 43L6 43L6 44L5 44L5 45L4 45L4 47L5 47L5 48L7 48L7 49L8 49L8 51L9 51L9 52L10 52L10 54L11 54L11 52L10 52L10 51L11 51L11 50L10 50L10 49L12 49L12 50L13 50L13 52L12 52L12 53L13 53L13 52L15 52L15 53L14 53L14 54L12 54L12 56L11 56L11 55L10 55L10 56L9 56L9 59L10 59L10 56L11 56L11 58L12 58L12 56L13 56L13 58L15 58L15 60L16 60L16 58L17 58L17 57L16 57L16 56L18 56L18 55L20 55L20 54L18 54L18 52L15 52L15 51L16 51L16 50L17 50L17 51L18 51L18 49L19 49L19 51L20 51L20 49L21 49L21 48L19 48L19 46L20 46L20 47L22 47L22 45L23 45L23 48L22 48L22 49L25 49L25 50L26 50L26 51L25 51L25 54L23 54L23 53L24 53L24 52L23 52L23 51L21 51L21 52L20 52L20 53L21 53L21 52L22 52L22 54L21 54L21 55L22 55L22 57L23 57L23 59L25 59L25 60L26 60L26 59L25 59L25 56L26 56L26 55L27 55L27 54L28 54L28 53L27 53L27 54L26 54L26 52L27 52L27 48L28 48L28 46L27 46L27 48L26 48L26 49L25 49L25 47L26 47L26 45L29 45L29 46L30 46L30 47L29 47L29 49L30 49L30 50L34 50L34 51L32 51L32 52L34 52L34 53L33 53L33 56L34 56L34 53L37 53L37 54L36 54L36 55L37 55L37 54L38 54L38 55L39 55L39 56L38 56L38 57L39 57L39 56L40 56L40 57L41 57L41 58L42 58L42 59L45 59L45 58L51 58L51 55L52 55L52 53L50 53L50 54L48 54L48 52L49 52L49 51L50 51L50 52L52 52L52 51L53 51L53 52L57 52L57 51L56 51L56 50L57 50L57 49L56 49L56 50L55 50L55 49L54 49L54 48L53 48L53 47L50 47L50 46L49 46L49 45L48 45L48 46L47 46L47 39L48 39L48 40L49 40L49 43L48 43L48 44L49 44L49 43L50 43L50 42L51 42L51 40L53 40L53 39L54 39L54 41L53 41L53 42L54 42L54 43L55 43L55 42L57 42L57 41L55 41L55 39L56 39L56 38L57 38L57 37L58 37L58 36L57 36L57 35L56 35L56 34L57 34L57 33L56 33L56 34L55 34L55 33L54 33L54 34L55 34L55 35L49 35L49 33L47 33L47 31L48 31L48 30L49 30L49 31L51 31L51 30L52 30L52 28L54 28L54 27L55 27L55 28L56 28L56 27L55 27L55 26L54 26L54 25L53 25L53 23L52 23L52 24L51 24L51 23L50 23L50 22L49 22L49 21L48 21L48 22L49 22L49 23L48 23L48 24L47 24L47 23L46 23L46 22L47 22L47 20L49 20L49 19L50 19L50 18L51 18L51 17L50 17L50 18L49 18L49 19L48 19L48 18L47 18L47 17L48 17L48 16L47 16L47 17L46 17L46 16L44 16L44 15L45 15L45 14L47 14L47 13L46 13L46 10L47 10L47 12L49 12L49 14L51 14L51 11L53 11L53 9L50 9L50 8L51 8L51 7L50 7L50 5L49 5L49 3L48 3L48 2L45 2L45 1L42 1L42 2L45 2L45 3L43 3L43 4L45 4L45 5L44 5L44 6L43 6L43 5L42 5L42 3L41 3L41 5L42 5L42 6L41 6L41 7L40 7L40 5L38 5L38 4L40 4L40 3L38 3L38 2L37 2L37 1L36 1L36 2L35 2L35 3L32 3L32 2L33 2L33 1ZM18 2L18 3L19 3L19 2ZM28 3L28 4L26 4L26 5L27 5L27 8L26 8L26 6L25 6L25 7L24 7L24 6L23 6L23 7L24 7L24 8L22 8L22 9L24 9L24 8L25 8L25 9L27 9L27 8L28 8L28 4L30 4L30 3ZM36 3L36 5L35 5L35 4L34 4L34 5L35 5L35 6L34 6L34 8L35 8L35 6L36 6L36 5L37 5L37 6L38 6L38 5L37 5L37 3ZM45 3L45 4L48 4L48 3ZM51 3L51 4L52 4L52 3ZM29 5L29 8L32 8L32 5ZM45 5L45 6L44 6L44 8L45 8L45 6L46 6L46 9L47 9L47 8L48 8L48 11L49 11L49 12L50 12L50 11L51 11L51 10L49 10L49 8L50 8L50 7L49 7L49 6L48 6L48 5ZM12 6L12 7L13 7L13 6ZM14 6L14 7L15 7L15 6ZM16 6L16 7L17 7L17 6ZM30 6L30 7L31 7L31 6ZM47 6L47 7L48 7L48 8L49 8L49 7L48 7L48 6ZM16 8L16 9L17 9L17 8ZM19 8L19 9L20 9L20 8ZM58 8L58 9L57 9L57 10L59 10L59 9L61 9L61 8ZM44 9L44 10L45 10L45 9ZM3 11L3 12L4 12L4 11ZM20 12L20 13L21 13L21 12ZM24 12L24 13L23 13L23 14L24 14L24 15L25 15L25 19L26 19L26 18L27 18L27 17L28 17L28 15L27 15L27 14L26 14L26 13L28 13L28 12L26 12L26 13L25 13L25 12ZM11 14L11 20L12 20L12 21L10 21L10 18L9 18L9 20L8 20L8 21L7 21L7 20L6 20L6 19L5 19L5 20L4 20L4 21L5 21L5 23L8 23L8 24L9 24L9 25L7 25L7 24L6 24L6 25L7 25L7 26L10 26L10 27L11 27L11 28L12 28L12 27L13 27L13 26L10 26L10 23L11 23L11 24L12 24L12 25L13 25L13 24L16 24L16 23L15 23L15 21L13 21L13 20L15 20L15 19L16 19L16 22L17 22L17 23L19 23L19 22L20 22L20 23L21 23L21 22L23 22L23 24L24 24L24 26L26 26L26 25L25 25L25 22L27 22L27 23L26 23L26 24L27 24L27 23L28 23L28 22L29 22L29 21L26 21L26 20L25 20L25 21L24 21L24 20L23 20L23 21L21 21L21 20L22 20L22 18L23 18L23 19L24 19L24 18L23 18L23 16L22 16L22 14L21 14L21 15L20 15L20 16L22 16L22 18L21 18L21 20L20 20L20 18L19 18L19 16L18 16L18 15L16 15L16 16L15 16L15 17L14 17L14 15L12 15L12 14ZM4 15L4 16L5 16L5 15ZM9 15L9 17L10 17L10 15ZM26 15L26 16L27 16L27 15ZM41 15L41 16L40 16L40 19L42 19L42 20L39 20L39 21L38 21L38 24L39 24L39 25L41 25L41 23L39 23L39 21L40 21L40 22L43 22L43 23L42 23L42 24L43 24L43 23L44 23L44 24L45 24L45 23L44 23L44 22L43 22L43 19L44 19L44 20L45 20L45 22L46 22L46 19L47 19L47 18L46 18L46 19L44 19L44 16L43 16L43 15ZM12 16L12 17L13 17L13 16ZM17 16L17 17L16 17L16 18L17 18L17 20L18 20L18 18L17 18L17 17L18 17L18 16ZM41 16L41 17L42 17L42 16ZM58 16L58 17L59 17L59 16ZM12 18L12 20L13 20L13 19L15 19L15 18ZM27 19L27 20L29 20L29 19ZM19 20L19 21L20 21L20 22L21 22L21 21L20 21L20 20ZM6 21L6 22L7 22L7 21ZM9 21L9 22L8 22L8 23L9 23L9 22L10 22L10 21ZM12 21L12 22L11 22L11 23L12 23L12 22L13 22L13 21ZM33 21L33 22L34 22L34 21ZM58 21L58 22L59 22L59 23L58 23L58 24L59 24L59 25L60 25L60 24L59 24L59 23L60 23L60 22L59 22L59 21ZM30 23L30 25L31 25L31 24L32 24L32 23ZM49 23L49 24L48 24L48 25L47 25L47 26L46 26L46 27L49 27L49 28L50 28L50 29L49 29L49 30L51 30L51 28L52 28L52 27L51 27L51 26L52 26L52 25L51 25L51 24L50 24L50 23ZM17 24L17 25L16 25L16 26L19 26L19 27L18 27L18 28L17 28L17 27L15 27L15 28L17 28L17 29L19 29L19 30L23 30L23 28L24 28L24 29L25 29L25 30L24 30L24 31L26 31L26 27L23 27L23 28L22 28L22 29L20 29L20 28L21 28L21 27L22 27L22 26L23 26L23 25L21 25L21 24L20 24L20 25L21 25L21 26L19 26L19 25L18 25L18 24ZM49 24L49 26L51 26L51 25L50 25L50 24ZM33 25L33 27L34 27L34 25ZM53 26L53 27L54 27L54 26ZM2 28L2 29L3 29L3 30L1 30L1 31L2 31L2 33L1 33L1 34L2 34L2 33L3 33L3 31L4 31L4 29L3 29L3 28ZM34 28L34 29L35 29L35 28ZM5 29L5 32L8 32L8 29ZM29 29L29 32L32 32L32 29ZM53 29L53 32L56 32L56 29ZM6 30L6 31L7 31L7 30ZM30 30L30 31L31 31L31 30ZM46 30L46 31L47 31L47 30ZM54 30L54 31L55 31L55 30ZM14 32L14 33L16 33L16 32ZM37 32L37 33L39 33L39 32ZM51 32L51 33L50 33L50 34L51 34L51 33L52 33L52 34L53 34L53 33L52 33L52 32ZM9 33L9 36L10 36L10 33ZM25 33L25 34L27 34L27 33ZM44 33L44 34L45 34L45 35L48 35L48 34L45 34L45 33ZM58 33L58 34L59 34L59 33ZM41 34L41 36L43 36L43 37L42 37L42 38L41 38L41 39L40 39L40 40L38 40L38 39L37 39L37 40L36 40L36 42L37 42L37 40L38 40L38 41L39 41L39 43L40 43L40 44L38 44L38 43L36 43L36 45L37 45L37 46L40 46L40 44L41 44L41 43L42 43L42 42L43 42L43 43L44 43L44 44L42 44L42 45L41 45L41 46L43 46L43 48L41 48L41 47L40 47L40 48L39 48L39 47L38 47L38 48L36 48L36 49L35 49L35 48L32 48L32 49L34 49L34 50L35 50L35 51L34 51L34 52L37 52L37 50L38 50L38 54L39 54L39 55L40 55L40 56L41 56L41 55L40 55L40 52L42 52L42 51L40 51L40 50L38 50L38 48L39 48L39 49L40 49L40 48L41 48L41 50L43 50L43 52L45 52L45 53L47 53L47 52L48 52L48 51L49 51L49 50L50 50L50 51L52 51L52 50L54 50L54 51L55 51L55 50L54 50L54 49L53 49L53 48L51 48L51 50L50 50L50 47L49 47L49 46L48 46L48 47L47 47L47 46L46 46L46 47L47 47L47 48L48 48L48 49L47 49L47 50L45 50L45 49L44 49L44 50L43 50L43 48L45 48L45 47L44 47L44 44L45 44L45 43L44 43L44 42L43 42L43 40L46 40L46 39L47 39L47 38L46 38L46 37L45 37L45 36L43 36L43 35L42 35L42 34ZM4 35L4 36L5 36L5 35ZM31 36L31 37L30 37L30 38L29 38L29 39L30 39L30 40L31 40L31 39L33 39L33 38L31 38L31 37L32 37L32 36ZM47 36L47 37L49 37L49 38L48 38L48 39L49 39L49 40L51 40L51 39L53 39L53 38L54 38L54 39L55 39L55 37L57 37L57 36L54 36L54 37L52 37L52 36L50 36L50 37L49 37L49 36ZM43 37L43 38L42 38L42 39L41 39L41 40L40 40L40 41L41 41L41 42L40 42L40 43L41 43L41 42L42 42L42 41L41 41L41 40L43 40L43 38L44 38L44 37ZM50 37L50 38L49 38L49 39L50 39L50 38L52 38L52 37ZM5 38L5 39L7 39L7 38ZM30 38L30 39L31 39L31 38ZM45 38L45 39L46 39L46 38ZM60 38L60 39L61 39L61 38ZM19 41L19 42L20 42L20 41ZM45 41L45 42L46 42L46 41ZM58 41L58 42L59 42L59 41ZM34 42L34 44L35 44L35 42ZM1 43L1 44L2 44L2 43ZM19 43L19 44L18 44L18 45L17 45L17 47L15 47L15 46L13 46L13 47L12 47L12 49L13 49L13 48L14 48L14 50L16 50L16 49L18 49L18 48L17 48L17 47L18 47L18 45L19 45L19 44L20 44L20 43ZM6 44L6 45L7 45L7 46L5 46L5 47L7 47L7 48L8 48L8 49L9 49L9 48L10 48L10 47L7 47L7 46L8 46L8 44ZM58 44L58 47L61 47L61 46L59 46L59 44ZM60 44L60 45L61 45L61 44ZM14 47L14 48L15 48L15 49L16 49L16 48L15 48L15 47ZM30 48L30 49L31 49L31 48ZM36 49L36 50L37 50L37 49ZM44 50L44 51L45 51L45 50ZM47 50L47 51L46 51L46 52L47 52L47 51L48 51L48 50ZM3 51L3 52L4 52L4 51ZM28 51L28 52L29 52L29 51ZM39 51L39 52L40 52L40 51ZM58 51L58 52L59 52L59 51ZM15 53L15 55L13 55L13 56L15 56L15 55L17 55L17 54L16 54L16 53ZM29 53L29 56L32 56L32 53ZM41 53L41 54L42 54L42 55L43 55L43 56L48 56L48 57L50 57L50 56L48 56L48 55L47 55L47 54L45 54L45 55L43 55L43 54L42 54L42 53ZM53 53L53 56L56 56L56 53ZM22 54L22 55L23 55L23 54ZM25 54L25 55L26 55L26 54ZM30 54L30 55L31 55L31 54ZM50 54L50 55L51 55L51 54ZM54 54L54 55L55 55L55 54ZM27 56L27 58L28 58L28 56ZM42 57L42 58L45 58L45 57ZM60 57L60 60L55 60L55 59L54 59L54 60L53 60L53 61L54 61L54 60L55 60L55 61L61 61L61 57ZM46 59L46 60L47 60L47 59ZM48 59L48 60L49 60L49 59ZM0 0L0 7L7 7L7 0ZM1 1L1 6L6 6L6 1ZM2 2L2 5L5 5L5 2ZM54 0L54 7L61 7L61 0ZM55 1L55 6L60 6L60 1ZM56 2L56 5L59 5L59 2ZM0 54L0 61L7 61L7 54ZM1 55L1 60L6 60L6 55ZM2 56L2 59L5 59L5 56Z" fill="#000000"/></g></g></svg>
