<?xml version="1.0" encoding="UTF-8"?>
<svg xmlns="http://www.w3.org/2000/svg" version="1.1" width="300" height="300" viewBox="0 0 300 300"><rect x="0" y="0" width="300" height="300" fill="#ffffff"/><g transform="scale(4.918)"><g transform="translate(0,0)"><path fill-rule="evenodd" d="M8 0L8 3L9 3L9 4L11 4L11 6L10 6L10 5L8 5L8 10L6 10L6 9L7 9L7 8L6 8L6 9L5 9L5 8L2 8L2 11L7 11L7 12L5 12L5 13L3 13L3 12L2 12L2 13L1 13L1 12L0 12L0 13L1 13L1 15L0 15L0 17L3 17L3 19L2 19L2 21L3 21L3 22L4 22L4 23L2 23L2 22L1 22L1 21L0 21L0 23L1 23L1 24L0 24L0 25L1 25L1 27L0 27L0 29L2 29L2 30L0 30L0 31L2 31L2 30L3 30L3 29L2 29L2 28L1 28L1 27L2 27L2 25L3 25L3 24L4 24L4 23L5 23L5 26L6 26L6 27L3 27L3 28L4 28L4 31L3 31L3 35L2 35L2 34L1 34L1 32L0 32L0 34L1 34L1 35L0 35L0 37L1 37L1 38L0 38L0 43L2 43L2 42L1 42L1 39L3 39L3 40L4 40L4 41L3 41L3 45L2 45L2 44L1 44L1 46L0 46L0 47L2 47L2 48L1 48L1 49L0 49L0 50L2 50L2 51L0 51L0 53L4 53L4 52L5 52L5 51L7 51L7 50L4 50L4 49L9 49L9 52L10 52L10 53L11 53L11 52L12 52L12 54L13 54L13 56L14 56L14 57L15 57L15 58L13 58L13 59L9 59L9 57L10 57L10 58L11 58L11 57L12 57L12 56L11 56L11 54L9 54L9 53L8 53L8 54L9 54L9 55L10 55L10 56L8 56L8 59L9 59L9 61L11 61L11 60L12 60L12 61L14 61L14 60L13 60L13 59L16 59L16 58L17 58L17 60L18 60L18 59L20 59L20 60L19 60L19 61L20 61L20 60L21 60L21 59L20 59L20 58L21 58L21 56L22 56L22 55L21 55L21 53L18 53L18 52L19 52L19 51L20 51L20 49L19 49L19 48L20 48L20 47L21 47L21 51L22 51L22 52L23 52L23 51L24 51L24 50L25 50L25 52L24 52L24 53L26 53L26 54L27 54L27 55L28 55L28 56L24 56L24 57L25 57L25 58L26 58L26 60L27 60L27 61L29 61L29 60L30 60L30 58L31 58L31 59L32 59L32 61L33 61L33 60L34 60L34 61L39 61L39 60L41 60L41 61L44 61L44 60L45 60L45 61L47 61L47 60L48 60L48 61L49 61L49 60L48 60L48 59L49 59L49 58L50 58L50 59L51 59L51 60L50 60L50 61L53 61L53 60L55 60L55 61L56 61L56 58L57 58L57 57L58 57L58 59L59 59L59 57L60 57L60 60L57 60L57 61L61 61L61 54L59 54L59 53L61 53L61 52L60 52L60 51L61 51L61 50L60 50L60 49L61 49L61 48L60 48L60 49L59 49L59 48L56 48L56 47L55 47L55 45L57 45L57 46L58 46L58 45L59 45L59 47L61 47L61 46L60 46L60 45L61 45L61 44L60 44L60 43L61 43L61 42L60 42L60 41L61 41L61 40L60 40L60 39L61 39L61 38L59 38L59 40L58 40L58 39L57 39L57 40L56 40L56 39L55 39L55 38L54 38L54 39L53 39L53 37L57 37L57 36L58 36L58 37L61 37L61 34L58 34L58 33L59 33L59 32L60 32L60 33L61 33L61 30L60 30L60 29L59 29L59 28L61 28L61 26L58 26L58 25L61 25L61 24L58 24L58 25L56 25L56 26L57 26L57 27L56 27L56 28L52 28L52 27L53 27L53 26L55 26L55 25L53 25L53 26L52 26L52 24L51 24L51 23L52 23L52 22L45 22L45 21L44 21L44 20L46 20L46 21L47 21L47 20L48 20L48 21L50 21L50 20L51 20L51 19L52 19L52 18L48 18L48 17L49 17L49 16L48 16L48 15L49 15L49 14L50 14L50 15L51 15L51 14L52 14L52 13L53 13L53 15L52 15L52 17L53 17L53 18L55 18L55 20L54 20L54 22L53 22L53 24L57 24L57 22L58 22L58 23L61 23L61 22L59 22L59 21L61 21L61 20L57 20L57 19L58 19L58 18L56 18L56 17L55 17L55 14L58 14L58 15L56 15L56 16L57 16L57 17L59 17L59 18L60 18L60 19L61 19L61 18L60 18L60 17L61 17L61 15L60 15L60 17L59 17L59 16L58 16L58 15L59 15L59 14L58 14L58 13L60 13L60 14L61 14L61 10L58 10L58 9L61 9L61 8L58 8L58 9L56 9L56 8L53 8L53 6L52 6L52 7L51 7L51 5L52 5L52 4L53 4L53 0L51 0L51 2L50 2L50 1L49 1L49 2L48 2L48 3L47 3L47 1L46 1L46 0L42 0L42 1L40 1L40 3L39 3L39 4L40 4L40 5L41 5L41 6L40 6L40 7L39 7L39 6L38 6L38 5L36 5L36 4L37 4L37 2L38 2L38 1L39 1L39 0L37 0L37 2L36 2L36 1L35 1L35 0L33 0L33 1L31 1L31 0L29 0L29 1L31 1L31 3L30 3L30 2L29 2L29 3L30 3L30 4L28 4L28 2L27 2L27 3L23 3L23 5L20 5L20 3L18 3L18 4L17 4L17 2L18 2L18 1L21 1L21 3L22 3L22 1L23 1L23 2L25 2L25 1L27 1L27 0L25 0L25 1L24 1L24 0L17 0L17 1L16 1L16 2L15 2L15 3L14 3L14 0L13 0L13 1L12 1L12 3L10 3L10 2L11 2L11 0ZM33 1L33 2L32 2L32 3L31 3L31 4L33 4L33 3L34 3L34 5L33 5L33 7L34 7L34 8L33 8L33 10L32 10L32 12L31 12L31 11L30 11L30 9L28 9L28 6L27 6L27 8L26 8L26 6L25 6L25 8L23 8L23 7L24 7L24 6L23 6L23 7L22 7L22 6L21 6L21 7L20 7L20 5L19 5L19 4L18 4L18 5L19 5L19 7L20 7L20 8L17 8L17 9L16 9L16 6L17 6L17 7L18 7L18 6L17 6L17 4L16 4L16 3L15 3L15 4L16 4L16 5L14 5L14 3L13 3L13 4L12 4L12 5L14 5L14 6L13 6L13 7L12 7L12 6L11 6L11 8L12 8L12 9L13 9L13 8L14 8L14 10L15 10L15 12L13 12L13 10L12 10L12 11L11 11L11 10L10 10L10 8L9 8L9 12L10 12L10 11L11 11L11 12L12 12L12 13L13 13L13 14L11 14L11 13L10 13L10 15L13 15L13 16L11 16L11 19L9 19L9 21L8 21L8 23L9 23L9 24L7 24L7 23L6 23L6 24L7 24L7 25L6 25L6 26L8 26L8 27L6 27L6 28L9 28L9 26L8 26L8 25L10 25L10 26L11 26L11 25L12 25L12 27L15 27L15 22L17 22L17 23L18 23L18 25L19 25L19 27L18 27L18 28L20 28L20 25L21 25L21 27L22 27L22 28L21 28L21 31L20 31L20 30L19 30L19 29L17 29L17 28L15 28L15 29L14 29L14 30L15 30L15 31L14 31L14 36L13 36L13 35L12 35L12 37L15 37L15 36L16 36L16 35L17 35L17 34L18 34L18 35L19 35L19 34L20 34L20 36L19 36L19 38L16 38L16 39L15 39L15 40L14 40L14 38L13 38L13 39L12 39L12 38L11 38L11 37L10 37L10 35L9 35L9 37L6 37L6 36L7 36L7 35L6 35L6 34L7 34L7 33L6 33L6 34L4 34L4 35L3 35L3 36L2 36L2 37L3 37L3 39L5 39L5 38L7 38L7 39L6 39L6 40L7 40L7 41L6 41L6 42L8 42L8 43L5 43L5 41L4 41L4 43L5 43L5 44L4 44L4 45L5 45L5 46L7 46L7 47L6 47L6 48L7 48L7 47L8 47L8 46L9 46L9 48L10 48L10 49L11 49L11 50L10 50L10 51L11 51L11 50L12 50L12 52L14 52L14 53L13 53L13 54L14 54L14 55L15 55L15 57L17 57L17 58L18 58L18 57L20 57L20 54L19 54L19 55L17 55L17 56L16 56L16 55L15 55L15 51L13 51L13 50L14 50L14 49L11 49L11 48L10 48L10 46L11 46L11 47L15 47L15 50L16 50L16 52L18 52L18 51L19 51L19 50L18 50L18 48L19 48L19 47L18 47L18 46L16 46L16 45L19 45L19 46L21 46L21 47L22 47L22 43L24 43L24 42L26 42L26 41L27 41L27 43L26 43L26 45L28 45L28 46L27 46L27 47L26 47L26 48L25 48L25 47L24 47L24 48L25 48L25 50L31 50L31 51L32 51L32 52L34 52L34 53L35 53L35 49L37 49L37 48L38 48L38 47L39 47L39 48L40 48L40 50L42 50L42 52L40 52L40 51L39 51L39 50L38 50L38 51L37 51L37 50L36 50L36 51L37 51L37 52L40 52L40 53L42 53L42 54L39 54L39 55L38 55L38 54L37 54L37 53L36 53L36 55L37 55L37 58L36 58L36 59L34 59L34 58L35 58L35 57L36 57L36 56L35 56L35 54L33 54L33 55L34 55L34 56L33 56L33 59L34 59L34 60L37 60L37 59L39 59L39 58L41 58L41 56L39 56L39 55L42 55L42 57L43 57L43 56L44 56L44 57L45 57L45 56L46 56L46 54L47 54L47 55L48 55L48 56L47 56L47 57L46 57L46 58L42 58L42 59L43 59L43 60L44 60L44 59L45 59L45 60L47 60L47 59L48 59L48 56L49 56L49 55L50 55L50 58L51 58L51 59L52 59L52 60L53 60L53 58L51 58L51 57L52 57L52 53L51 53L51 52L52 52L52 51L53 51L53 50L51 50L51 48L53 48L53 47L50 47L50 46L51 46L51 45L50 45L50 46L49 46L49 45L48 45L48 44L52 44L52 43L54 43L54 44L55 44L55 43L54 43L54 42L52 42L52 43L49 43L49 41L48 41L48 40L49 40L49 39L50 39L50 38L52 38L52 37L53 37L53 36L56 36L56 35L57 35L57 33L56 33L56 35L50 35L50 36L52 36L52 37L50 37L50 38L49 38L49 37L46 37L46 36L49 36L49 33L50 33L50 34L51 34L51 33L52 33L52 34L53 34L53 33L52 33L52 32L51 32L51 30L52 30L52 28L51 28L51 30L48 30L48 31L46 31L46 30L47 30L47 29L48 29L48 28L49 28L49 29L50 29L50 28L49 28L49 27L48 27L48 28L47 28L47 27L45 27L45 26L48 26L48 24L50 24L50 25L49 25L49 26L51 26L51 27L52 27L52 26L51 26L51 24L50 24L50 23L48 23L48 24L47 24L47 23L45 23L45 24L44 24L44 23L43 23L43 22L42 22L42 23L41 23L41 24L40 24L40 27L39 27L39 25L38 25L38 24L39 24L39 23L40 23L40 22L41 22L41 20L40 20L40 19L45 19L45 18L38 18L38 19L37 19L37 18L36 18L36 16L37 16L37 17L38 17L38 16L39 16L39 17L41 17L41 16L42 16L42 15L43 15L43 16L44 16L44 17L45 17L45 16L46 16L46 18L47 18L47 17L48 17L48 16L47 16L47 15L48 15L48 14L47 14L47 13L48 13L48 12L53 12L53 13L55 13L55 12L56 12L56 13L57 13L57 12L56 12L56 11L58 11L58 12L59 12L59 11L58 11L58 10L53 10L53 9L51 9L51 8L50 8L50 10L49 10L49 9L48 9L48 8L49 8L49 7L50 7L50 5L49 5L49 3L50 3L50 2L49 2L49 3L48 3L48 4L45 4L45 3L46 3L46 2L45 2L45 1L44 1L44 2L43 2L43 1L42 1L42 2L41 2L41 3L40 3L40 4L41 4L41 5L42 5L42 6L41 6L41 8L42 8L42 6L43 6L43 7L44 7L44 6L45 6L45 8L43 8L43 10L44 10L44 11L46 11L46 10L49 10L49 11L48 11L48 12L42 12L42 11L40 11L40 12L39 12L39 13L40 13L40 12L42 12L42 13L44 13L44 15L43 15L43 14L42 14L42 15L40 15L40 14L39 14L39 15L38 15L38 12L37 12L37 11L39 11L39 7L38 7L38 6L37 6L37 7L36 7L36 5L35 5L35 3L36 3L36 2L34 2L34 1ZM42 2L42 3L41 3L41 4L42 4L42 5L43 5L43 6L44 6L44 5L45 5L45 4L44 4L44 3L45 3L45 2L44 2L44 3L43 3L43 2ZM51 3L51 4L52 4L52 3ZM29 5L29 8L32 8L32 5ZM46 5L46 9L47 9L47 8L48 8L48 7L49 7L49 6L48 6L48 5ZM9 6L9 7L10 7L10 6ZM14 6L14 7L15 7L15 6ZM30 6L30 7L31 7L31 6ZM34 6L34 7L35 7L35 6ZM47 6L47 7L48 7L48 6ZM21 7L21 8L20 8L20 9L21 9L21 10L23 10L23 9L21 9L21 8L22 8L22 7ZM35 8L35 9L34 9L34 10L33 10L33 11L34 11L34 12L32 12L32 13L34 13L34 14L35 14L35 15L32 15L32 16L35 16L35 15L36 15L36 14L37 14L37 13L36 13L36 14L35 14L35 13L34 13L34 12L35 12L35 11L37 11L37 10L35 10L35 9L36 9L36 8ZM37 8L37 9L38 9L38 8ZM0 9L0 10L1 10L1 9ZM4 9L4 10L5 10L5 9ZM15 9L15 10L16 10L16 11L17 11L17 13L16 13L16 12L15 12L15 13L14 13L14 15L15 15L15 16L14 16L14 19L12 19L12 20L11 20L11 23L10 23L10 21L9 21L9 23L10 23L10 25L11 25L11 23L13 23L13 24L12 24L12 25L13 25L13 26L14 26L14 22L15 22L15 21L16 21L16 20L18 20L18 21L17 21L17 22L18 22L18 23L19 23L19 20L18 20L18 19L22 19L22 17L23 17L23 20L22 20L22 22L21 22L21 23L20 23L20 24L23 24L23 25L22 25L22 27L25 27L25 25L24 25L24 24L25 24L25 23L26 23L26 28L23 28L23 29L24 29L24 31L25 31L25 29L26 29L26 32L28 32L28 34L27 34L27 35L26 35L26 33L25 33L25 32L24 32L24 33L23 33L23 35L22 35L22 33L21 33L21 32L19 32L19 31L18 31L18 33L20 33L20 34L21 34L21 35L22 35L22 36L24 36L24 37L25 37L25 36L26 36L26 38L27 38L27 39L26 39L26 40L25 40L25 39L24 39L24 38L23 38L23 39L24 39L24 40L23 40L23 41L22 41L22 39L21 39L21 41L20 41L20 39L19 39L19 41L20 41L20 42L17 42L17 41L18 41L18 39L16 39L16 40L17 40L17 41L15 41L15 42L14 42L14 40L11 40L11 39L10 39L10 37L9 37L9 38L8 38L8 39L7 39L7 40L8 40L8 42L9 42L9 43L10 43L10 45L11 45L11 46L12 46L12 45L11 45L11 43L12 43L12 42L11 42L11 41L13 41L13 44L14 44L14 43L15 43L15 44L16 44L16 43L17 43L17 44L19 44L19 43L20 43L20 44L21 44L21 43L22 43L22 42L24 42L24 41L26 41L26 40L27 40L27 41L28 41L28 43L27 43L27 44L28 44L28 45L29 45L29 46L28 46L28 48L26 48L26 49L30 49L30 47L31 47L31 46L30 46L30 45L31 45L31 44L32 44L32 45L33 45L33 42L34 42L34 43L35 43L35 44L36 44L36 45L37 45L37 47L36 47L36 48L37 48L37 47L38 47L38 45L40 45L40 44L41 44L41 46L43 46L43 44L45 44L45 43L43 43L43 44L41 44L41 43L42 43L42 42L44 42L44 41L42 41L42 42L41 42L41 43L40 43L40 44L38 44L38 43L39 43L39 41L40 41L40 40L41 40L41 39L42 39L42 40L46 40L46 39L47 39L47 38L46 38L46 37L45 37L45 36L46 36L46 35L47 35L47 34L48 34L48 33L49 33L49 32L45 32L45 30L46 30L46 29L47 29L47 28L45 28L45 27L44 27L44 26L43 26L43 25L44 25L44 24L43 24L43 23L42 23L42 24L43 24L43 25L41 25L41 26L43 26L43 27L44 27L44 28L42 28L42 29L40 29L40 28L41 28L41 27L40 27L40 28L39 28L39 29L40 29L40 32L39 32L39 33L38 33L38 35L37 35L37 32L38 32L38 31L37 31L37 30L38 30L38 29L37 29L37 28L38 28L38 26L37 26L37 25L36 25L36 24L37 24L37 23L39 23L39 22L40 22L40 20L39 20L39 19L38 19L38 20L37 20L37 19L36 19L36 18L35 18L35 17L32 17L32 18L31 18L31 15L30 15L30 12L29 12L29 11L27 11L27 10L28 10L28 9L24 9L24 11L25 11L25 13L24 13L24 12L22 12L22 11L21 11L21 12L20 12L20 10L18 10L18 9L17 9L17 10L16 10L16 9ZM41 9L41 10L42 10L42 9ZM25 10L25 11L26 11L26 13L28 13L28 14L27 14L27 15L28 15L28 19L29 19L29 17L30 17L30 15L28 15L28 14L29 14L29 13L28 13L28 12L27 12L27 11L26 11L26 10ZM50 10L50 11L51 11L51 10ZM18 11L18 12L19 12L19 13L20 13L20 14L21 14L21 16L22 16L22 15L24 15L24 17L25 17L25 19L24 19L24 22L23 22L23 23L24 23L24 22L26 22L26 23L27 23L27 24L28 24L28 26L29 26L29 27L30 27L30 28L31 28L31 27L32 27L32 28L33 28L33 29L34 29L34 30L33 30L33 31L35 31L35 33L36 33L36 31L35 31L35 29L34 29L34 28L36 28L36 27L34 27L34 28L33 28L33 26L32 26L32 25L34 25L34 23L35 23L35 24L36 24L36 23L35 23L35 21L36 21L36 22L37 22L37 21L36 21L36 19L35 19L35 18L32 18L32 19L30 19L30 21L25 21L25 19L26 19L26 20L27 20L27 18L26 18L26 17L27 17L27 16L26 16L26 17L25 17L25 15L26 15L26 14L25 14L25 15L24 15L24 13L20 13L20 12L19 12L19 11ZM54 11L54 12L55 12L55 11ZM5 13L5 14L2 14L2 16L8 16L8 14L9 14L9 13L8 13L8 14L7 14L7 13ZM15 13L15 15L18 15L18 14L16 14L16 13ZM50 13L50 14L51 14L51 13ZM6 14L6 15L7 15L7 14ZM45 14L45 15L44 15L44 16L45 16L45 15L47 15L47 14ZM37 15L37 16L38 16L38 15ZM15 16L15 17L16 17L16 18L15 18L15 20L14 20L14 21L15 21L15 20L16 20L16 18L18 18L18 17L19 17L19 16L18 16L18 17L17 17L17 16ZM50 16L50 17L51 17L51 16ZM4 17L4 18L10 18L10 17ZM12 17L12 18L13 18L13 17ZM0 18L0 20L1 20L1 18ZM5 19L5 20L3 20L3 21L4 21L4 22L7 22L7 21L5 21L5 20L8 20L8 19ZM34 19L34 21L35 21L35 19ZM46 19L46 20L47 20L47 19ZM48 19L48 20L50 20L50 19ZM20 20L20 21L21 21L21 20ZM32 20L32 21L33 21L33 20ZM38 20L38 21L39 21L39 20ZM52 20L52 21L53 21L53 20ZM56 20L56 21L55 21L55 22L54 22L54 23L56 23L56 22L57 22L57 20ZM12 21L12 22L13 22L13 21ZM29 23L29 25L30 25L30 24L32 24L32 23ZM1 24L1 25L2 25L2 24ZM45 24L45 25L46 25L46 24ZM23 25L23 26L24 26L24 25ZM16 26L16 27L17 27L17 26ZM10 27L10 28L11 28L11 29L9 29L9 31L10 31L10 33L11 33L11 34L12 34L12 33L13 33L13 32L11 32L11 31L13 31L13 29L12 29L12 28L11 28L11 27ZM57 27L57 28L59 28L59 27ZM26 28L26 29L28 29L28 28ZM44 28L44 29L45 29L45 28ZM5 29L5 32L8 32L8 29ZM16 29L16 30L17 30L17 29ZM29 29L29 32L32 32L32 29ZM53 29L53 32L56 32L56 29ZM58 29L58 30L59 30L59 31L57 31L57 32L59 32L59 31L60 31L60 30L59 30L59 29ZM6 30L6 31L7 31L7 30ZM10 30L10 31L11 31L11 30ZM22 30L22 32L23 32L23 30ZM27 30L27 31L28 31L28 30ZM30 30L30 31L31 31L31 30ZM41 30L41 31L43 31L43 30ZM54 30L54 31L55 31L55 30ZM16 31L16 32L15 32L15 34L17 34L17 33L16 33L16 32L17 32L17 31ZM33 32L33 33L32 33L32 34L33 34L33 35L32 35L32 36L33 36L33 35L34 35L34 36L35 36L35 35L34 35L34 34L33 34L33 33L34 33L34 32ZM41 32L41 34L42 34L42 35L39 35L39 36L38 36L38 37L39 37L39 38L40 38L40 39L39 39L39 40L37 40L37 38L36 38L36 37L37 37L37 35L36 35L36 37L32 37L32 38L31 38L31 39L30 39L30 40L29 40L29 39L28 39L28 40L29 40L29 44L31 44L31 43L32 43L32 42L33 42L33 41L34 41L34 42L35 42L35 43L36 43L36 42L37 42L37 43L38 43L38 42L37 42L37 41L39 41L39 40L40 40L40 39L41 39L41 38L42 38L42 39L43 39L43 38L44 38L44 37L43 37L43 38L42 38L42 36L45 36L45 35L46 35L46 34L47 34L47 33L46 33L46 34L45 34L45 35L43 35L43 34L42 34L42 33L43 33L43 32ZM44 32L44 33L45 33L45 32ZM24 33L24 36L25 36L25 33ZM39 33L39 34L40 34L40 33ZM28 34L28 37L27 37L27 38L30 38L30 36L31 36L31 34ZM4 35L4 36L5 36L5 35ZM58 35L58 36L60 36L60 35ZM17 36L17 37L18 37L18 36ZM39 36L39 37L40 37L40 36ZM4 37L4 38L5 38L5 37ZM21 37L21 38L22 38L22 37ZM33 38L33 40L35 40L35 42L36 42L36 40L35 40L35 39L36 39L36 38ZM45 38L45 39L46 39L46 38ZM48 38L48 39L49 39L49 38ZM9 39L9 40L10 40L10 39ZM31 39L31 40L32 40L32 39ZM51 39L51 40L52 40L52 41L53 41L53 39ZM54 39L54 40L55 40L55 41L56 41L56 44L59 44L59 45L60 45L60 44L59 44L59 41L60 41L60 40L59 40L59 41L58 41L58 40L57 40L57 41L56 41L56 40L55 40L55 39ZM21 41L21 42L22 42L22 41ZM30 41L30 42L32 42L32 41ZM45 41L45 42L46 42L46 41ZM47 41L47 43L46 43L46 45L44 45L44 46L45 46L45 47L42 47L42 48L41 48L41 47L40 47L40 48L41 48L41 49L42 49L42 50L43 50L43 52L46 52L46 53L47 53L47 52L48 52L48 54L50 54L50 55L51 55L51 54L50 54L50 51L51 51L51 50L49 50L49 48L50 48L50 47L49 47L49 46L48 46L48 45L47 45L47 44L48 44L48 41ZM50 41L50 42L51 42L51 41ZM10 42L10 43L11 43L11 42ZM15 42L15 43L16 43L16 42ZM57 42L57 43L58 43L58 42ZM6 44L6 45L7 45L7 44ZM13 45L13 46L14 46L14 45ZM23 45L23 46L24 46L24 45ZM34 45L34 46L32 46L32 47L34 47L34 48L35 48L35 45ZM46 45L46 46L47 46L47 47L45 47L45 48L42 48L42 49L43 49L43 50L44 50L44 51L45 51L45 50L47 50L47 51L46 51L46 52L47 52L47 51L48 51L48 52L49 52L49 51L48 51L48 50L47 50L47 49L48 49L48 48L47 48L47 47L48 47L48 46L47 46L47 45ZM52 45L52 46L54 46L54 45ZM15 46L15 47L16 47L16 46ZM29 46L29 47L30 47L30 46ZM3 47L3 48L5 48L5 47ZM54 47L54 49L55 49L55 47ZM22 48L22 49L23 49L23 50L24 50L24 49L23 49L23 48ZM45 48L45 49L47 49L47 48ZM16 49L16 50L17 50L17 49ZM31 49L31 50L32 50L32 51L34 51L34 50L33 50L33 49ZM56 49L56 50L57 50L57 51L54 51L54 52L59 52L59 49L58 49L58 50L57 50L57 49ZM3 51L3 52L4 52L4 51ZM26 51L26 52L29 52L29 51ZM6 52L6 53L7 53L7 52ZM16 53L16 54L17 54L17 53ZM22 53L22 54L23 54L23 53ZM29 53L29 56L32 56L32 53ZM43 53L43 54L42 54L42 55L44 55L44 56L45 56L45 55L44 55L44 53ZM53 53L53 56L56 56L56 53ZM57 53L57 54L58 54L58 53ZM24 54L24 55L25 55L25 54ZM30 54L30 55L31 55L31 54ZM54 54L54 55L55 55L55 54ZM57 55L57 56L60 56L60 55ZM10 56L10 57L11 57L11 56ZM17 56L17 57L18 57L18 56ZM26 57L26 58L27 58L27 57ZM31 57L31 58L32 58L32 57ZM54 57L54 59L55 59L55 57ZM22 58L22 59L24 59L24 58ZM28 58L28 59L29 59L29 58ZM46 58L46 59L47 59L47 58ZM0 0L0 7L7 7L7 0ZM1 1L1 6L6 6L6 1ZM2 2L2 5L5 5L5 2ZM54 0L54 7L61 7L61 0ZM55 1L55 6L60 6L60 1ZM56 2L56 5L59 5L59 2ZM0 54L0 61L7 61L7 54ZM1 55L1 60L6 60L6 55ZM2 56L2 59L5 59L5 56Z" fill="#000000"/></g></g></svg>
