<?xml version="1.0" encoding="UTF-8"?>
<svg xmlns="http://www.w3.org/2000/svg" version="1.1" width="300" height="300" viewBox="0 0 300 300"><rect x="0" y="0" width="300" height="300" fill="#ffffff"/><g transform="scale(4.918)"><g transform="translate(0,0)"><path fill-rule="evenodd" d="M8 0L8 3L9 3L9 4L11 4L11 5L13 5L13 6L12 6L12 7L13 7L13 8L14 8L14 10L16 10L16 11L17 11L17 12L15 12L15 11L14 11L14 13L12 13L12 12L13 12L13 11L12 11L12 12L11 12L11 10L12 10L12 8L11 8L11 9L9 9L9 8L10 8L10 7L11 7L11 6L10 6L10 5L8 5L8 9L9 9L9 10L8 10L8 12L9 12L9 13L8 13L8 16L6 16L6 15L7 15L7 14L5 14L5 16L4 16L4 14L3 14L3 13L7 13L7 12L5 12L5 11L7 11L7 10L6 10L6 9L7 9L7 8L6 8L6 9L5 9L5 8L2 8L2 11L4 11L4 12L2 12L2 13L1 13L1 12L0 12L0 13L1 13L1 14L0 14L0 17L1 17L1 18L0 18L0 20L2 20L2 21L3 21L3 22L4 22L4 21L3 21L3 19L9 19L9 20L8 20L8 22L5 22L5 23L4 23L4 24L3 24L3 23L1 23L1 22L0 22L0 25L1 25L1 24L3 24L3 25L2 25L2 27L1 27L1 26L0 26L0 27L1 27L1 28L0 28L0 29L1 29L1 28L2 28L2 29L4 29L4 31L2 31L2 30L0 30L0 31L2 31L2 32L4 32L4 34L6 34L6 35L3 35L3 36L2 36L2 35L1 35L1 34L0 34L0 36L2 36L2 37L1 37L1 38L2 38L2 39L0 39L0 40L2 40L2 41L0 41L0 42L1 42L1 43L2 43L2 44L0 44L0 45L1 45L1 46L0 46L0 48L1 48L1 47L2 47L2 46L3 46L3 47L4 47L4 48L2 48L2 49L0 49L0 50L2 50L2 51L0 51L0 53L4 53L4 52L5 52L5 51L8 51L8 54L9 54L9 56L8 56L8 59L9 59L9 60L10 60L10 61L11 61L11 60L10 60L10 59L9 59L9 56L10 56L10 57L12 57L12 56L13 56L13 57L15 57L15 56L13 56L13 54L11 54L11 55L10 55L10 53L9 53L9 52L10 52L10 51L11 51L11 52L12 52L12 53L14 53L14 55L16 55L16 57L19 57L19 58L18 58L18 59L19 59L19 60L18 60L18 61L19 61L19 60L22 60L22 61L27 61L27 60L26 60L26 59L27 59L27 58L29 58L29 59L31 59L31 60L32 60L32 59L33 59L33 61L34 61L34 60L35 60L35 61L39 61L39 60L41 60L41 59L39 59L39 58L44 58L44 60L48 60L48 61L49 61L49 60L48 60L48 59L49 59L49 58L50 58L50 59L51 59L51 58L53 58L53 59L52 59L52 60L50 60L50 61L52 61L52 60L55 60L55 61L56 61L56 60L55 60L55 59L56 59L56 58L58 58L58 59L57 59L57 61L61 61L61 54L59 54L59 53L61 53L61 52L60 52L60 51L61 51L61 50L60 50L60 49L61 49L61 46L60 46L60 43L61 43L61 42L60 42L60 41L61 41L61 38L58 38L58 37L59 37L59 36L60 36L60 37L61 37L61 34L59 34L59 32L60 32L60 33L61 33L61 32L60 32L60 31L61 31L61 30L60 30L60 29L61 29L61 28L60 28L60 27L61 27L61 26L60 26L60 25L61 25L61 24L60 24L60 23L61 23L61 22L58 22L58 21L59 21L59 20L60 20L60 21L61 21L61 20L60 20L60 19L61 19L61 18L60 18L60 17L61 17L61 15L60 15L60 17L59 17L59 16L58 16L58 17L57 17L57 18L56 18L56 17L54 17L54 16L55 16L55 15L54 15L54 14L57 14L57 15L56 15L56 16L57 16L57 15L59 15L59 14L58 14L58 13L60 13L60 14L61 14L61 10L58 10L58 9L61 9L61 8L58 8L58 9L56 9L56 8L53 8L53 6L52 6L52 8L51 8L51 5L52 5L52 4L53 4L53 0L51 0L51 2L50 2L50 0L49 0L49 2L47 2L47 1L46 1L46 0L45 0L45 1L44 1L44 3L43 3L43 2L41 2L41 1L43 1L43 0L39 0L39 1L37 1L37 0L35 0L35 2L34 2L34 0L33 0L33 2L31 2L31 0L30 0L30 1L29 1L29 2L31 2L31 3L30 3L30 4L28 4L28 2L26 2L26 1L27 1L27 0L25 0L25 1L24 1L24 0L19 0L19 1L21 1L21 2L19 2L19 3L18 3L18 2L17 2L17 1L16 1L16 2L15 2L15 1L14 1L14 0L10 0L10 1L9 1L9 0ZM13 1L13 3L12 3L12 4L13 4L13 5L15 5L15 9L16 9L16 10L17 10L17 11L18 11L18 13L16 13L16 14L15 14L15 13L14 13L14 14L15 14L15 15L12 15L12 16L13 16L13 17L14 17L14 18L13 18L13 19L11 19L11 16L10 16L10 15L9 15L9 16L10 16L10 17L6 17L6 16L5 16L5 17L6 17L6 18L10 18L10 20L11 20L11 21L9 21L9 22L8 22L8 23L9 23L9 24L10 24L10 23L9 23L9 22L11 22L11 21L12 21L12 24L11 24L11 25L12 25L12 24L14 24L14 26L15 26L15 27L14 27L14 29L13 29L13 28L12 28L12 29L11 29L11 28L10 28L10 29L11 29L11 30L9 30L9 34L8 34L8 33L6 33L6 34L7 34L7 35L6 35L6 36L7 36L7 37L5 37L5 36L3 36L3 37L2 37L2 38L3 38L3 39L4 39L4 38L8 38L8 35L10 35L10 36L12 36L12 37L15 37L15 38L13 38L13 39L11 39L11 37L9 37L9 38L10 38L10 41L11 41L11 42L10 42L10 44L13 44L13 45L14 45L14 44L16 44L16 45L15 45L15 46L13 46L13 47L11 47L11 48L10 48L10 45L9 45L9 47L8 47L8 43L6 43L6 42L9 42L9 41L8 41L8 39L5 39L5 40L7 40L7 41L5 41L5 42L4 42L4 43L3 43L3 42L2 42L2 43L3 43L3 44L2 44L2 45L3 45L3 46L5 46L5 47L6 47L6 48L7 48L7 47L8 47L8 48L10 48L10 49L12 49L12 48L13 48L13 50L11 50L11 51L13 51L13 52L17 52L17 53L16 53L16 54L17 54L17 53L18 53L18 52L19 52L19 53L21 53L21 55L22 55L22 56L20 56L20 54L19 54L19 56L20 56L20 58L19 58L19 59L21 59L21 58L22 58L22 59L25 59L25 58L27 58L27 55L26 55L26 53L27 53L27 54L28 54L28 53L27 53L27 52L30 52L30 51L31 51L31 49L34 49L34 51L33 51L33 50L32 50L32 51L33 51L33 54L34 54L34 55L35 55L35 56L34 56L34 58L35 58L35 60L37 60L37 59L38 59L38 58L39 58L39 57L37 57L37 56L40 56L40 57L44 57L44 58L47 58L47 57L48 57L48 58L49 58L49 57L48 57L48 56L49 56L49 55L50 55L50 58L51 58L51 55L52 55L52 54L51 54L51 52L50 52L50 54L49 54L49 55L48 55L48 56L42 56L42 55L41 55L41 56L40 56L40 55L35 55L35 54L34 54L34 52L36 52L36 54L39 54L39 53L40 53L40 54L42 54L42 53L41 53L41 52L42 52L42 51L43 51L43 52L44 52L44 53L43 53L43 54L44 54L44 55L46 55L46 54L47 54L47 53L48 53L48 52L49 52L49 51L50 51L50 50L51 50L51 48L52 48L52 47L53 47L53 46L54 46L54 45L53 45L53 43L54 43L54 44L59 44L59 42L57 42L57 41L58 41L58 40L59 40L59 39L58 39L58 38L57 38L57 37L55 37L55 38L56 38L56 39L53 39L53 38L54 38L54 36L59 36L59 34L58 34L58 35L57 35L57 33L58 33L58 32L59 32L59 31L60 31L60 30L59 30L59 29L60 29L60 28L59 28L59 27L60 27L60 26L59 26L59 25L60 25L60 24L59 24L59 23L58 23L58 22L57 22L57 21L58 21L58 20L59 20L59 19L60 19L60 18L59 18L59 17L58 17L58 18L57 18L57 20L56 20L56 21L55 21L55 22L53 22L53 21L52 21L52 20L53 20L53 17L52 17L52 15L53 15L53 16L54 16L54 15L53 15L53 13L52 13L52 14L51 14L51 11L50 11L50 14L49 14L49 15L48 15L48 14L47 14L47 13L48 13L48 12L49 12L49 11L48 11L48 12L47 12L47 13L46 13L46 12L42 12L42 10L44 10L44 11L45 11L45 10L47 10L47 9L48 9L48 10L52 10L52 11L55 11L55 12L56 12L56 13L57 13L57 12L56 12L56 11L55 11L55 10L53 10L53 9L51 9L51 8L50 8L50 9L48 9L48 8L49 8L49 7L50 7L50 5L49 5L49 7L48 7L48 5L47 5L47 4L48 4L48 3L47 3L47 4L45 4L45 3L46 3L46 2L45 2L45 3L44 3L44 4L43 4L43 3L41 3L41 4L39 4L39 3L40 3L40 1L39 1L39 2L37 2L37 3L35 3L35 4L34 4L34 5L33 5L33 9L34 9L34 10L32 10L32 9L31 9L31 10L30 10L30 9L28 9L28 6L27 6L27 5L28 5L28 4L26 4L26 3L25 3L25 2L24 2L24 3L25 3L25 4L24 4L24 6L23 6L23 4L22 4L22 3L23 3L23 1L22 1L22 3L19 3L19 4L18 4L18 3L17 3L17 2L16 2L16 3L17 3L17 4L16 4L16 5L15 5L15 4L13 4L13 3L15 3L15 2L14 2L14 1ZM10 2L10 3L11 3L11 2ZM33 2L33 3L34 3L34 2ZM49 2L49 3L50 3L50 2ZM31 3L31 4L32 4L32 3ZM37 3L37 5L39 5L39 4L38 4L38 3ZM51 3L51 4L52 4L52 3ZM17 4L17 5L16 5L16 9L17 9L17 10L18 10L18 9L19 9L19 11L20 11L20 12L19 12L19 13L18 13L18 14L17 14L17 15L15 15L15 16L14 16L14 17L16 17L16 18L15 18L15 19L16 19L16 20L17 20L17 22L16 22L16 21L15 21L15 22L16 22L16 23L14 23L14 20L13 20L13 23L14 23L14 24L16 24L16 23L17 23L17 26L18 26L18 27L17 27L17 28L16 28L16 27L15 27L15 33L12 33L12 32L14 32L14 30L11 30L11 31L12 31L12 32L11 32L11 34L10 34L10 35L11 35L11 34L12 34L12 35L13 35L13 36L14 36L14 34L15 34L15 36L16 36L16 37L17 37L17 38L18 38L18 39L17 39L17 40L18 40L18 39L21 39L21 38L24 38L24 39L22 39L22 40L19 40L19 41L17 41L17 42L15 42L15 43L16 43L16 44L17 44L17 45L18 45L18 44L17 44L17 43L20 43L20 45L19 45L19 47L18 47L18 46L16 46L16 47L13 47L13 48L15 48L15 49L14 49L14 50L13 50L13 51L15 51L15 50L16 50L16 51L17 51L17 52L18 52L18 51L17 51L17 50L19 50L19 51L20 51L20 52L22 52L22 53L26 53L26 52L24 52L24 51L23 51L23 50L22 50L22 48L24 48L24 50L25 50L25 49L26 49L26 51L29 51L29 50L30 50L30 48L31 48L31 47L32 47L32 48L33 48L33 47L32 47L32 46L30 46L30 45L31 45L31 44L32 44L32 45L33 45L33 46L34 46L34 45L33 45L33 44L35 44L35 47L34 47L34 49L35 49L35 47L36 47L36 50L35 50L35 51L36 51L36 52L37 52L37 53L38 53L38 52L41 52L41 51L42 51L42 50L43 50L43 49L44 49L44 50L45 50L45 51L44 51L44 52L45 52L45 51L46 51L46 53L47 53L47 52L48 52L48 50L45 50L45 49L48 49L48 48L49 48L49 50L50 50L50 48L51 48L51 47L52 47L52 46L53 46L53 45L52 45L52 44L51 44L51 45L52 45L52 46L50 46L50 43L53 43L53 42L54 42L54 43L55 43L55 41L57 41L57 40L58 40L58 39L57 39L57 40L55 40L55 41L53 41L53 39L52 39L52 37L53 37L53 35L56 35L56 34L55 34L55 33L57 33L57 32L58 32L58 31L59 31L59 30L57 30L57 29L59 29L59 28L57 28L57 27L59 27L59 26L58 26L58 25L59 25L59 24L57 24L57 22L56 22L56 23L54 23L54 26L52 26L52 25L53 25L53 24L52 24L52 25L51 25L51 26L50 26L50 24L48 24L48 23L52 23L52 22L48 22L48 21L50 21L50 20L48 20L48 19L52 19L52 18L49 18L49 17L50 17L50 15L51 15L51 14L50 14L50 15L49 15L49 16L47 16L47 14L44 14L44 16L43 16L43 15L42 15L42 14L43 14L43 13L42 13L42 12L41 12L41 10L42 10L42 9L41 9L41 10L40 10L40 9L39 9L39 8L38 8L38 9L37 9L37 10L34 10L34 11L36 11L36 12L34 12L34 13L33 13L33 14L34 14L34 15L37 15L37 16L36 16L36 18L35 18L35 19L34 19L34 17L35 17L35 16L34 16L34 17L33 17L33 16L31 16L31 15L30 15L30 13L29 13L29 12L27 12L27 13L29 13L29 14L28 14L28 16L27 16L27 14L26 14L26 12L25 12L25 11L23 11L23 12L22 12L22 11L20 11L20 10L21 10L21 9L22 9L22 8L23 8L23 6L22 6L22 8L21 8L21 9L19 9L19 6L18 6L18 4ZM20 4L20 5L22 5L22 4ZM25 4L25 5L26 5L26 4ZM35 4L35 5L34 5L34 7L35 7L35 8L36 8L36 7L37 7L37 6L36 6L36 4ZM42 4L42 5L40 5L40 8L42 8L42 7L43 7L43 8L45 8L45 9L44 9L44 10L45 10L45 9L47 9L47 8L48 8L48 7L47 7L47 5L46 5L46 7L45 7L45 6L44 6L44 5L45 5L45 4L44 4L44 5L43 5L43 4ZM29 5L29 8L32 8L32 5ZM42 5L42 6L41 6L41 7L42 7L42 6L43 6L43 7L44 7L44 6L43 6L43 5ZM9 6L9 7L10 7L10 6ZM13 6L13 7L14 7L14 6ZM17 6L17 8L18 8L18 6ZM20 6L20 7L21 7L21 6ZM24 6L24 7L25 7L25 6ZM26 6L26 9L25 9L25 8L24 8L24 10L26 10L26 11L28 11L28 9L27 9L27 6ZM30 6L30 7L31 7L31 6ZM35 6L35 7L36 7L36 6ZM38 6L38 7L39 7L39 6ZM46 7L46 8L47 8L47 7ZM3 9L3 10L5 10L5 9ZM26 9L26 10L27 10L27 9ZM9 10L9 12L10 12L10 10ZM29 10L29 11L30 11L30 10ZM37 10L37 11L38 11L38 12L37 12L37 13L35 13L35 14L37 14L37 15L38 15L38 16L37 16L37 17L38 17L38 16L39 16L39 17L40 17L40 15L41 15L41 16L42 16L42 15L41 15L41 14L40 14L40 15L38 15L38 14L39 14L39 11L40 11L40 10ZM57 10L57 11L58 11L58 12L59 12L59 11L58 11L58 10ZM31 11L31 14L32 14L32 12L33 12L33 11ZM24 12L24 13L25 13L25 12ZM40 12L40 13L41 13L41 12ZM9 13L9 14L12 14L12 13ZM19 13L19 14L20 14L20 16L21 16L21 18L20 18L20 17L19 17L19 23L18 23L18 22L17 22L17 23L18 23L18 25L19 25L19 26L21 26L21 25L22 25L22 26L23 26L23 25L24 25L24 27L23 27L23 29L21 29L21 30L20 30L20 29L19 29L19 28L21 28L21 27L18 27L18 29L17 29L17 30L18 30L18 29L19 29L19 30L20 30L20 31L19 31L19 33L18 33L18 32L17 32L17 31L16 31L16 35L17 35L17 36L19 36L19 37L18 37L18 38L20 38L20 36L19 36L19 35L21 35L21 36L22 36L22 37L23 37L23 36L22 36L22 35L23 35L23 34L22 34L22 33L20 33L20 32L21 32L21 30L22 30L22 32L23 32L23 33L24 33L24 36L26 36L26 37L25 37L25 38L26 38L26 39L24 39L24 40L22 40L22 41L21 41L21 42L20 42L20 41L19 41L19 42L20 42L20 43L21 43L21 45L20 45L20 46L21 46L21 45L22 45L22 47L23 47L23 45L25 45L25 44L24 44L24 42L25 42L25 41L27 41L27 40L28 40L28 39L31 39L31 38L29 38L29 37L32 37L32 36L33 36L33 37L34 37L34 35L35 35L35 36L37 36L37 37L35 37L35 39L34 39L34 40L33 40L33 39L32 39L32 40L31 40L31 43L32 43L32 42L33 42L33 43L35 43L35 44L37 44L37 43L35 43L35 41L34 41L34 40L35 40L35 39L36 39L36 38L39 38L39 39L37 39L37 40L36 40L36 42L38 42L38 44L40 44L40 46L37 46L37 45L36 45L36 46L37 46L37 47L41 47L41 46L42 46L42 47L43 47L43 48L39 48L39 49L40 49L40 50L39 50L39 51L41 51L41 50L42 50L42 49L43 49L43 48L44 48L44 49L45 49L45 48L48 48L48 46L49 46L49 48L50 48L50 46L49 46L49 45L48 45L48 44L49 44L49 43L50 43L50 42L52 42L52 41L48 41L48 40L49 40L49 39L50 39L50 38L51 38L51 37L50 37L50 38L49 38L49 37L48 37L48 39L47 39L47 41L48 41L48 44L47 44L47 45L46 45L46 43L47 43L47 42L46 42L46 41L45 41L45 40L46 40L46 39L45 39L45 38L47 38L47 37L46 37L46 36L47 36L47 35L48 35L48 36L49 36L49 35L48 35L48 34L49 34L49 33L50 33L50 34L52 34L52 35L50 35L50 36L52 36L52 35L53 35L53 34L54 34L54 33L52 33L52 32L51 32L51 31L52 31L52 29L51 29L51 28L55 28L55 27L57 27L57 26L56 26L56 25L57 25L57 24L55 24L55 26L54 26L54 27L51 27L51 28L50 28L50 26L49 26L49 27L48 27L48 26L47 26L47 25L48 25L48 24L47 24L47 23L48 23L48 22L47 22L47 21L48 21L48 20L47 20L47 19L48 19L48 18L47 18L47 16L46 16L46 15L45 15L45 16L44 16L44 17L43 17L43 18L41 18L41 19L39 19L39 18L38 18L38 19L39 19L39 20L36 20L36 22L35 22L35 20L34 20L34 22L33 22L33 20L31 20L31 22L30 22L30 23L32 23L32 22L33 22L33 23L34 23L34 25L33 25L33 24L29 24L29 23L28 23L28 24L29 24L29 25L27 25L27 23L26 23L26 25L27 25L27 26L29 26L29 27L28 27L28 28L26 28L26 29L25 29L25 24L23 24L23 22L24 22L24 21L25 21L25 22L26 22L26 21L28 21L28 22L29 22L29 20L30 20L30 19L31 19L31 18L33 18L33 17L30 17L30 15L29 15L29 17L30 17L30 19L29 19L29 18L28 18L28 17L26 17L26 16L25 16L25 14L24 14L24 17L22 17L22 15L23 15L23 13ZM2 14L2 15L1 15L1 16L2 16L2 18L3 18L3 14ZM21 14L21 15L22 15L22 14ZM18 15L18 16L19 16L19 15ZM17 17L17 18L18 18L18 17ZM44 17L44 18L43 18L43 19L41 19L41 20L42 20L42 21L40 21L40 23L39 23L39 21L38 21L38 22L37 22L37 23L36 23L36 25L37 25L37 26L35 26L35 27L37 27L37 28L36 28L36 29L35 29L35 28L34 28L34 26L33 26L33 25L31 25L31 26L33 26L33 28L31 28L31 27L30 27L30 28L28 28L28 29L26 29L26 30L27 30L27 31L25 31L25 29L24 29L24 30L23 30L23 31L25 31L25 32L24 32L24 33L25 33L25 34L26 34L26 36L28 36L28 37L26 37L26 38L27 38L27 39L28 39L28 37L29 37L29 36L32 36L32 34L33 34L33 32L34 32L34 33L35 33L35 32L37 32L37 34L38 34L38 35L39 35L39 36L40 36L40 37L39 37L39 38L40 38L40 40L37 40L37 41L38 41L38 42L39 42L39 43L40 43L40 44L41 44L41 42L45 42L45 43L42 43L42 44L45 44L45 43L46 43L46 42L45 42L45 41L44 41L44 40L45 40L45 39L44 39L44 40L43 40L43 39L42 39L42 38L44 38L44 37L43 37L43 36L44 36L44 35L45 35L45 34L46 34L46 35L47 35L47 34L48 34L48 33L49 33L49 32L47 32L47 34L46 34L46 32L45 32L45 30L46 30L46 31L49 31L49 29L50 29L50 28L48 28L48 27L47 27L47 26L46 26L46 25L44 25L44 24L45 24L45 22L46 22L46 23L47 23L47 22L46 22L46 21L44 21L44 22L43 22L43 20L45 20L45 19L44 19L44 18L46 18L46 19L47 19L47 18L46 18L46 17ZM21 18L21 19L20 19L20 21L21 21L21 22L22 22L22 21L21 21L21 19L23 19L23 18ZM24 18L24 19L25 19L25 18ZM26 18L26 19L27 19L27 20L28 20L28 18ZM36 18L36 19L37 19L37 18ZM54 18L54 19L55 19L55 18ZM58 18L58 19L59 19L59 18ZM6 20L6 21L7 21L7 20ZM23 20L23 21L24 21L24 20ZM25 20L25 21L26 21L26 20ZM34 22L34 23L35 23L35 22ZM41 22L41 23L40 23L40 24L37 24L37 25L38 25L38 26L37 26L37 27L38 27L38 28L40 28L40 29L38 29L38 30L39 30L39 31L38 31L38 32L40 32L40 33L39 33L39 35L40 35L40 36L42 36L42 35L43 35L43 34L42 34L42 33L41 33L41 32L43 32L43 30L41 30L41 32L40 32L40 29L41 29L41 28L42 28L42 29L43 29L43 28L44 28L44 29L46 29L46 30L48 30L48 28L47 28L47 27L46 27L46 26L42 26L42 27L41 27L41 28L40 28L40 27L39 27L39 26L40 26L40 25L41 25L41 23L42 23L42 25L43 25L43 22ZM6 23L6 24L4 24L4 25L3 25L3 27L6 27L6 28L7 28L7 27L8 27L8 24L7 24L7 23ZM20 23L20 24L19 24L19 25L21 25L21 23ZM6 24L6 25L4 25L4 26L6 26L6 27L7 27L7 26L6 26L6 25L7 25L7 24ZM22 24L22 25L23 25L23 24ZM15 25L15 26L16 26L16 25ZM29 25L29 26L30 26L30 25ZM9 26L9 27L11 27L11 26ZM42 27L42 28L43 28L43 27ZM44 27L44 28L45 28L45 27ZM33 28L33 29L34 29L34 30L33 30L33 31L34 31L34 32L35 32L35 31L37 31L37 29L36 29L36 30L35 30L35 29L34 29L34 28ZM5 29L5 32L8 32L8 29ZM29 29L29 32L32 32L32 29ZM53 29L53 32L56 32L56 29ZM6 30L6 31L7 31L7 30ZM30 30L30 31L31 31L31 30ZM54 30L54 31L55 31L55 30ZM27 31L27 32L25 32L25 33L28 33L28 36L29 36L29 33L28 33L28 31ZM0 32L0 33L1 33L1 32ZM44 32L44 33L45 33L45 32ZM17 33L17 35L19 35L19 34L18 34L18 33ZM40 33L40 34L41 34L41 35L42 35L42 34L41 34L41 33ZM21 34L21 35L22 35L22 34ZM30 34L30 35L31 35L31 34ZM3 37L3 38L4 38L4 37ZM41 37L41 38L42 38L42 37ZM15 38L15 39L16 39L16 38ZM13 39L13 40L11 40L11 41L13 41L13 40L14 40L14 41L16 41L16 40L14 40L14 39ZM41 39L41 40L40 40L40 41L39 41L39 42L41 42L41 41L43 41L43 40L42 40L42 39ZM51 39L51 40L52 40L52 39ZM3 40L3 41L4 41L4 40ZM24 40L24 41L25 41L25 40ZM22 41L22 42L21 42L21 43L22 43L22 44L23 44L23 43L22 43L22 42L23 42L23 41ZM28 41L28 42L27 42L27 43L26 43L26 45L27 45L27 46L28 46L28 47L27 47L27 48L26 48L26 47L25 47L25 46L24 46L24 48L26 48L26 49L27 49L27 50L29 50L29 49L28 49L28 47L29 47L29 48L30 48L30 46L29 46L29 45L30 45L30 43L28 43L28 42L29 42L29 41ZM33 41L33 42L34 42L34 41ZM11 42L11 43L12 43L12 42ZM13 42L13 44L14 44L14 42ZM27 43L27 45L29 45L29 44L28 44L28 43ZM3 44L3 45L7 45L7 44ZM42 45L42 46L45 46L45 47L44 47L44 48L45 48L45 47L47 47L47 46L48 46L48 45L47 45L47 46L46 46L46 45ZM55 45L55 46L57 46L57 45ZM58 45L58 46L59 46L59 45ZM6 46L6 47L7 47L7 46ZM17 47L17 48L16 48L16 50L17 50L17 49L19 49L19 48L21 48L21 47L19 47L19 48L18 48L18 47ZM54 47L54 49L55 49L55 48L59 48L59 47ZM4 49L4 50L9 50L9 49ZM20 49L20 50L21 50L21 51L22 51L22 50L21 50L21 49ZM37 49L37 50L36 50L36 51L37 51L37 52L38 52L38 49ZM56 49L56 50L57 50L57 52L59 52L59 49L58 49L58 50L57 50L57 49ZM3 51L3 52L4 52L4 51ZM54 51L54 52L56 52L56 51ZM6 52L6 53L7 53L7 52ZM29 53L29 56L32 56L32 53ZM53 53L53 56L56 56L56 53ZM57 53L57 54L58 54L58 53ZM23 54L23 55L24 55L24 56L26 56L26 55L25 55L25 54ZM30 54L30 55L31 55L31 54ZM50 54L50 55L51 55L51 54ZM54 54L54 55L55 55L55 54ZM11 55L11 56L12 56L12 55ZM17 55L17 56L18 56L18 55ZM57 55L57 56L60 56L60 55ZM35 56L35 57L36 57L36 56ZM29 57L29 58L31 58L31 59L32 59L32 58L31 58L31 57ZM54 57L54 59L55 59L55 58L56 58L56 57ZM58 57L58 58L59 58L59 59L58 59L58 60L60 60L60 57ZM11 58L11 59L12 59L12 58ZM13 58L13 60L12 60L12 61L14 61L14 60L16 60L16 59L14 59L14 58ZM28 60L28 61L29 61L29 60ZM42 60L42 61L43 61L43 60ZM0 0L0 7L7 7L7 0ZM1 1L1 6L6 6L6 1ZM2 2L2 5L5 5L5 2ZM54 0L54 7L61 7L61 0ZM55 1L55 6L60 6L60 1ZM56 2L56 5L59 5L59 2ZM0 54L0 61L7 61L7 54ZM1 55L1 60L6 60L6 55ZM2 56L2 59L5 59L5 56Z" fill="#000000"/></g></g></svg>
